<svg width="24" height="24" fill="none" xmlns="http://www.w3.org/2000/svg"><path fill-rule="evenodd" clip-rule="evenodd" d="M19.406 12c0-2.065-.721-3.816-2.165-5.254-1.443-1.439-3.2-2.158-5.273-2.158-1.16 0-2.248.257-3.263.771a8.025 8.025 0 0 0-2.622 2.12H8.36v1.589H3.468V4.19h1.594V6.2a9.015 9.015 0 0 1 3.097-2.36A8.918 8.918 0 0 1 11.97 3a8.8 8.8 0 0 1 3.522.709 9.147 9.147 0 0 1 2.865 1.926 9.11 9.11 0 0 1 1.933 2.855A8.713 8.713 0 0 1 21 12h-1.594zM4.594 12c0 2.065.721 3.816 2.165 5.254 1.443 1.439 3.2 2.158 5.273 2.158 1.16 0 2.248-.257 3.263-.771a8.025 8.025 0 0 0 2.622-2.12H15.64v-1.589h4.892v4.878h-1.594V17.8a9.016 9.016 0 0 1-3.097 2.36 8.918 8.918 0 0 1-3.81.84 8.8 8.8 0 0 1-3.522-.709 9.147 9.147 0 0 1-2.865-1.926 9.11 9.11 0 0 1-1.933-2.855A8.714 8.714 0 0 1 3 12h1.594z" fill="#1E1E1E"/><path d="M14.47 9.47l1.06 1.06L11 15.06l-2.53-2.53 1.06-1.06L11 12.94l3.47-3.47z" fill="#1E1E1E"/></svg>
