<svg fill="none" height="24" viewBox="0 0 24 24" width="24" xmlns="http://www.w3.org/2000/svg"><g fill="#1e1e1e"><path d="m11.9683 21c-2.30084 0-4.30606-.7548-6.01572-2.2643-1.70965-1.5095-2.69385-3.4018-2.95258-5.6769h1.62651c.2683 1.8286 1.09417 3.3446 2.47762 4.5479 1.38327 1.2034 3.00467 1.8051 4.86417 1.8051 2.0719 0 3.8296-.7192 5.2729-2.1574s2.165-3.1897 2.165-5.2544c0-2.06471-.7217-3.81618-2.165-5.25441-1.4433-1.43824-3.201-2.15735-5.2729-2.15735-1.1607 0-2.24842.25694-3.26316.77082-1.01492.5137-1.88887 1.22056-2.62186 2.12056h2.27672v1.58823h-4.89221v-4.87785h1.59384v2.01082c.86226-1.014 1.89489-1.80097 3.09789-2.36091 1.20281-.55994 2.47238-.83991 3.80878-.83991 1.2532 0 2.4275.23621 3.5229.70862 1.0951.47241 2.05 1.1145 2.8646 1.92626.8147.81177 1.459 1.76339 1.9331 2.85486.4741 1.09129.7111 2.26136.7111 3.51026s-.237 2.419-.7111 3.5103c-.4741 1.0914-1.1184 2.0431-1.9331 2.8548-.8146.8118-1.7695 1.4539-2.8646 1.9263-1.0954.4724-2.2697.7086-3.5229.7086z"/><path d="m10.6391 9.96599c-.2692.18841-.3534.38711-.3534.53401s.0842.3456.3534.534c.2672.187.6706.3231 1.1466.3231.7075 0 1.3755.1997 1.8839.5556.5063.3544.9018.9057.9018 1.5873s-.3955 1.2329-.9018 1.5873c-.3508.2456-.7777.4168-1.241.4993v.2705c0 .3551-.2878.6429-.6429.6429-.355 0-.6428-.2878-.6428-.6429v-.2705c-.4634-.0825-.8903-.2537-1.24107-.4993-.50634-.3544-.90183-.9057-.90183-1.5873 0-.355.28782-.6429.64286-.6429s.64284.2879.64284.6429c0 .1469.0842.3456.3534.534.2672.187.6706.3231 1.1466.3231s.8794-.1361 1.1466-.3231c.2692-.1884.3534-.3871.3534-.534s-.0842-.3456-.3534-.534c-.2672-.187-.6706-.3231-1.1466-.3231-.7074 0-1.3755-.1997-1.88387-.5556-.50634-.3544-.90183-.9057-.90183-1.5873 0-.68156.39549-1.23287.90183-1.58731.35077-.24557.77767-.41676 1.24107-.4993v-.27053c0-.35504.2878-.64286.6428-.64286.3551 0 .6429.28782.6429.64286v.27053c.4633.08254.8902.25373 1.241.4993.5063.35444.9018.90575.9018 1.58731 0 .355-.2878.6429-.6428.6429-.3551 0-.6429-.2879-.6429-.6429 0-.1469-.0842-.3456-.3534-.53401-.2672-.18704-.6706-.32313-1.1466-.32313s-.8794.13609-1.1466.32313z"/></g></svg>