<svg width="124" height="84" fill="none" xmlns="http://www.w3.org/2000/svg"><path d="M118.328 43.305c1.005 0 1.82-.816 1.82-1.824a1.822 1.822 0 10-3.641 0c0 1.008.815 1.824 1.821 1.824z" fill="#E1D7FF"/><path d="M14.744 26.433c-.527-1.008-1.749-1.368-2.778-.864l-7.33 3.84c-1.005.528-1.412 1.752-.91 2.76a2.068 2.068 0 002.779.84l7.329-3.84c1.006-.528 1.413-1.776.886-2.76l.024.024zm98.674-5.736l-5.892 5.832c-.814.816-.838 2.112-.048 2.904.79.792 2.084.792 2.898 0l5.892-5.832c.814-.792.838-2.112.048-2.904-.791-.792-2.084-.792-2.898 0zM64.631 3.945l8.814 6.048c1.221.84 2.706.744 3.353-.168.647-.912.168-2.352-1.054-3.192L66.93.585c-1.221-.84-2.706-.768-3.353.168-.646.936-.167 2.352 1.054 3.192z" fill="#B999FF"/><path d="M83.001 62.553c.431 1.056 1.629 1.56 2.658 1.152a2.069 2.069 0 001.102-2.688l-3.137-7.68c-.431-1.056-1.629-1.56-2.659-1.152a2.069 2.069 0 00-1.101 2.688L83 62.553z" fill="#E1D7FF"/><path d="M84.414 34.761a2.032 2.032 0 00.096-2.904l-5.58-6.12c-.767-.84-2.084-.912-2.898-.144a2.032 2.032 0 00-.096 2.904l5.58 6.12c.767.84 2.06.912 2.898.144z" fill="#720EEC"/><path d="M24.611 1.233a2.055 2.055 0 00-1.772 2.304l.982 8.232c.143 1.128 1.15 1.944 2.275 1.8a2.042 2.042 0 001.772-2.304l-1.006-8.232c-.143-1.128-1.15-1.944-2.275-1.8h.024z" fill="#D1C1FF"/><path d="M13.858 53.721a2.042 2.042 0 00-1.294-2.592l-7.831-2.664c-1.078-.36-2.252.192-2.61 1.272a2.042 2.042 0 001.292 2.592l7.832 2.664c1.078.36 2.251-.192 2.61-1.272z" fill="#A77EFF"/><path d="M58.524 35.985c-1.006-.528-2.227-.12-2.754.912l-3.784 7.368c-.527 1.008-.144 2.256.862 2.76 1.006.528 2.227.12 2.754-.912l3.784-7.368c.527-1.008.144-2.256-.862-2.76z" fill="#873EFF"/><path d="M44.298 36.465a1.821 1.821 0 10-3.64 0 1.821 1.821 0 103.64 0z" fill="#A77EFF"/><path d="M24.491 53.865c.982 0 1.82-.816 1.82-1.824a1.821 1.821 0 10-3.64 0c0 1.008.814 1.824 1.82 1.824z" fill="#873EFF"/><path d="M105.011 49.905a1.821 1.821 0 10-3.64 0 1.821 1.821 0 103.64 0z" fill="#D1C1FF"/><path d="M81.49 77.529c1.006 0 1.82-.816 1.82-1.824a1.821 1.821 0 10-3.64 0c0 1.008.814 1.824 1.82 1.824z" fill="#720EEC"/><path d="M88.055 23.577a1.821 1.821 0 10-3.64 0 1.821 1.821 0 103.64 0z" fill="#873EFF"/><path d="M66.5 75.465a2.405 2.405 0 002.394-2.4c0-1.32-1.077-2.4-2.395-2.4a2.405 2.405 0 00-2.394 2.4c0 1.32 1.077 2.4 2.394 2.4zm37.841-70.536a1.822 1.822 0 10-3.641 0 1.822 1.822 0 103.641 0z" fill="#B999FF"/><path d="M123.549 10.857c.431-1.032-.096-2.232-1.15-2.664l-7.688-3.096a2.052 2.052 0 00-2.682 1.128c-.431 1.056.096 2.232 1.149 2.664l7.688 3.096a2.053 2.053 0 002.683-1.128z" fill="#D1C1FF"/><path d="M23.534 28.881c1.005.528 2.347-.12 3.041-1.44l4.934-9.48c.67-1.32.43-2.784-.575-3.312-1.006-.528-2.347.12-3.042 1.44l-4.933 9.48c-.67 1.32-.431 2.784.575 3.312z" fill="#A77EFF"/><path d="M76.702 20.745l8.43-6.576c1.15-.912 1.558-2.352.863-3.24-.695-.888-2.203-.888-3.353.024l-8.43 6.576c-1.174.912-1.557 2.352-.863 3.24.695.888 2.204.888 3.353-.024z" fill="#873EFF"/><path d="M38.502 11.097c-1.006.504-1.27 1.992-.599 3.312l4.862 9.528c.67 1.32 2.036 1.968 3.042 1.464 1.006-.504 1.27-1.992.599-3.312l-4.862-9.528c-.671-1.32-2.036-1.968-3.042-1.464z" fill="#720EEC"/><path d="M55.818 57.057c-.79-.768-2.036-.768-2.778 0l-5.365 5.568c-.742.768-.694 2.016.096 2.784.79.768 2.036.768 2.778 0l5.365-5.568c.742-.768.694-2.016-.096-2.784z" fill="#E1D7FF"/><path d="M111.095 39.657c-.12-1.104-1.413-1.896-2.874-1.728l-10.61 1.2c-1.461.168-2.563 1.2-2.42 2.328.12 1.128 1.414 1.896 2.875 1.728l10.61-1.2c1.461-.168 2.538-1.2 2.419-2.328z" fill="#A77EFF"/><path d="M52.824 29.361c.192.984 1.15 1.632 2.108 1.44a1.802 1.802 0 001.437-2.112 1.822 1.822 0 00-2.132-1.44 1.802 1.802 0 00-1.437 2.112h.024z" fill="#E1D7FF"/><path d="M61.638 20.601c1.293-.264 2.155-1.512 1.892-2.808-.264-1.296-1.51-2.16-2.802-1.896-1.294.264-2.156 1.512-1.892 2.808.263 1.296 1.508 2.16 2.802 1.896z" fill="#D1C1FF"/><path d="M3.08 71.217a1.802 1.802 0 001.437-2.112c-.191-.984-1.15-1.632-2.107-1.44A1.826 1.826 0 00.973 69.8a1.799 1.799 0 002.107 1.44v-.024z" fill="#A77EFF"/><path d="M73.733 40.833a1.822 1.822 0 00-2.132-1.44 1.822 1.822 0 00.695 3.576 1.826 1.826 0 001.437-2.136z" fill="#720EEC"/><path d="M9.762 8.865c-.191-.984-1.15-1.632-2.107-1.44a1.802 1.802 0 00-1.437 2.112 1.799 1.799 0 002.107 1.44 1.802 1.802 0 001.437-2.112z" fill="#B999FF"/><path d="M64.272 57.945a1.821 1.821 0 103.64 0 1.821 1.821 0 10-3.64 0z" fill="#D1C1FF"/><path d="M43.926 78.713a2.05 2.05 0 00-.503-2.855l-6.754-4.8a2.027 2.027 0 00-2.85.455 2.05 2.05 0 00.503 2.856l6.754 4.8a2.059 2.059 0 002.874-.456h-.024z" fill="#B999FF"/><path d="M97.443 13.809c1.006 1.08 2.491 1.32 3.305.528.815-.768.647-2.28-.359-3.336l-7.353-7.752c-1.005-1.08-2.49-1.296-3.305-.528-.814.768-.67 2.28.36 3.336l7.352 7.752z" fill="#E1D7FF"/><path d="M121.561 63.585c-.192-1.104-1.27-1.848-2.395-1.632l-8.143 1.488c-1.126.216-1.868 1.272-1.653 2.376.192 1.104 1.27 1.848 2.395 1.632l8.119-1.512c1.126-.216 1.868-1.272 1.677-2.376v.024zM16.803 81.32l1.748-10.56c.24-1.463-.454-2.783-1.58-2.975-1.102-.192-2.204.84-2.443 2.304l-1.748 10.56c-.24 1.464.455 2.784 1.58 2.976 1.102.192 2.204-.84 2.443-2.304z" fill="#720EEC"/><path d="M35.508 42.417c.431-1.032-.072-2.232-1.126-2.664l-7.663-3.144a2.061 2.061 0 00-2.683 1.104c-.431 1.032.072 2.232 1.126 2.664l7.64 3.144a2.061 2.061 0 002.682-1.104h.024z" fill="#D1C1FF"/><path d="M96.35 66.98a2.42 2.42 0 00-1.198 3.192 2.384 2.384 0 003.162 1.2 2.393 2.393 0 001.197-3.168c-.527-1.224-1.964-1.752-3.161-1.224zM43.292 2.313a1.821 1.821 0 00-.91 2.4 1.815 1.815 0 002.395.912 1.821 1.821 0 00.91-2.4 1.815 1.815 0 00-2.395-.912z" fill="#873EFF"/><path d="M2.553 23.409a1.822 1.822 0 00.91-2.4c-.407-.912-1.485-1.32-2.395-.912a1.822 1.822 0 00-.91 2.4c.407.912 1.485 1.32 2.395.912z" fill="#E1D7FF"/><path d="M40.322 51.201c-1.293.264-2.132 1.56-1.844 2.832a2.366 2.366 0 002.826 1.848 2.37 2.37 0 001.844-2.832 2.366 2.366 0 00-2.826-1.848z" fill="#B999FF"/><path d="M97.49 26.985c.911-.408 1.318-1.488.911-2.4-.407-.912-1.485-1.32-2.395-.912-.91.408-1.317 1.488-.91 2.4a1.815 1.815 0 002.395.912z" fill="#E1D7FF"/></svg>