<svg width="1654" height="571" fill="none" xmlns="http://www.w3.org/2000/svg"><g clip-path="url(#clip0_152_987)"><path d="M38.1 113.158l-.492-17.25c-.114-5.91-4.597-11.185-10.404-12.271L10.26 80.299C.463 78.293-3.575 65.433 3.775 59.614l52.003-41.472C72.15 38.666 89.292 58.82 106.914 78.556L57.343 122.92c-6.938 6.247-18.947.263-19.25-9.763h.006z" fill="#E1D7FF"/><path d="M41.645 110.066l-.462-17.222c-.103-5.904-4.574-11.156-10.37-12.231l-16.914-3.304C4.117 75.326.109 62.494 7.458 56.682L3.78 59.614c-7.349 5.818-3.312 18.679 6.487 20.685l16.943 3.338c5.807 1.08 10.29 6.355 10.404 12.271l.49 17.25c.303 10.025 12.312 16.009 19.25 9.762l3.506-3.138c-6.938 6.247-18.923.292-19.21-9.716h-.005z" fill="#B999FF"/><path d="M311.405 277.563c-51.341-39.953-100.078-83.5-146.206-129.642-45.957-46.2-89.829-95.08-128.933-146.298L38.408 0c38.995 51.08 82.81 99.898 128.687 146.017 46.053 46.068 94.711 89.541 145.955 129.419l-1.65 2.127h.005z" fill="#D1C1FF"/><path d="M98.902 85.729c-17.742-19.873-35.01-40.17-51.53-60.883l8.412-6.71C72.155 38.66 89.298 58.814 106.92 78.55l-8.018 7.173v.006z" fill="#B999FF"/><path d="M102.283 85.14c-18.53-20.724-36.575-41.89-53.745-63.529-.617-.783-.526-1.88.205-2.457l3.512-2.784c.725-.577 1.81-.417 2.421.36 17.057 21.49 35.01 42.547 53.443 63.17.662.742.639 1.851-.052 2.468l-3.329 2.995c-.691.623-1.787.515-2.455-.228v.005z" fill="#E1D7FF"/><path d="M131.514 211.964l-1.839-17.159c-.634-5.83-5.499-10.734-11.335-11.357l-17.154-1.84c-9.873-1.166-14.938-13.546-8.148-19.976l48.149-45.903a1594.451 1594.451 0 0056.172 56.231l-45.888 48.171c-6.418 6.779-18.844 1.761-19.957-8.162v-.005z" fill="#B999FF"/><path d="M134.797 208.597l-1.816-17.135c-.622-5.819-5.476-10.717-11.306-11.328l-17.131-1.818c-9.861-1.149-14.898-13.506-8.108-19.936l-3.41 3.246c-6.79 6.43-1.73 18.816 8.149 19.977l17.154 1.84c5.836.623 10.707 5.527 11.335 11.357l1.838 17.158c1.114 9.928 13.54 14.941 19.958 8.162l3.249-3.406c-6.418 6.778-18.815 1.789-19.917-8.122l.005.005zm55.139-28.852a1604.235 1604.235 0 01-56.543-56.596l7.788-7.424a1594.45 1594.45 0 0056.173 56.23l-7.424 7.79h.006z" fill="#873EFF"/><path d="M193.259 178.887a1620.632 1620.632 0 01-59.01-59.065c-.697-.72-.708-1.829-.034-2.469l3.249-3.081c.674-.64 1.77-.566 2.467.149a1614.851 1614.851 0 0058.73 58.785c.72.692.788 1.795.149 2.469l-3.084 3.252c-.639.675-1.741.658-2.467-.034v-.006z" fill="#B999FF"/><path d="M232.552 303.014c-1.159-5.613-2.181-11.334-3.238-16.976-1.068-5.801-6.344-10.276-12.26-10.385l-17.205-.526c-9.987-.326-16.034-12.266-9.742-19.256l44.358-49.583c19.752 17.627 39.835 34.86 60.409 51.446l-41.748 51.807c-5.847 7.305-18.593 3.224-20.574-6.533v.006z" fill="#873EFF"/><path d="M235.55 299.384c-1.154-5.601-2.164-11.317-3.204-16.947-1.062-5.795-6.321-10.254-12.22-10.351l-17.182-.497c-9.97-.309-15.995-12.226-9.696-19.216l-3.141 3.509c-6.292 6.991-.251 18.931 9.742 19.256l17.205.526c5.91.109 11.187 4.578 12.26 10.386 1.057 5.641 2.073 11.362 3.238 16.975 1.981 9.757 14.727 13.838 20.574 6.533l2.952-3.664c-5.847 7.305-18.564 3.247-20.528-6.493v-.017zm52.574-33.265c-20.722-16.706-40.948-34.059-60.831-51.806l7.172-8.019c19.752 17.627 39.835 34.86 60.409 51.446l-6.75 8.379z" fill="#720EEC"/><path d="M291.362 264.993c-21.619-17.438-42.753-35.511-63.464-54.075-.742-.675-.839-1.778-.223-2.464l2.992-3.332c.623-.691 1.725-.709 2.462-.04 20.608 18.473 41.639 36.454 63.144 53.801.771.629.925 1.727.348 2.447l-2.803 3.492c-.583.726-1.685.8-2.456.166v.005z" fill="#873EFF"/><path d="M341.339 385.239l-4.78-16.666c-1.599-5.693-7.298-9.631-13.185-9.243l-17.205.972c-10.016.56-17.108-10.843-11.426-18.359l39.915-53.235c21.156 15.752 42.547 31.185 64.56 45.588l-36.683 55.516c-5.127 7.825-18.278 4.967-21.191-4.573h-.005z" fill="#E1D7FF"/><path d="M343.994 381.347l-4.745-16.638c-1.588-5.682-7.269-9.608-13.14-9.214l-17.17 1c-9.994.572-17.051-10.808-11.375-18.318l-2.827 3.766c-5.682 7.516 1.41 18.913 11.426 18.359l17.205-.972c5.882-.383 11.587 3.555 13.185 9.242l4.78 16.667c2.907 9.54 16.063 12.398 21.191 4.573l2.598-3.927c-5.128 7.825-18.244 4.99-21.128-4.532v-.006z" fill="#B999FF"/><path d="M649.392 462.846c-61.06-19.147-119.882-46.056-176.374-77.315-56.412-31.528-110.266-68.056-161.613-107.974l1.651-2.126c51.255 39.843 104.995 76.298 161.27 107.745 56.349 31.185 115.011 58.019 175.877 77.098l-.817 2.567.006.005z" fill="#D1C1FF"/><path d="M393.28 343.275c-22.202-14.523-43.764-30.081-65.081-45.953l6.453-8.608c21.157 15.752 42.547 31.184 64.561 45.588l-5.933 8.979v-.006z" fill="#B999FF"/><path d="M396.392 341.84c-23.173-15.123-45.671-31.35-67.884-47.954-.794-.606-.988-1.697-.429-2.435l2.696-3.578c.559-.743 1.65-.857 2.444-.251 22.087 16.512 44.454 32.642 67.484 47.674.822.549 1.079 1.623.571 2.4l-2.461 3.744c-.508.778-1.593.955-2.421.4z" fill="#E1D7FF"/><path d="M458.354 456.37l-6.658-15.987c-2.273-5.389-8.257-8.899-14.087-7.904l-17.108 2.806c-9.971 1.612-18.113-9.242-13.271-17.193l34.37-56.979c22.413 13.678 45.351 26.361 68.615 38.289l-30.247 59.271c-4.237 8.397-17.742 7.042-21.608-2.309l-.006.006z" fill="#B999FF"/><path d="M460.57 452.214l-6.607-15.963c-2.261-5.379-8.217-8.877-14.03-7.871l-17.063 2.835c-9.941 1.629-18.044-9.202-13.208-17.153l-2.432 4.03c-4.837 7.95 3.306 18.804 13.271 17.193l17.108-2.807c5.83-1 11.814 2.515 14.087 7.905l6.658 15.987c3.872 9.345 17.371 10.705 21.608 2.309l2.141-4.196c-4.237 8.397-17.69 7.065-21.533-2.269zm44.751-43.221c-23.498-12.054-46.664-24.857-69.277-38.66l5.556-9.214c22.413 13.678 45.351 26.361 68.615 38.289l-4.894 9.585z" fill="#873EFF"/><path d="M508.251 407.198c-24.526-12.506-48.681-25.869-72.247-40.301-.851-.515-1.153-1.572-.668-2.366l2.324-3.83c.48-.794 1.559-1.023 2.404-.514 23.412 14.335 47.396 27.601 71.739 40.015.879.44 1.25 1.474.833 2.303l-2.021 3.996c-.417.828-1.474 1.137-2.364.691v.006z" fill="#B999FF"/><path d="M583.678 513.406c-3.015-4.898-5.864-10.054-8.714-15.083-2.918-5.184-9.382-7.762-15.075-6.007-5.568 1.76-11.084 3.286-16.663 4.841-9.667 2.669-19.295-6.876-15.412-15.393l27.284-60.7c23.835 10.523 47.909 20.44 72.412 28.956l-21.984 62.815c-3.044 8.853-16.652 9.156-21.848.577v-.006z" fill="#873EFF"/><path d="M585.334 509c-2.992-4.893-5.824-10.037-8.651-15.061-2.895-5.178-9.331-7.739-15.001-5.978-5.55 1.772-11.044 3.303-16.606 4.864-9.639 2.68-19.209-6.842-15.326-15.358l-1.93 4.292c-3.883 8.517 5.744 18.062 15.412 15.392 5.579-1.554 11.095-3.075 16.663-4.841 5.693-1.754 12.157.823 15.075 6.007 2.849 5.03 5.699 10.186 8.714 15.084 5.196 8.579 18.804 8.276 21.847-.577l1.554-4.447c-3.044 8.853-16.589 9.179-21.751.612V509zm38.624-48.823c-24.811-8.625-49.165-18.651-73.268-29.299l4.414-9.814c23.834 10.523 47.909 20.44 72.412 28.956l-3.558 10.157z" fill="#720EEC"/><path d="M626.602 458.028c-25.85-8.985-51.244-19.405-76.358-30.533-.896-.423-1.307-1.446-.925-2.292l1.85-4.081c.383-.846 1.416-1.189 2.302-.772 24.908 11.037 50.085 21.371 75.707 30.276.919.332 1.416 1.315 1.113 2.189l-1.462 4.235c-.302.875-1.302 1.315-2.227.984v-.006z" fill="#873EFF"/><path d="M716.808 551.907l-11.061-13.46c-3.752-4.492-10.495-6.27-15.869-3.727l-15.846 7.334c-9.313 4.344-20.174-4.201-17.588-13.101l18.193-64.02c12.386 3.772 24.966 6.607 37.483 9.768 6.27 1.52 12.602 2.669 18.901 4.029 6.304 1.315 12.603 2.704 18.958 3.647l-11.58 65.541c-.811 4.607-4.552 7.602-8.96 8.493-4.38.795-9.382-.634-12.625-4.509l-.006.005z" fill="#E1D7FF"/><path d="M717.744 547.295l-10.981-13.443c-3.723-4.487-10.432-6.259-15.777-3.704l-15.772 7.35c-9.268 4.356-20.066-4.172-17.485-13.071l-1.285 4.527c-2.586 8.899 8.28 17.438 17.588 13.1l15.846-7.333c5.374-2.544 12.117-.766 15.869 3.726l11.061 13.46c3.238 3.876 8.246 5.305 12.625 4.51 4.409-.891 8.155-3.886 8.96-8.493l.816-4.636c-.81 4.607-4.534 7.608-8.919 8.505-4.357.8-9.331-.623-12.551-4.498h.005z" fill="#B999FF"/><path d="M1024.88 479.108c-7.71 1.76-15.33 3.989-23.12 5.384l-23.295 4.504c-15.635 2.32-31.247 4.972-47.024 6.184-31.464 3.092-63.185 4.035-94.831 2.286-31.647-1.6-63.224-5.31-94.523-11.054-31.258-5.984-62.208-13.912-92.701-23.565l.817-2.567c30.39 9.62 61.231 17.519 92.381 23.486 31.184 5.721 62.642 9.419 94.157 11.014 31.521 1.743 63.105.806 94.437-2.275 15.709-1.206 31.258-3.847 46.83-6.161l23.202-4.487c7.75-1.383 15.34-3.607 23.02-5.361l.65 2.612z" fill="#D1C1FF"/><path d="M748.1 492.985c-6.452-.966-12.842-2.372-19.238-3.698-6.389-1.377-12.819-2.543-19.175-4.092-12.688-3.201-25.451-6.082-38.002-9.9l2.941-10.351c12.386 3.773 24.965 6.608 37.482 9.768 6.27 1.521 12.603 2.67 18.901 4.03 6.305 1.314 12.603 2.703 18.959 3.646l-1.873 10.603.005-.006z" fill="#B999FF"/><path d="M750.362 490.402c-6.721-1.018-13.391-2.361-20.044-3.795-6.652-1.435-13.345-2.658-19.968-4.253-13.226-3.292-26.496-6.384-39.573-10.357-.948-.268-1.502-1.211-1.245-2.103l1.245-4.304c.257-.891 1.228-1.4 2.159-1.131 12.951 3.932 26.084 6.99 39.178 10.253 6.555 1.584 13.179 2.79 19.763 4.207 6.584 1.423 13.185 2.755 19.832 3.755.954.16 1.599 1.029 1.445 1.944l-.76 4.418c-.154.914-1.067 1.526-2.032 1.366z" fill="#E1D7FF"/><path d="M855.323 567.523l-13.351-11.46c-4.5-3.921-11.495-4.201-16.36-.652-4.728 3.372-9.508 6.556-14.367 9.831-8.429 5.601-20.786-.303-19.724-9.694l7.001-66.187c25.531 2.281 51.142 4.196 76.724 3.567l.668 66.553c.166 9.35-12.728 14.363-20.591 8.042z" fill="#B999FF"/><path d="M855.408 562.813l-13.265-11.455c-4.471-3.92-11.42-4.195-16.251-.651-4.7 3.372-9.451 6.561-14.276 9.836-8.377 5.607-20.654-.291-19.592-9.682l-.497 4.681c-1.062 9.391 11.295 15.295 19.724 9.694 4.853-3.275 9.633-6.459 14.367-9.831 4.865-3.544 11.854-3.264 16.36.652l13.35 11.46c7.863 6.321 20.757 1.308 20.592-8.042l-.046-4.71c.165 9.351-12.648 14.358-20.46 8.042l-.006.006zm19.946-59.123c-26.01.629-52.026-1.303-77.962-3.623l1.13-10.706c25.531 2.281 51.142 4.196 76.724 3.567l.108 10.762z" fill="#873EFF"/><path d="M877.096 500.758l-20.306.092-20.306-.812c-6.772-.149-13.527-.697-20.283-1.309-6.749-.617-13.522-1-20.26-1.795-.971-.12-1.673-.971-1.57-1.891l.491-4.453c.103-.92.965-1.572 1.924-1.452 6.664.789 13.357 1.166 20.032 1.772 6.675.6 13.356 1.149 20.049 1.292l20.066.806 20.06-.092c.965 0 1.753.743 1.77 1.675l.069 4.481c.017.926-.765 1.686-1.742 1.686h.006z" fill="#B999FF"/><path d="M994.705 556.394a286.928 286.928 0 01-15.303-8.493c-5.185-3.024-12.118-2.023-16.223 2.343-4.003 4.19-8.04 8.671-12.215 12.632-7.229 7.036-20.545 3.384-21.276-5.95l-5.699-66.313 19.084-1.84c6.355-.68 12.654-1.772 18.986-2.629 12.694-1.549 25.2-4.264 37.763-6.642l13.558 65.158c1.98 9.151-9.73 16.427-18.681 11.734h.006z" fill="#873EFF"/><path d="M993.877 551.759a282.984 282.984 0 01-15.212-8.511c-5.156-3.029-12.043-2.034-16.114 2.327-3.975 4.184-7.978 8.659-12.123 12.62-7.178 7.03-20.415 3.366-21.146-5.967l.406 4.692c.731 9.334 14.047 12.986 21.276 5.95 4.169-3.966 8.212-8.442 12.215-12.631 4.1-4.367 11.032-5.367 16.223-2.344a286.948 286.948 0 0015.303 8.494c8.945 4.692 20.665-2.584 18.685-11.734l-.96-4.613c1.98 9.151-9.66 16.41-18.553 11.711v.006zm8.143-61.723c-12.774 2.423-25.491 5.173-38.396 6.75-6.435.875-12.848 1.983-19.306 2.675l-19.404 1.875-.919-10.723 19.083-1.84c6.356-.68 12.654-1.772 18.987-2.629 12.694-1.549 25.2-4.264 37.762-6.642l2.193 10.54v-.006z" fill="#720EEC"/><path d="M1003.16 486.847c-13.297 2.492-26.522 5.418-39.958 7.053-6.704.892-13.368 2.103-20.101 2.744l-20.191 1.949c-.971.091-1.816-.578-1.89-1.504l-.36-4.469c-.074-.926.639-1.749 1.599-1.846l19.952-1.927c6.652-.634 13.236-1.834 19.854-2.714 13.271-1.612 26.336-4.516 39.475-6.968.94-.183 1.87.406 2.06 1.315l.94 4.384c.19.908-.42 1.794-1.38 1.977v.006z" fill="#873EFF"/><path d="M1129.17 518.803c-5.52-1.635-11.07-3.493-16.59-5.482-5.66-1.989-12.26.303-15.45 5.367-3.12 4.899-6.25 9.951-9.52 14.781-5.74 8.265-19.5 7.19-22.02-1.823l-18.37-63.97 18.44-5.418 18.19-6.282c12.21-3.949 24.06-8.956 36-13.717l25.4 61.511c3.63 8.625-6.45 17.97-16.08 15.038v-.005z" fill="#E1D7FF"/><path d="M1127.49 514.401c-5.5-1.64-11.01-3.515-16.51-5.515-5.63-2.001-12.19.28-15.36 5.332-3.08 4.893-6.19 9.934-9.44 14.758-5.69 8.248-19.37 7.156-21.88-1.863l1.3 4.527c2.52 9.019 16.27 10.088 22.01 1.823 3.28-4.835 6.41-9.882 9.52-14.781 3.19-5.064 9.79-7.356 15.45-5.367 5.53 1.989 11.08 3.853 16.6 5.482 9.62 2.926 19.7-6.413 16.07-15.038l-1.8-4.35c3.63 8.625-6.37 17.942-15.96 14.992z" fill="#B999FF"/><path d="M1358.5 297.224c-48.64 42.565-101.35 79.911-157.04 111.267-6.87 4.103-13.99 7.699-21.1 11.317-7.12 3.583-14.13 7.407-21.34 10.814-14.51 6.521-28.84 13.528-43.72 19.124-14.65 6.23-29.72 11.174-44.7 16.404-7.53 2.492-15.18 4.538-22.77 6.836l-11.41 3.326-11.54 2.801-.64-2.612 11.49-2.784 11.37-3.315c7.55-2.292 15.18-4.326 22.67-6.807 14.92-5.213 29.94-10.134 44.53-16.341 14.82-5.573 29.1-12.557 43.57-19.056 7.17-3.389 14.16-7.202 21.25-10.774 7.09-3.606 14.18-7.184 21.04-11.277 55.5-31.259 108.06-68.49 156.58-110.952l1.76 2.035v-.006z" fill="#D1C1FF"/><path d="M1123.96 452.198c-12.12 4.836-24.16 9.917-36.55 13.929l-18.48 6.379-18.74 5.51-2.97-10.346 18.44-5.418 18.19-6.282c12.21-3.949 24.06-8.956 36-13.717l4.1 9.951.01-.006z" fill="#B999FF"/><path d="M1124.49 448.837c-12.63 5.007-25.14 10.357-38.05 14.529-6.42 2.189-12.79 4.533-19.24 6.602l-19.5 5.738c-.94.274-1.9-.223-2.15-1.12l-1.22-4.315c-.25-.892.3-1.841 1.22-2.115l19.27-5.67c6.38-2.046 12.68-4.367 19.03-6.527 12.76-4.121 25.14-9.42 37.63-14.37.9-.36 1.92.046 2.28.898l1.73 4.132c.36.858-.09 1.846-1 2.206v.012z" fill="#E1D7FF"/><path d="M1254.14 458.142l-17.26-2.72c-5.85-.961-11.91 2.497-14.13 8.07-2.16 5.418-4.55 10.585-6.89 15.935-4.12 9.197-17.7 10.637-21.79 2.218l-29.44-59.677c23.06-11.568 45.75-24.017 67.73-37.815l35.03 56.568c4.93 7.853-3.09 19.102-13.26 17.427l.01-.006z" fill="#B999FF"/><path d="M1251.75 454.09l-17.19-2.754c-5.84-.972-11.85 2.469-14.05 8.03-2.15 5.407-4.51 10.563-6.83 15.895-4.08 9.174-17.61 10.586-21.69 2.166l2.08 4.224c4.09 8.419 17.67 6.979 21.8-2.217 2.34-5.344 4.72-10.511 6.89-15.936 2.22-5.572 8.27-9.03 14.13-8.07l17.25 2.721c10.17 1.674 18.19-9.574 13.27-17.427l-2.48-4.001c4.92 7.853-3.05 19.067-13.18 17.369zm-13.72-60.792c-22.25 13.969-45.25 26.589-68.64 38.318l-4.76-9.654c23.06-11.568 45.75-24.017 67.73-37.815l5.66 9.151h.01z" fill="#873EFF"/><path d="M1238 389.863c-23.12 14.672-47.14 27.704-71.48 39.953-.88.451-1.92.137-2.32-.698l-1.97-4.023c-.4-.835-.03-1.869.83-2.315 24.1-12.123 47.88-25.029 70.8-39.57.83-.52 1.89-.308 2.39.481l2.37 3.8c.49.789.22 1.852-.62 2.378v-.006z" fill="#B999FF"/><path d="M1367.63 379.689c-5.71.068-11.58-.126-17.37-.303-5.95-.183-11.5 4.012-12.92 9.774l-4.27 16.924c-2.51 9.859-15.93 12.871-21.2 5.235l-38.14-54.527c10.82-7.213 21.13-15.232 31.54-23.097 10.53-7.687 20.58-16.061 30.67-24.394l42.31 51.338c5.99 7.19-.65 19.01-10.62 19.044v.006z" fill="#873EFF"/><path d="M1364.7 376.002c-5.68.057-11.54-.154-17.32-.337-5.93-.195-11.46 3.984-12.86 9.733l-4.22 16.884c-2.48 9.837-15.86 12.815-21.13 5.185l2.69 3.858c5.27 7.636 18.7 4.618 21.21-5.236l4.26-16.924c1.43-5.761 6.97-9.957 12.92-9.774 5.8.178 11.67.372 17.37.303 9.97-.034 16.61-11.848 10.62-19.044l-2.99-3.635c5.99 7.19-.61 18.976-10.55 18.993v-.006zm-21.93-58.396c-10.19 8.419-20.35 16.872-30.99 24.645-10.52 7.957-20.94 16.056-31.89 23.36l-6.16-8.819c10.82-7.213 21.13-15.232 31.53-23.097 10.53-7.687 20.59-16.061 30.67-24.394l6.84 8.305z" fill="#720EEC"/><path d="M1342.3 314.211c-10.64 8.756-21.19 17.621-32.29 25.72l-16.44 12.443c-5.45 4.195-11.23 7.888-16.82 11.86-.81.56-1.9.4-2.42-.36l-2.56-3.681c-.52-.76-.3-1.835.5-2.389 5.55-3.938 11.28-7.596 16.68-11.763l16.31-12.346c11.01-8.03 21.49-16.838 32.05-25.526.76-.623 1.85-.554 2.45.16l2.86 3.447c.59.714.45 1.8-.32 2.435z" fill="#873EFF"/><path d="M1469.73 288.223c-5.64.686-11.52 1.109-17.26 1.606-5.91.491-10.92 5.287-11.64 11.157l-2.2 17.227c-1.21 10.105-14.05 14.706-20.27 7.762l-44.59-49.372c9.95-8.522 19.16-17.959 28.73-26.955 4.71-4.584 9.57-9.002 14.17-13.723l13.77-14.175 47.64 46.428c6.73 6.504 1.51 18.925-8.35 20.033v.012z" fill="#E1D7FF"/><path d="M1466.4 284.89c-5.63.674-11.5 1.086-17.22 1.572-5.9.48-10.89 5.258-11.6 11.117l-2.17 17.198c-1.18 10.088-13.99 14.649-20.2 7.71l3.15 3.493c6.22 6.939 19.06 2.343 20.27-7.762l2.2-17.227c.72-5.87 5.73-10.665 11.64-11.157 5.74-.497 11.62-.92 17.26-1.606 9.86-1.115 15.08-13.529 8.35-20.033l-3.37-3.287c6.73 6.505 1.54 18.89-8.31 19.988v-.006z" fill="#B999FF"/><path d="M1614.03 2.932c-74.21 107.866-157.88 209.398-255.53 294.293l-1.76-2.035c97.42-84.689 180.96-186.05 255.07-293.778l2.22 1.52z" fill="#D1C1FF"/><path d="M1438.14 229.266l-13.88 14.289c-4.63 4.756-9.53 9.214-14.28 13.844-9.66 9.076-18.95 18.587-29 27.195l-7.21-7.985c9.95-8.522 19.16-17.959 28.73-26.955 4.71-4.584 9.57-9.002 14.17-13.723l13.77-14.175 7.7 7.51z" fill="#B999FF"/><path d="M1437.32 225.928c-9.64 9.962-19.25 19.953-29.37 29.367-10.04 9.499-19.8 19.341-30.27 28.326-.74.658-1.85.635-2.47-.057l-2.99-3.332c-.62-.691-.53-1.783.21-2.435 10.4-8.916 20.09-18.701 30.08-28.144 10.05-9.35 19.61-19.278 29.19-29.189.69-.709 1.79-.766 2.45-.12l3.22 3.115c.67.646.64 1.749-.05 2.463v.006z" fill="#E1D7FF"/><path d="M1561.49 187.399l-17 3.144c-5.79 1.051-10.27 6.321-10.4 12.243-.14 5.744-.19 11.608-.49 17.318-.49 9.911-12.53 15.872-19.43 9.568l-49.31-44.662 13.31-14.666c4.37-4.956 8.59-10.066 12.89-15.09 8.49-10.162 17.3-20.016 25.53-30.424l51.53 42.061c3.63 2.955 4.47 7.625 3.18 11.826-1.35 4.144-4.91 7.756-9.81 8.688v-.006z" fill="#B999FF"/><path d="M1557.88 184.381l-16.97 3.115c-5.78 1.04-10.25 6.298-10.36 12.208-.14 5.733-.18 11.592-.46 17.29-.48 9.894-12.49 15.827-19.4 9.522l3.49 3.161c6.91 6.305 18.95.343 19.43-9.568.3-5.71.34-11.574.5-17.318.12-5.922 4.6-11.191 10.39-12.243l17-3.144c4.9-.931 8.45-4.544 9.81-8.687 1.29-4.201.45-8.871-3.18-11.826l-3.65-2.978c3.63 2.955 4.48 7.619 3.2 11.809-1.35 4.138-4.9 7.739-9.8 8.659zm-32.96-52.755c-8.27 10.477-17.15 20.399-25.69 30.63-4.33 5.058-8.58 10.202-12.98 15.198l-13.4 14.781-7.98-7.225 13.31-14.666c4.37-4.956 8.59-10.066 12.89-15.09 8.49-10.162 17.3-20.016 25.53-30.424l8.33 6.802-.01-.006z" fill="#873EFF"/><path d="M1523.79 128.356c-8.56 10.997-17.88 21.308-26.78 31.996-4.53 5.27-8.93 10.666-13.56 15.838l-13.99 15.421c-.67.743-1.77.835-2.46.212l-3.31-3.018c-.68-.623-.7-1.726-.03-2.464l13.91-15.335c4.61-5.144 8.99-10.516 13.5-15.758 8.85-10.637 18.12-20.89 26.65-31.836.62-.783 1.7-.937 2.42-.354l3.48 2.823c.72.583.8 1.698.17 2.481v-.006z" fill="#B999FF"/><path d="M1644.44 79.957l-16.54 4.458c-5.74 1.44-9.88 6.967-9.6 12.831l.77 17.199c.42 9.956-10.92 16.907-18.33 11.185l-52.75-40.524 23.88-31.91c8.05-10.557 15.43-21.668 23.18-32.476l54.39 38.289c7.67 5.367 4.54 18.324-5 20.948z" fill="#873EFF"/><path d="M1640.62 77.213l-16.52 4.43c-5.74 1.429-9.86 6.944-9.58 12.803l.8 17.17c.42 9.939-10.9 16.867-18.3 11.145l3.73 2.869c7.41 5.722 18.74-1.228 18.33-11.185l-.77-17.198c-.28-5.865 3.85-11.392 9.6-12.832l16.54-4.458c9.54-2.624 12.66-15.581 5-20.948l-3.85-2.71c7.66 5.368 4.56 18.302-4.98 20.909v.005zm-36.77-50.297c-7.79 10.865-15.21 22.033-23.31 32.653l-24.01 32.093-8.53-6.556 23.87-31.91c8.06-10.557 15.43-21.668 23.19-32.476l8.8 6.19-.01.006z" fill="#720EEC"/><path d="M1602.51 23.744c-8.13 11.345-15.89 22.993-24.33 34.093l-25.06 33.5c-.6.805-1.69.994-2.43.428l-3.54-2.732c-.74-.566-.85-1.674-.25-2.475l24.96-33.362c8.41-11.048 16.13-22.657 24.23-33.956.58-.818 1.66-1.052 2.42-.52l3.67 2.572c.76.531.91 1.628.32 2.451h.01z" fill="#873EFF"/></g><defs><clipPath id="clip0_152_987"><path fill="#fff" d="M0 0h1653.75v570.34H0z"/></clipPath></defs></svg>