<svg width="2572" height="1564" fill="none" xmlns="http://www.w3.org/2000/svg"><g clip-path="url(#clip0_184_2286)"><path fill="#fff" d="M0 0h2572v1564H0z"/><path fill="#fff" d="M0 0h2572v1564H0z"/><path d="M113.156 107.328l-9.284 9.284 9.284 9.284-9.284 9.284 9.284 9.283M2425.87 729.73l9.29-9.283-9.29-9.284 9.29-9.284-9.29-9.284" stroke="#9D7AF3" stroke-width="6" stroke-linecap="round" stroke-linejoin="round"/><path d="M2103.44 511.031l-9.28 9.284 9.28 9.284-9.28 9.284 9.28 9.284M289.588 682.719l9.284-9.284-9.284-9.284 9.284-9.284-9.284-9.284" stroke="#C8B9FB" stroke-width="6" stroke-linecap="round" stroke-linejoin="round"/><path d="M542.216 1334.94l9.284-9.29-9.284-9.28 9.284-9.28-9.284-9.29" stroke="#DFD6FA" stroke-width="6" stroke-linecap="round" stroke-linejoin="round"/><path d="M128.44 1048.51l-9.284 9.28 9.284 9.29-9.284 9.28 9.284 9.28" stroke="#9D7AF3" stroke-width="6" stroke-linecap="round" stroke-linejoin="round"/><path d="M2042.23 1133.6l-9.28 9.28 9.28 9.29-9.28 9.28 9.28 9.28" stroke="#DFD6FA" stroke-width="6" stroke-linecap="round" stroke-linejoin="round"/><path d="M1608.16 1425.39l-9.29 9.28 9.29 9.29-9.29 9.28 9.29 9.29" stroke="#C8B9FB" stroke-width="6" stroke-linecap="round" stroke-linejoin="round"/><path d="M1529.44 215.328l-9.28 9.284 9.28 9.284-9.28 9.284 9.28 9.283" stroke="#DFD6FA" stroke-width="6" stroke-linecap="round" stroke-linejoin="round"/><path d="M777.39 394.746l-9.284 9.284 9.284 9.284-9.284 9.284 9.284 9.283M1978.87 88.762l-9.28 9.284 9.28 9.283-9.28 9.284 9.28 9.284" stroke="#9D7AF3" stroke-width="6" stroke-linecap="round" stroke-linejoin="round"/><circle cx="607.5" cy="909.453" r="10" stroke="#C8B9FB" stroke-width="6" stroke-linecap="round" stroke-linejoin="round"/><circle cx="299.588" cy="1443.96" r="10" stroke="#DFD6FA" stroke-width="6" stroke-linecap="round" stroke-linejoin="round"/><circle cx="852.5" cy="1282.37" r="10" stroke="#9D7AF3" stroke-width="6" stroke-linecap="round" stroke-linejoin="round"/><circle cx="842.5" cy="699.391" r="10" stroke="#C8B9FB" stroke-width="6" stroke-linecap="round" stroke-linejoin="round"/><circle cx="1728.5" cy="510.445" r="10" stroke="#9D7AF3" stroke-width="6" stroke-linecap="round" stroke-linejoin="round"/><circle cx="1842.5" cy="856.395" r="10" stroke="#C8B9FB" stroke-width="6" stroke-linecap="round" stroke-linejoin="round"/><circle cx="482.5" cy="268.465" r="10" stroke="#9D7AF3" stroke-width="6" stroke-linecap="round" stroke-linejoin="round"/><circle cx="944.5" cy="117.328" r="10" stroke="#C8B9FB" stroke-width="6" stroke-linecap="round" stroke-linejoin="round"/><circle cx="2166.5" cy="919.453" r="10" stroke="#9D7AF3" stroke-width="6" stroke-linecap="round" stroke-linejoin="round"/><circle cx="2473.71" cy="242.465" r="10" stroke="#C8B9FB" stroke-width="6" stroke-linecap="round" stroke-linejoin="round"/><circle cx="1914.5" cy="1344.94" r="10" stroke="#DFD6FA" stroke-width="6" stroke-linecap="round" stroke-linejoin="round"/><circle cx="2373.71" cy="1334.94" r="10" stroke="#9D7AF3" stroke-width="6" stroke-linecap="round" stroke-linejoin="round"/><path fill="#DFD6FA" d="M536.216 696.391h6v6h-6zM354 1036.51h6v6h-6zm-48.128-854.448h6v6h-6z"/><path fill="#C8B9FB" d="M1958.95 706.391h6v6h-6zm-252 543.999h6v6h-6zm102-1035.062h6v6h-6zm-360.82 282.117h6v6h-6zm-377.18-218.98h6v6h-6zm1226-177.137h6v6h-6zm122.92 941.182h6v6h-6zm-230.37 456h6v6h-6zm-1188 20h6v6h-6zM113.156 508.031h6v6h-6z"/></g><defs><clipPath id="clip0_184_2286"><path fill="#fff" d="M0 0h2572v1564H0z"/></clipPath></defs></svg>