<svg width="100" height="100" fill="none" xmlns="http://www.w3.org/2000/svg"><path d="M39.925 3.77a6.186 6.186 0 017.383 5.097l13.626 87.015-3.188.67-22.53-85.145a6.186 6.186 0 014.709-7.637z" fill="#D1C1FF"/><path d="M61.842 95.787a.912.912 0 01-.72.988l-3.188.67a.912.912 0 01-1.07-.66l-22.53-85.144a7.099 7.099 0 015.404-8.763 7.098 7.098 0 018.472 5.849l13.626 87.015.006.044zM46.408 9.008a5.274 5.274 0 10-10.31 2.166L58.406 95.48l1.493-.313-13.492-86.16z" fill="#2C045D"/><path d="M51.07 71.327l6.677 25.225 3.188-.67-4.036-25.779-5.828 1.224z" fill="#2C045D"/><path d="M61.842 95.787a.912.912 0 01-.72.988l-3.188.67a.912.912 0 01-1.07-.66L50.19 71.562a.912.912 0 01.694-1.126l5.828-1.224a.913.913 0 011.089.752l4.036 25.779.006.045zm-5.695-24.594l-3.949.83 6.209 23.459 1.493-.314-3.753-23.975z" fill="#2C045D"/><path d="M35.215 11.407l22.531 85.145 1.19-.25-22.113-83.568a6.186 6.186 0 019.063-6.946 6.176 6.176 0 00-5.96-2.017 6.186 6.186 0 00-4.708 7.637l-.003-.001z" fill="#2C045D"/><path d="M59.713 96.78a.912.912 0 01-.59.414l-1.19.25a.912.912 0 01-1.069-.659l-22.53-85.144a7.098 7.098 0 015.406-8.762 7.087 7.087 0 016.837 2.314l.05.065a.912.912 0 01-1.195 1.321 5.274 5.274 0 00-7.727 5.921l22.113 83.57.01.045a.912.912 0 01-.115.667zM39.685 4.774a5.28 5.28 0 00-3.737 4.535 7.114 7.114 0 013.737-4.535z" fill="#2C045D"/></svg>