<svg id="Layer_2" data-name="Layer 2" xmlns="http://www.w3.org/2000/svg" viewBox="0 0 789.58 979.2"><defs><style>.cls-1{fill:#c8b9fb}.cls-3{fill:#efe9fc}.cls-4{fill:#ede7f9}.cls-5{fill:#dfd6fa}.cls-7{fill:#2e0b5e}.cls-8{fill:#9d7af3}</style></defs><g id="Layer_1-2" data-name="Layer 1"><path class="cls-7" d="M756.38 428.72c2.81-18.34-9.77-34.89-28.51-38.76-30.65-6.33-61.31 12.1-73.69 41.49-14.44-2.26-28.36-2.97-43.4-.12l-185.14 35.04c-8.94 1.27-17.03-.13-23.63-6.04l-15.57-39.78c9.72-5.09 14.33-15.5 9.43-25.53l-17.83-36.44c-8.92-18.22-16.43-36.24-22.37-56.16 10.87-11.75 6.08-26.74.73-42.62-2.18-6.46-7.11-10.96-13.95-12.83l-9.18-46c-4.33-21.73-16.42-40.18-34.08-53.12-6.8-38.03-17.81-73.83-35.42-107.52C252.8 19.34 237.2-4.2 213.23.63c-22.33 4.49-30.79 28.47-28.91 49.59l4.28 48.21c-15.85-25.95-40.31-62.66-65.94-74.13-17.95-8.02-39.76.01-45.12 19.08-3.15 11.2-1 22.58 2.55 33.64 8.97 27.91 20.03 54.25 31.25 82.41-16.67 13.42-30.14 29.2-40.51 48.07L9.67 318.78c-10.92 20.94-12.73 44.54-4.58 66.49 10.43 28.1 37.56 45.11 67.18 39.68l58.49-10.72-9.81 56.21c-1.53 8.78 3.29 16.56 11.57 19.29-6.44 23.37-13.04 45.97-16.62 69.58-1.5 9.9 4.27 18.15 14.12 20.57-4.33 25.75-7.68 50.82-8.27 76.63-.24 10.38 5.68 18.61 15.86 20.62-.25 27.09 1.24 53.46 4.95 80.33 1.56 11.29 9.88 18.23 21.12 19.36l16.37 74.24c2.11 9.56 10.56 15.2 19.71 15.87l12.37.91 29.62 87.33c5.75 16.95 22.34 26.63 39.58 23.38l30.5-5.75c6.35-1.2 11.63-3.89 17.03-7.68 7.76 7.5 18.33 10.91 29.03 8.87l33.41-6.39c16.57-3.17 28.16-17.82 27.41-34.99l-4.16-95.15 3.56-5.28c8.19 9.33 35.37 2.24 50.37-2.01 5.41-1.53 9.03-5.2 11.85-10.48 4.16 4 9.16 5.82 14.84 5.34 12.18-1.02 24.24-3.28 35.88-6.93 4.99-1.57 8.43-5.4 10.76-9.55 3.31 2.63 6.47 3.73 10.16 4.94l27.15 79.65c5.3 15.55 21.35 24.53 37.19 21.58l32.5-6.04c5.24-.97 9.71-3.09 14.44-6.05 7.72 6.42 17.43 10.06 27.7 8.04l35.12-6.88c17.08-4.76 26.67-19.86 25.85-37.1l-4.52-95.33c13.23-2.89 21.7-12.5 20.24-25.43l-7.36-64.99c12.5-4.52 16.98-15.13 13.4-27.13L761.3 612.3c7.17-4.77 11.69-12.75 8.63-20.95l-13.26-35.48c12.67-.19 22.95-7.13 27.55-18.71 5.46-13.73 2.44-28.38-6.25-41.11 7.68-5.7 11.42-13.51 11.65-22.58.53-20.86-12.16-39.2-33.19-44.77z"/><path class="cls-1" d="M604.39 769.28c-.55-2.05-2.5-2.8-3.65-2.66-1.88.23-2.69 1.99-2.51 4.12l1.4 16.29c.41 4.73-1.8 9.42-6.77 10.95-12.01 3.68-24.28 6.2-36.82 7.17-5.48.42-9.96-2.62-11.41-7.67l-4.49-15.72c-.5-1.74-1.72-3.04-3.27-3.01s-3.25 1.53-3.1 3.56l1.31 17.13c.41 5.38-2.55 9.74-7.87 11.28-10.87 3.15-21.85 5.46-33.1 6.05-5.7.29-9.83-3.74-11.37-8.76l-4.7-15.31c-.45-1.47-1.98-2.23-3.06-2.18-1.29.06-2.81 1.4-2.69 3.26l1.01 16.72c.34 5.57-2.38 10.24-7.97 11.95-13.71 4.19-41 10.78-44.05.85l-5.66-18.45c-.44-1.43-1.74-1.82-2.5-2.08-1.29-.43-3.6.45-3.48 2.14l1.28 18.64c.32 4.68-2.19 8.75-6.8 10.29-10.54 3.52-21.42 5.39-32.54 6-4.04.22-7.97-2.29-9-6.04l-4.93-17.99c-.45-1.66-2.39-2.43-3.51-2.31-1.82.2-2.94 1.94-2.75 4.04l1.52 17.03c.43 4.87-2.48 9.3-7.43 10.64-13.19 3.58-26.47 6.13-40.09 6.63-4.47.16-8.43-2.37-9.53-6.49l-5.05-19.08c-.39-1.47-1.82-2.25-2.89-2.21-1.16.03-2.95 1.36-2.86 3.07l.92 18.35c.22 4.38-2.49 8.19-7.02 9.24-11.81 2.73-23.88 3.75-35.97 3.19-4.55-.21-8.13-3.44-9.04-7.75l-3.93-18.62c-.38-1.8-1.82-2.51-3.11-2.46-1.6.06-3.25 1.21-3.16 3.26l.76 17.58c.44 10.2-12.42 9.89-24.61 8.4-5.46-.67-10.33-4.06-11.58-9.86l-15.11-70.3c10.98 1.02 20.85 1.56 28.68-5.53 3.01 3.77 6.79 6.61 11.99 7.16 14.69 1.55 45.65 1.68 52.62-9.75 9.4 10.5 37.86 4.81 53.59.47 5.48-1.51 9.6-4.72 12.13-9.47 8.81 9.47 36.42 2.41 51.3-2.07 5.13-1.54 8.87-4.9 12.03-9.29 4.86 3.2 10.04 4.58 15.7 4.03 13.56-1.31 26.8-3.69 39.75-7.83 5.05-1.61 8.69-4.99 10.9-9.47 4.39 4.09 9.51 5.19 15.18 4.72 13.87-1.15 27.43-3.86 40.76-7.9 4.93-1.49 8.17-5.08 11.12-9.21 4.19 3.56 8.82 4.92 13.95 4.55 13.69-1 26.92-3.86 40.19-7.5 5.53-1.52 9.68-4.95 12.63-9.8 4.87 3.79 10.07 5.06 15.77 4.47 13.36-1.39 26.35-3.76 39.18-7.63 5.34-1.61 9.19-5.16 11.54-9.8 4 3.61 8.38 5.18 13.42 4.89 15.23-.88 41.94-5.02 46.38-17.17 4.25 2.65 8.57 3.96 13.15 2.79l16.64-4.25 7.13 64.47c1.08 9.8-12.24 15.4-23.3 17.19-3.82.62-6.86-1.7-7.92-5.2l-5.26-17.31c-.41-1.36-2.32-1.75-3.23-1.65-1.35.14-2.78 1.39-2.56 3.25l2.09 17.59c.62 5.23-1.93 9.97-7.05 11.72-14.62 5.01-34.23 10.44-37.69-1.19l-5.21-17.53c-.46-1.56-2.83-1.66-3.94-1.06-1.18.63-1.8 1.76-1.62 3.68l1.54 16.49c.5 5.3-2.68 9.53-7.95 11-11.88 3.29-23.83 5.61-36.1 6.95-6.18.68-10.83-3.09-12.38-8.84l-3.99-14.81z"/><path d="M625.52 603.02c.87 5.42-2.92 9.35-7.62 10.24l-144.14 27.37c-5.28 1-9.66-2.21-10.64-7.34l-26.31-137.18-6.7-21.81 147.97-28.05c5.87 2.41 8.79 7.46 11.46 12.96 17.14 35.24 29.23 101.71 35.97 143.81z" fill="#e0d7fb"/><path class="cls-8" d="M245.99 455.3l-7.77-23.12c-.65-1.93-2.23-2.59-3.73-2.41s-3.23 1.48-2.84 3.45l4.86 24.46c1.08 5.44-1.81 10.08-6.85 11.94-12.85 4.76-25.95 7.6-39.61 8.53-4.94.34-9.29-2.61-9.9-7.69l-2.64-21.92c-.23-1.87-.94-3.16-2.35-3.52s-4.04.6-4.08 2.53l-.46 22.63c-.28 13.87-18.55 13.48-33.76 11.82-4.94-.8-8.2-5.34-7.26-10.37l8.04-42.79c34.88-2.23 65.56-13.69 74.82-47.72 48.28-19.81 94.19-41.83 135.78-72.41 10.16 31.21 24.26 58.9 38.7 87.25 2.31 4.53 3.47 9.9-.31 13.6-7.76 7.6-25.54 14.66-29.88 5.59l-10.94-22.86c-.98-2.05-3.02-2.61-4.53-1.95-1.93.83-2.48 2.8-1.69 4.97l8.37 22.92c1.69 4.63-.36 9.23-4.6 11.61-8.7 4.88-17.95 8.66-27.74 10.82-5.05 1.11-9.12-1.1-11.02-5.6L294.85 412c-.71-1.69-2.79-2.18-3.83-1.85-1.57.5-2.71 2.06-2.14 3.99l6.79 23.13c1.66 5.66.23 11.13-5.38 13.74-10.39 4.83-21.46 8.16-32.92 10.24-4.72.86-9.69-1.01-11.35-5.96z"/><path class="cls-5" d="M142.82 402.91L72.5 416.2c-25.08 4.74-48.68-8.3-58.31-31.89-13.11-32.11-.86-56.45 15.68-84.23 11.91-7.53 25.83-8.83 39.55-5.53 35.63 8.58 60.59 44.29 72.39 78-2.27 16.88 13.35 28.02 1.01 30.35zm539.89 112.22c-.82-1.86-2.87-2.15-3.82-1.92-1.74.42-2.57 2.18-2.06 4.27l4.08 16.65c2.91 11.87-18.88 15.03-33.6 14.52-5.95-29.85-12.75-58.42-22.99-86.61-2.92-8.03-5.9-15-11.22-22.4 56.87-9.61 95.72 24.06 117.25 73.86 1.89 4.38-.52 9.41-4.14 11.68-12.23 7.7-31.74 16.72-36.7 5.43l-6.8-15.49z"/><path class="cls-1" d="M708.78 613.91c1 4.45-.66 9.21-4.95 10.82-11.8 4.45-25.07 8.5-37.61 7.09-7.62-.86-6.78-9.31-7.67-14.84l-9.57-59.66c14.82-.25 34.76-2.87 39.76-15.3 11.99 7.15 33.31-3.84 45.78-12.09L760.86 591c2.46 5.7.36 11.35-4.73 14.54-11.71 7.34-33.58 16.92-38.04 6.19L710.72 594c-.73-1.75-3.03-2.2-4.26-1.53-1.42.77-1.96 2.33-1.52 4.28l3.84 17.16z"/><path class="cls-8" d="M762.51 490.22c9.73 11.76 9.67 28.96-.72 34.14-7.84 3.91-24.39-3.95-22.6-12.67-16.2-36.24-37.71-64.89-76.34-77.63 9.48-23.03 31.8-37.55 55.96-36.9 12 .32 22.62 7.04 27.52 17.48 3.26 6.94 2.05 13.07-2.36 20.28 23.88 1.53 40.41 20.56 36.32 43.19-1.58 8.74-8.16 12.31-17.76 12.11zM633.94 799.53l25.74-5.8c5.02-1.13 8.92-4.1 11.58-9.31 4.1 2.9 7.93 4.59 12.88 4.26 14.12-.91 38.17-4.91 42.19-16.56 3.98 2.67 7.6 2.92 12.33 2.3l3.29 69.27c-29.45 9.09-58.55 14.48-88.55 16.84l-19.45-61zM408.88 906.74c-28.66 9.52-58.31 14.5-88.86 17.29l-20.68-64.29c17.09.99 33.46-2.41 49.63-7.12 4.68-1.37 7.9-4.51 10.64-8.68 4.64 3.11 9.4 4.7 14.76 4.04 10.57-.5 20.33-2.97 31.4-5.71l3.11 64.47z"/><path class="cls-1" d="M212.22 371.91c-1.59-9.8-6.2-17.55-13.15-23.84 31.31-13.2 60.95-27.34 90.04-44.18 16.74-10.35 32.96-19.91 47.81-32.46 4.36-3.68 6.91-7.63 9.07-13.39 4.85 9.38 7.29 19.06 7.66 28.83.45 11.84-30.49 28.28-43.77 37.22-31.12 18.64-63.06 33.89-97.67 47.82z"/><path class="cls-8" d="M289.28 859.04l19.25 58.84c-21.6 5.92-43.37 9.55-66.5 11.32L221.1 866c3.68-1.02 6.2-2.35 8.59-5.35 4.39 3.71 9.07 5.91 14.8 6 13.32.19 33.68-.65 44.8-7.61z"/><path class="cls-5" d="M395.01 465.97l-11.12-26.95-5.46-14.79c-7.21 2.88-14.49 5.34-22.06 2.05-1.88 4.96-4.56 8.67-9.13 11.12-12.44 6.66-32.45 15.72-42.69 9.24-2.2 5.8-5.82 9.79-11.29 12.23-14.21 6.34-38.89 15.6-48.94 7.38-5.01 14.43-36.63 19.12-53.32 20.17-5.55.35-10.48-1.3-14.72-5.24-8 10.24-20.93 10.32-34.48 10.1l-4.38 14.35c-5.52 18.05-9.8 36.13-13.03 54.89-2.07 12.03 14.56 14.01 28.06 13.18 4.89-.3 8.58-3.75 9.24-8.49l2.58-18.75c.25-1.82 1.82-2.93 3.16-2.95 1.47-.02 3.11 1.17 3.15 3.09l.49 20.24c.12 5.12 4.29 8.21 9.32 8.6 13.12 1.01 26.34-.2 39.23-2.96 5.85-1.25 9.29-5.74 9.03-11.47l-.85-19.12c-.08-1.83 1.72-3.01 3.02-3.05 1.36-.04 2.91.91 3.3 2.8l3.87 18.66c1.03 4.96 5.2 8.24 10.55 7.91 13.19-.8 26.15-3.62 38.7-7.94 5.3-1.83 8.64-6.64 7.68-12.03l-3.51-19.55c-.38-2.1.21-3.72 1.88-4.31 1.77-.62 3.77.08 4.57 2.32l7.11 20.02c3.84 10.82 33.53-1.37 46.78-8.5 4.82-2.59 6.83-7.56 5.21-12.67l-6.18-19.51c-.57-1.81.33-3.39 1.56-3.98 1.37-.66 3.35-.19 4.19 1.47l9.51 18.69c4.85 9.53 29.33-3.64 39.3-13.99-1.19-14.5-4.78-28.79-10.34-42.25z"/><path class="cls-8" d="M578.52 865.31l-17.16-52.28 31.1-6.23c6.28-1.46 10.89-5.1 13.98-10.17 5.13 4.69 11.32 5.11 18.38 4.15l17.44 53.88c-20.73 5.42-41.25 8.8-63.74 10.66zM323.67 199.02c-6.24-23.03-20.99-41.5-41.93-51.17-7.02-34.23-16.62-66.79-32.47-97.25-6.87-13.2-14.09-25.37-24.9-35.03-4.17-3.09-8.91-5.44-13.59-4.61-12.31 2.17-17.74 20.16-17.63 34.47.22 27.05 4.29 53.7 10.71 79.28l1.06 9.24-38.87 8.02c-36.14 9.25-66.14 32.1-84.23 64.45l-31.5 56.33c52.15-8.48 95.03 32.94 116.43 79.26 7.93-1.68 15.39-1.88 23.23.88 47.85-20.44 93.29-41.98 134.88-72.74 4.34-3.21 7.97-6.23 11.08-10.69l-12.27-60.42z"/><path class="cls-5" d="M204.92 133.93l-1.06-9.24-3.57-52.55c-.87-12.76-.32-32.31 9.59-34.44 17.08-3.66 36.28 74.1 40.39 96.74.47 2.59-.71 6.5-4.08 6.38-14.16-.5-28.72-1.87-41.26-6.89z"/><path class="cls-8" d="M131.32 55.46c-9.21-10.59-25.81-26.1-36.57-21.35-12.36 5.46-11.19 24.9-6.58 39.55 8.67 27.59 19.69 53.71 30.5 80.57l2.74-1.99c12.34-7.19 24.79-14.34 38.73-17.55l18.35-4.22c-12.38-27.09-27.63-52.55-47.17-75.03z"/><path class="cls-5" d="M160.14 134.71c-13.95 3.2-26.39 10.36-38.73 17.55-.51 0-1.01-.02-1.46-.18-1.83-.63-12.88-31.55-14.42-35.88-3.68-10.07-7.29-20.24-9.54-30.73-1.54-7.16-3.93-21.35 2.62-26.47 4.54-3.55 9.1-2.49 13.62.39 16.67 10.6 41.35 54.43 49.21 73.37l-1.3 1.95zm197.05 830.75c-12.31 2.3-23.99-4.46-28.72-16.01l-5.51-17.12c29.86-2.71 57.8-7.7 86.12-16.52l.73 16.67c.59 13.47-8.82 24.8-22.06 27.27l-30.55 5.71zm-77.97 4.52c-12.31 2.3-23.99-4.46-28.72-16.01l-5.51-17.12c29.86-2.71 36.73-3.8 65.89-11.19l4.65 18.26c-.22 2.39 7.48 17.87-5.76 20.35l-30.55 5.71zm335.76-64.5c-12.31 2.3-23.99-4.46-28.72-16.01l-5.51-17.12c29.86-2.71 34.62-3.4 63.78-10.79l5.54 19.44c-.22 2.39 6.62 15.37-4.55 18.77l-30.55 5.71zm75.68-3.43c-12.33 2.32-23.25-4.04-28.19-14.92l-6-18.16c29.34-2.4 57.32-7.89 85.62-16.44l.84 17.51c.63 13.18-9.17 23.91-22.2 26.36l-30.07 5.66z"/><path class="cls-1" d="M145.64 359.13c-17.9-43.68-58.63-85.11-108.21-71.96 5.86-16.81 13.52-18.16 31.43-17.03 40.89 2.58 73.61 39.62 90.12 75.38-6.02 3.57-9.45 7.87-13.33 13.61z"/><circle class="cls-1" cx="176.88" cy="375.87" r="26.73"/><path class="cls-1" d="M407.84 517.79c-12.15 9.43-28.56 19.2-42.19 15.05-1.85 14.18-31.15 22.74-46.96 26.31-5.57 1.26-10.73.17-15.95-2.54-2.62 5.45-6.62 9.45-12.36 11.43-16.01 5.52-46.23 13.68-55.48 3.07-6.54 13.07-39.11 13.91-55.31 12.69-5.93-.44-10.63-3.41-13.8-7.74-7.3 6.73-16.59 7.11-26.78 5.44-4.84 24.79-7.48 49.4-8.61 74.59-.17 3.89 1.03 9.06 4.55 10.88 9.97 5.17 31.01 8.12 32.43-3.83l2.16-18.21c.23-1.96 1.94-2.94 3.46-2.97 2.04-.03 3.1 1.82 3.14 4.18l.29 18.42c.08 5.44 3.98 9.84 9.59 10.6 14.42 1.96 29.06 1.55 43.53-.99 5.9-1.04 9.87-5.3 9.75-11.06l-.39-18.14c-.05-2.35 1.12-3.9 3.14-4.12 2.02-.22 3.46 1.02 3.88 3.42l3.53 20.32c1.03 5.92 7.53 7.46 12.74 6.92s2.06-.21 2.06-.21c1.22.75 1.91.68 2.07-.23s6.03-.42 6.03-.42l20.48-3.75c6.17-1.13 14.72-2.81 16.31-9.83 2.19-9.71-4.5-24.92-.76-27.53 1.44-1.01 4.33-1.08 5 1.2l5.67 19.11c1.54 5.18 6.13 8.24 11.76 7.42 13.92-2.02 27.37-6.12 40.26-11.85 5.24-2.33 8.2-7.4 6.73-13l-5.34-20.41c-.53-2.01.43-3.52 1.98-4.11 1.7-.65 3.49.04 4.43 2.15l8.82 19.86c3.89 8.76 25.74-2.43 37.05-8.78 2.24-1.26 2.1-4.46 1.58-7.17l-18.49-96.16z"/><path class="cls-8" d="M610.44 451.34c-3.81-8.2-11.31-11.55-20.28-6.88 6.96 8.49 11.35 18.76 15.13 30.43 13.72 42.32 22.48 85.59 28.81 129.56 1.1 7.67-5.2 15.11-12.4 16.48l-147.59 28.05c-8.94 1.7-17.31-3.83-19.01-12.66L428.64 498.7c-1.66-8.61-3.97-16.19-8.25-23.38-4.43-.02-7.95-.22-12.53-1.7l2.71 12.35c.05.11.09.23.11.36l.21 1.09.36 1.63s-.03.02-.04.02l1.13 5.95 23.21 122.16c.07.14.14.29.17.47l3.79 19.94 4.15 19.02c3.5 8.45 12.48 12.99 22.06 11.17l167.7-31.77c5.17-.98 10.15-3.6 12.97-7.16 3.41-4.3 4.5-10.1 3.6-15.7-7.83-48.53-19.92-119.5-39.56-161.82z"/><circle cx="200.78" cy="261" r="48.08" fill="#330e64"/><path class="cls-3" d="M141.81 183.59c13.33 13.21-26.57 66.07-41.41 58.45-10.36-5.32 3.06-42.14 31.74-58.64 3.1-1.78 7.58-1.89 9.68.19z"/><path class="cls-8" d="M473.03 518.66l27.98 18.06 20.53-27.22c2.07-2.92 5.5-3.86 8.56-1.95l29.05 18.13 20.23-27.48c1.52-2.06 3.36-2.8 5.4-2.27 2.14.56 4.02 4.1 2.49 6.24l-21.52 30.04c-1.79 2.5-5.3 4.78-8.23 2.93l-30-18.91-19.42 26.65c-2.57 3.53-6.53 5.18-10.24 2.22l-31.13-19.95c-1.95-1.25-1.5-4.84-.2-6.32 1.43-1.62 3.9-1.85 6.5-.17zm8.15 46.25l29.07 18.5 20.35-27.35c1.9-2.82 5.28-3.63 8.12-1.85l29.41 18.4 19.36-27.04c1.72-2.4 4.41-3.86 6.86-2.44s2.92 4.7 1.12 7.16l-21.08 28.88c-1.95 3.07-5.64 4.33-8.78 2.34l-29.24-18.54-20.74 28.36c-2.09 2.85-6.58 2.46-9.13.5l-29.61-19.02c-2.27-1.46-3.28-3.6-2.52-5.63 1.01-2.69 3.98-4.07 6.81-2.27zM63.33 345.29c-3.59 13.76-19.54 23.32-24.73 18.96-6.08-5.1 2.12-22.58 15.82-27.13 2.6-.86 5.5-.07 6.94 1.27 1.65 1.55 2.67 4.25 1.98 6.89z"/><path class="cls-5" d="M765.85 659.39l-8.03-28.98-4.56-13.63c-12.33 5.76-25.26 11.6-36.71 5.8-2.51 5.42-6.51 9.12-11.94 11.03-14.77 5.18-37.24 11.1-47.49 2.83-.37-.15-.69-.26-.92-.29-.06-.27-.25-.56-.61-.89l-.8-1.55c-6.09 5.73-12.75 9.38-21.74 11.06l-168.01 31.36c-12.55 2.34-23.61-5.18-28.36-14.78-2.69-5.45-4.24-10.95-4.79-16.81l-.12-1.31-.22-1.97c-.21-1.91-.35-3.79-.9-5.65l-2.12-7.17c-13.1 7.83-29.29 16.71-42.2 11.26-1.86 6.11-5.56 10.24-10.96 12.77-15.69 7.36-46.74 19.04-58.52 9.04-4.58 9.59-14.13 11.87-23.16 13.9-15.44 3.46-39.35 8.78-48.79-1.89-7.59 13.33-43.2 12.29-59.55 9.94-6.12-.88-11.08-3.86-14.41-8.81-7 5.8-15.37 5.73-24.37 4.26l-.17 14.73c-.25 21.65 1.99 43.26 5.44 65.17.65 4.14 4.4 7.52 8.04 8.52 13.25 3.64 36.88 6.31 37.2-5.24l.48-17.64c.05-1.65 1.22-3.26 2.45-3.48 1.71-.3 3.61.82 3.9 2.89l2.64 18.85c.76 5.42 5.01 8.72 10.35 9.07 11.99.78 23.97.16 35.86-2.15 5.3-1.03 8.34-5.26 8.11-10.35l-.82-17.74c-.1-2.09 2.01-3.02 3.55-2.97 1.74.06 2.9 1.27 3.31 3.45l3.16 16.76c.98 5.2 4.97 8.77 10.45 8.78 12.86.03 25.47-1.96 37.99-5.47 4.31-1.21 7.5-4.76 7.12-9.22l-1.61-19.03c-.16-1.87.93-3.28 2.35-3.74 1.46-.47 3.73.24 4.26 2.26l4.71 18.24c1.05 4.08 4.88 6.93 9.42 6.77 12.69-.45 25.18-3.08 37.33-7 4.9-1.58 7.07-6.31 6.49-11.13l-2.04-16.85c-.27-2.21.88-3.73 2.69-4.13 1.72-.38 3.33.75 3.92 2.9l4.38 15.9c1.41 5.1 5.2 8.75 10.92 8.36 13.4-.92 26.6-3.5 39.48-7.46 5.25-1.61 7.97-6.08 7.39-11.43l-1.93-17.68c-.2-1.83 1.36-2.8 2.57-3.08 1.34-.32 3.17.04 3.66 1.84l4.64 17.29c1.2 4.49 4.86 8.18 10.05 7.9 13.74-.74 27.31-3.54 40.59-7.46 5.28-1.56 7.79-6.31 7.23-11.48l-1.9-17.7c-.18-1.63 1.42-3.06 2.51-3.27 1.24-.25 3.29.43 3.73 2.05l4.91 18.08c1.25 4.61 5.54 7.61 10.5 7.21 13.57-1.1 26.7-3.69 39.69-7.64 4.78-1.45 7.91-5.69 7.38-10.49l-1.99-17.77c-.25-2.21.98-3.74 2.71-4.13 1.74-.39 3.41.74 3.98 2.87l4.33 16.11c1.32 4.92 5.18 8.68 10.76 8.24 13.44-1.04 26.7-3.65 39.58-7.59 4.91-1.5 7.63-6 7.13-10.72l-1.86-17.44c-.2-1.88.53-3.38 2-4 1.37-.59 3.67.14 4.23 2.14l5.07 17.98c1.21 4.28 5.17 7.12 9.81 6.93 11.6-.47 22.93-2.96 33.93-6.82 4.48-1.57 6.93-6.02 6.24-10.54l-2.61-17c-.31-2.05.41-3.68 2.06-4.2 1.44-.45 3.39.14 4.03 2.11l5.57 16.95c3.44 10.46 24.4 2.8 36.31-3.54 4.62-2.46 7.06-7.03 5.62-12.24z"/><circle class="cls-3" cx="177.09" cy="376.21" r="13.33"/><circle class="cls-4" cx="200.78" cy="261.05" r="39.54"/><circle class="cls-7" cx="200.75" cy="261.18" r="22.11"/><path class="cls-4" d="M188.1 250.79c3.08-2.71 7.5-2.2 9.67 1.21 1.63 2.57 1.45 6.49-2.11 8.96-2.15 1.49-6.08 2.1-8.95-1.02-1.88-2.04-1.92-6.23 1.39-9.15z"/></g></svg>