<svg id="Layer_2" data-name="Layer 2" xmlns="http://www.w3.org/2000/svg" viewBox="0 0 1021.93 823.67"><defs><style>.cls-1{fill:#c8b9fb}.cls-2{fill:#efe9fc}.cls-3{fill:#dfd6fa}.cls-4{fill:#2e0b5e}.cls-5{fill:#b79ffa}.cls-6{fill:#9d7af3}</style></defs><g id="Layer_1-2" data-name="Layer 1"><path class="cls-4" d="M259.25 80.67c-.11-.07-.22-.15-.33-.22.06.11.19.17.33.22zM971.4 329.14c-.06-.08-.12-.15-.19-.23.02.09.09.17.19.23zM532.49 823.67c.11-.08.21-.18.3-.31-.14.02-.22.15-.3.31zM790.16 37.35c.13-.02.24-.17.33-.35-.11.1-.22.22-.33.35z"/><path class="cls-4" d="M983.71 84.49c-1.84-15.36-5.54-30.95-10.86-45.5-1.01-.27-1.52-1.03-1.6-1.93C943.94-.83 892.3 22.99 854.69 26.82c-37.97 5.86-78.45 13.62-115.7 19.28-4.36.63-264.21 44.8-274.72 46.44-19.56 3.85-42.45 7.78-61.15 10.5-22.84 3.84-46.5 8.83-69.36 11.47-15.82 3.21-31.77 5.94-45.99 13.76-.2 2.66-1.53-.93-1.56-1.73-7.79-13.55-15.81-26.99-23.96-40.33.04-.16.08-.33.08-.49-.08.14-.14.28-.14.41-3.6-5.89-7.22-11.76-10.87-17.6-.65-1.04-1.3-2.09-1.96-3.13-1.94-3.11-3.89-6.22-5.83-9.33-.89-1.42-1.8-2.91-1.97-4.58-.24-2.46 1.13-4.72 1.03-7.15-.09-2.14-1.22-4.54-1.93-6.55-1.48-4.21-3.32-8.3-5.53-12.17-4.23-7.39-9.89-14.08-17.04-18.79-10.27-6.78-22.68-8.33-34.54-5.45L36.03 36.35C-23.93 48.76-3.49 145.87 56.5 131.34l99.95-23.27c8.36 12.6 16.15 63.83 37.91 61.3 8.63 12.15 24.69 89.55 46.87 85.67 8.49 13.08 26.68 93.88 49.32 88.41.27-.06 5.12 12.7 5.6 13.84 2.12 5.13 4.15 10.3 6.23 15.45.32.78.63 1.57.95 2.35.42 1.05.84 2.09 1.26 3.14 4.38 10.88 8.63 21.82 13.23 32.62 2.83 6.64 5.67 13.8 12.37 17.47 1.53.84 3.2 1.43 4.91 1.75.86-.26 3.49-.6 3.85.27 1.15 2.83 9.07 22.38 9.98 24.64 3.49 9.14 9.01 23.05 12.58 32.01 4.42 10.14 8.2 28.15 22.41 28.14 5.94 14.89 13.48 33.19 26.3 43.83-.86 2.89-3.91 21.87-5.2 24.1-2.58 17.26-3.91 34.77-3.15 52.22.78 17.95 3.91 35.9 6.15 53.72 1.1 8.75 2.32 17.48 3.41 26.24l.66 5.33c1.17 9.8 9.68 14.56 18.08 15.92 11.83-.54 28.29-2.78 38.66-8.74-.68.39-1.18 3.68-1.39 4.46-.43 1.55-.8 3.12-1.12 4.69-.63 3.12-1.04 6.29-1.24 9.47-.39 6.29.06 12.63 1.29 18.8 2.44 12.24 7.92 23.88 15.88 33.5 8.17 9.86 19.01 17.6 31.26 21.46a65.397 65.397 0 0026.48 2.68c3.96-.42 7.87-1.2 11.78-1.99 6.16-1.25 12.26-2.63 18.14-4.51-.11.06-.23.13-.34.2l.55-.27c8.64-2.79 16.78-6.69 23.85-12.97 8.68-7.7 15.1-17.74 18.92-28.66 3.84-11 5.08-22.9 3.57-34.46-1.54-11.75-5.98-23.08-13.14-32.55a66.113 66.113 0 00-10.53-11.01c14.01 1.35 27.71-2.04 40.67-7 3.88-2.47 8.12-4 11.3-8.44l6.74 2.24c8.15.41 16.37-.54 24.26-2.59 3.95-1.03 7.83-2.33 11.6-3.9 3.49-1.45 7.23-2.82 9.86-5.66 1.27-1.37 2.82-3.52 4.98-2.63.68.28 1.24.83 1.94 1.07.47.16.98.17 1.48.21 1.26.11 2.49.44 3.75.62 2.81.4 5.66.02 8.43-.49 2.73-.5 5.48-.81 8.21-1.35 3.16-.62 6.3-1.38 9.39-2.29 2.84-.84 6.43-1.58 8.97-3.13 3.9-2.38 7.45-3.69 10.5-8.19 14.22 6.1 43.09-.24 53.21-12.43 8.75 3.08 18.53 2.59 28.51.04-.47.12-1.19 3.99-1.33 4.55-.4 1.57-.75 3.16-1.04 4.76-.57 3.14-.92 6.32-1.04 9.51-.25 6.25.36 12.53 1.77 18.62 2.78 12.02 8.64 23.28 16.82 32.51 8.05 9.09 18.68 16.68 30.37 20.27 8.21 2.52 16.05 3.76 24.69 2.98 8.26-.74 16.35-2.82 24.37-4.95 4.55-1.21 9.1-2.44 13.46-4.18 14.75-5.9 26.25-17.61 33.4-31.65 3.89-7.63 6.59-15.9 8.01-24.35.17-1.01.32-2.03.41-3.05.1-1.1.12-2.21.09-3.31-.09-3.16-.64-6.28-1.19-9.39l-.3-1.67c-1.41-7.97-2.91-16.28-7.4-23.18-2.07-3.18-3.78-6.57-6.05-9.66-2.44-3.33-5.2-6.43-8.25-9.22-.26-.23-.51-.46-.77-.69.92-2.48 2.54-4.15 4.45-6.01 15.83 7.09 51.49-.59 54.72-20.22 2.08-9.15-18.54-60.98-26.26-67.03-7.4-5.8-17.03-9.08-27.6-6.58L463.01 630.24c-2.27-18.41-.36-36.92 6.34-54.7 8.3 1.98 421.61-100.82 440.57-104.36 25.11-5.93 41.88-26.31 50.32-48.18 1.05-2.72 1.74-4.58 2.66-12.27l.86-12.81c15.55-7.29 11.98-24.3 10.67-37.81.09-.4-6.87-55.68-7.35-66.2-2.73-6.31 14.3-5.77 10.8-28.09.19-1.21-8.39-75.83-8.4-77.02 13.72-7.12 12.57-21.03 10.44-34.56l-5.66-48.37c6.81-6.06 7.97-13.83 9.46-21.4zM171.09 70.41c.24-.29.72-.83 1.1-.92-.26.28-.69.8-1.1.92zm148 175l-.59-.74c.49-.3 1.08.32.59.74z"/><path class="cls-1" d="M792.06 319.04l-6.67-22.31c-.48-1.59-2.33-2.52-3.56-2.42-1.46.12-3.24 1.73-2.92 3.68l3.32 20.3c.98 5.99-1.62 11.2-7.34 13.48-14.7 5.87-30.01 9.29-45.76 10.84-5.79.57-10.4-2.44-12.03-7.99l-5.85-19.89c-.54-1.84-1.82-2.95-3.4-2.87-1.45.08-3.63 1.48-3.29 3.55l3.45 21.2c.97 5.98-1.91 11.01-7.66 13.09-15.15 5.5-30.75 9.6-46.79 10.51-4.93.28-8.94-2.55-10.29-6.87l-6.72-21.55c-.48-1.55-2.56-2.32-3.61-2.19-1.61.19-2.98 2.08-2.65 4.07l3.64 21.92c.85 5.15-2.17 9.27-7.03 11.17-13.34 5.2-27.25 8.28-41.53 9.54-5.79.51-10.29-3.02-11.94-8.43l-5.98-19.54c-.63-2.07-2.81-2.78-4.41-2.34-1.76.49-2.51 2.29-2.11 4.5l3.91 21.43c.92 5.02-2.09 8.8-6.75 10.57a146.354 146.354 0 01-40.23 9.07c-5.56.45-10.29-2.61-12.01-7.86l-6.68-20.42c-.61-1.88-3.01-2.03-4.29-1.5-1.62.67-2.2 2.29-1.81 4.36l4.25 22.57c2.07 11-31.63 16.48-46.59 17.15-4.97.23-8.93-3.27-10.36-7.62l-6.39-19.54c-.62-1.89-2.1-2.88-3.69-2.74-1.87.17-3.5 1.86-3.04 4.14l4.33 21.21c.9 4.41-1.75 8.24-5.92 9.75-13.21 4.79-34.28 9.68-38.16-1.68l-26.89-78.91c13.96-2.06 30.09-4.31 36.23-14.4 5.24 3.44 10.65 4.81 16.71 4.36 14.55-1.08 28.46-4.04 42.22-8.9 5.11-1.8 8.9-4.89 11.74-9.32 4.09 2.67 8.21 4.41 12.91 4.16 15.77-.83 31.17-3.87 45.95-9.42 4.84-1.81 8.63-4.68 11.46-9.31 4.88 3.05 10.56 4.28 16.65 3.73 16.08-1.46 31.74-4.85 46.85-10.45 5.34-1.98 9.39-5.22 12.26-10.29 4.85 3.33 10.09 4.55 15.91 4 16.13-1.53 31.84-5 47.22-10.31 6.58-2.27 11.93-5.65 15.53-11.61 5.32 3.36 10.74 4.25 16.73 3.66 17.84-1.76 35.12-6.04 51.76-12.58 5.41-2.13 9.32-5.5 12.21-10.63 4.71 3.16 9.24 4.19 14.43 3.78 17.18-1.37 33.6-5.53 49.74-11.66 5.84-2.22 10.21-5.81 13.53-11.16 4.94 2.92 9.89 3.82 15.33 3.19 16.51-1.91 32.33-5.85 47.59-12.25 4.87-2.04 8.19-5.49 11.18-10 4.27 2.53 8.92 3.82 13.79 2.68l19.82-4.65 8.68 77.95c1.41 12.66-15.44 16.9-29.33 18.99-5.13.77-9.01-2.02-10.39-7.1l-5.46-20.11c-.48-1.77-2.5-2.05-3.74-1.54-.95.39-2.47 1.59-2.24 3.26l2.98 21.62c.66 4.77-1.57 8.92-6.2 10.92-13.15 5.68-27.12 9.34-41.44 10.55-4.95.42-9-2.3-10.29-6.86l-5.72-20.23c-.5-1.78-1.8-3.01-3.36-2.92s-3.38 1.57-3.1 3.61l3.13 22.63c.62 4.52-1.66 8.34-5.9 10.13-13.94 5.89-28.5 9.68-43.64 10.9-4.32.35-8.96-1.32-10.32-5.85z"/><path class="cls-6" d="M966.17 55.25l5.29 23.52c1.7 7.55-.14 16.73-6.57 21.8-8.56 6.74-18.57 11.53-30.12 13.59L690.53 157.7 334.4 221.89c-17.67 3.19-36.61-.89-41.86-17.79-4.38-14.11-7.75-28.01-10.37-42.65-2.39-13.37 6.87-26.29 20.01-28.46 9.14-1.51 7.76 16.69 12.17 22.99s14.39 10.47 23.4 8.94l510.52-86.78 59.24-10.66c15.24-2.74 28.74-10.69 36.77-23.62 1.7-2.74 2.37-5.5 5.15-6.1 3.1-.67 6.62-1.12 8.96 1.49 3.88 4.33 6.36 9.76 7.77 16z"/><path class="cls-1" d="M787.37 442.5c5.98-2.25 9.96-5.78 13.33-10.8 4.04 2.84 8.26 4.02 13.09 3.65 16.41-1.29 32.34-5.33 47.68-11.47 5.02-2.01 8.81-5.05 11.47-9.98 10.7 8.07 31.55.19 46.43-4.22 4.76-2.05 8.83-4.4 11.94-9.18 6.4 3.1 12.48 3.07 20.24 1.15-.94 29.83-20.17 55.07-49.93 62.22l-216.61 52.05-201.18 47.92c-33.35 7.94-66.41.84-83.16-30l-7.99-19.5c11.23-2.12 21.46-4.48 31.69-9.82 3.35 11.16 12.35 17.14 23.29 16.57 12.66-.65 33.87-4.88 39.75-15 4.69 2.38 9.39 3.83 14.7 3.36 16.09-1.42 31.95-4.96 47.08-10.64 5.34-2 9.69-5.15 12.7-10.23 4.36 3.09 9.82 4.27 15.79 3.73 17.35-1.57 34.35-5.65 50.56-12.04 5.27-2.08 9.57-5.24 12.47-10.46 3.9 2.8 8.67 4.29 14.07 3.86 18.39-1.46 36.16-5.46 53.28-12.33 5.45-2.19 9.59-5.55 12.54-10.26 4 2.96 8.33 3.98 13.12 3.68 18.36-1.15 35.88-5.56 53.66-12.25z"/><path class="cls-5" d="M314.2 129.54c-1.08-.31-.51-1.86.55-1.11.13.08.58.02.71-.32l599.61-101.7c10.68-1.04 19.83-.46 29.36 3.63-4.95 2.28-6.33 5.65-8.72 9.35-6.49 10.03-17.28 16.33-29.48 18.51l-77.94 13.91-492.61 83.76c-8.33 1.42-14.47-4.13-15.42-11.2-.78-5.79-2.21-10.77-5.6-14.59l-.46-.24z"/><path class="cls-6" d="M214.4 50.06l-44.25 10.38c-8.63 2.03-15.39 7.07-19.04 13.98-4.11 7.76-3.36 16.18-.24 24.89l-97.58 23.01c-13.03 3.07-26.3-1.5-35.03-10.84C8.07 100.57 4.94 86.11 9.28 71.81c3.85-12.69 14.52-22.85 28.96-26.25l144.65-34.09c10.1-2.38 20.36-.69 28.72 4.73 11.51 7.46 17.7 20.52 18.35 34.14-5.64-.99-10.05-1.56-15.56-.27z"/><circle class="cls-6" cx="901.77" cy="665.84" r="60.83"/><circle class="cls-6" cx="533.52" cy="753.12" r="60.81"/><path class="cls-3" d="M940.52 298.56c-5.09 1.19-9.87.12-14.66-2.53-2.18 4.23-5 7.24-9.17 9.05-13.9 6.04-28.52 9.87-43.64 11.37-5.12.51-9.67-.39-14.14-3.26-2.22 4.02-4.98 6.97-9.11 8.79-14.76 6.51-30.3 10.31-46.45 11.79-5.24.48-9.91-.94-13.95-3.69-2.39 4.48-5.78 7.87-10.43 9.7-15.51 6.1-31.46 10.01-48.02 11.66-5.72.57-10.68-.43-15.56-3.6-2.89 4.81-6.39 7.93-11.19 9.82-15.48 6.09-31.58 9.9-48.16 11.48-5.34.51-10.1-.67-14.8-3.37-2.54 4.21-5.84 7.14-10.29 8.95-13.76 5.59-28.02 8.74-42.82 10.36-5.76.63-10.88-.24-16-3.48-2.7 4.65-6.12 7.41-10.76 9.21-13.71 5.31-27.98 8.4-42.63 9.65-5.05.43-9.44-.94-14.03-3.39-3.08 4.58-7.03 7.63-12.21 9.42-15.83 5.47-41.38 12.37-53.87 4.56-5.45 9.4-19.58 11.72-31.52 13.46l3.81 12.23 23.48 67.96c4.12 11.92 25.55 6.57 39.18 1.55 4.78-1.76 7.03-6.39 5.96-11.37l-4.58-21.24c-.38-1.77 1.51-2.65 2.56-2.95 1.46-.42 3.62-.2 4.29 1.75l7.13 20.77c1.71 4.99 6.24 7.66 11.63 7.22 16.17-1.32 31.88-4.81 46.94-10.83 4.69-1.87 7.72-6.31 6.75-11.29l-4.03-20.62c-.4-2.05.22-3.48 1.57-4.32 1.38-.86 4.26-.91 4.92 1.11l6.96 21.19c1.69 5.14 6.75 8.05 12.27 7.52 17.11-1.64 33.89-5.26 49.77-11.75 5.06-2.07 8.08-6.52 7.15-11.81l-3.79-21.46c-.4-2.28 1.37-3.8 3.09-4.03 2.02-.26 3.5.84 4.22 3.12l6.52 20.66c1.46 4.62 6.02 7.07 11.03 6.67 17.72-1.4 35.04-5.55 51.57-12.06 5.47-2.15 8.07-7.27 7.03-12.83l-3.67-19.62c-.44-2.37.45-4.05 2.25-4.7 2.36-.85 4.21.34 5 2.95l6.05 19.89c1.58 5.18 6.08 7.94 11.55 7.46 17.73-1.55 35.02-5.63 51.54-12.23 5.79-2.31 8.14-7.54 7.15-13.42l-3.2-19.09c-.44-2.64.49-4.24 2.59-4.8 2.25-.6 3.8.52 4.58 3.09l6.19 20.62c1.31 4.35 5.8 6.67 10.45 6.34 15.97-1.12 31.31-4.9 46.05-11.09 5.06-2.13 7.43-6.84 6.6-12.04l-3.12-19.41c-.34-2.09.19-3.56 1.52-4.46 1.46-.99 4.38-.89 4.99 1.25l6.11 21.37c1.3 4.56 5.66 7.04 10.35 6.54 11.1-1.18 21.79-3.72 32.14-7.82 4.48-1.77 7.28-5.59 6.65-10.34l-2.88-21.54c-.24-1.76.59-3.51 1.73-4.04.96-.44 3.6-.09 4.03 1.45l6.21 22.14c2.31 8.22 13.22 6.13 23.19 2.23 4.86-1.9 9-6.72 8.34-12.53l-7.84-69.61-1.71-13.21-14.82 3.45z"/><path class="cls-6" d="M1009.64 576.99l-17.79-44.94c-3.59-9.08-13.22-14.02-23.17-11.67L464.32 639.85l-35.62 8.66c-9.75 2.37-16.34 10.88-15.16 20.89l5.59 47.51c.61 5.19 3.71 10.26 9.37 10.43 11.69.36 23.07-2.31 33.7-7.06 4.33-1.93 5.83-6.16 5.06-10.74l-3.21-18.97c-.29-1.69.82-3.1 2.04-3.43 1.6-.43 3.24.38 3.91 2.39l7.06 21.16c10.82-14.49 25.11-23.33 42.18-26.69l-1.44-13.54c-.18-1.66 1.03-3.37 2.2-3.83 1.37-.55 3.59.49 4.21 2.31l4.58 13.4c16.64-.55 32.75 2.37 47.68 9.89 2.69-2.38 3.59-5.36 3.08-8.51l-3.35-20.42c-.26-1.57.95-2.29 1.86-2.62 1.16-.41 3.06-.43 3.6 1.26l6.48 20.44c1.15 3.61 4.5 5.87 8.36 5.77 11.8-.31 23.07-3.2 33.9-7.91 3.6-1.57 5.84-4.78 5.22-8.67l-3.25-20.32c-.27-1.72.36-3 1.33-3.71.87-.64 3.43-.88 3.87.52l6.15 19.59c1.46 4.65 5.26 7.38 10.02 7.15 10.95-.51 21.46-3 31.48-7.27 5.19-2.21 6.73-6.67 5.76-12.06l-3.13-17.36c-.35-1.96.66-3.64 2.07-4.03 1.55-.43 3.3.39 3.9 2.36l5.77 18.99c1.17 3.83 4.57 6.51 8.75 6.33 11.14-.47 21.9-3.07 32.13-7.5 3.86-1.67 5.94-5.63 5.22-9.74l-3.38-19.35c-.35-2 .63-3.59 2.11-4.01 2.18-.61 3.59.76 4.3 3.09l5.76 19.11c3.03 10.05 26.11 3.8 38.95-1.4 4.34-1.76 7.06-5.7 6.23-10.39l-3.27-18.58c-.37-2.09-.09-3.68 1.62-4.44 1.2-.53 3.56-.21 4.13 1.72l5.64 18.99c1.22 4.11 4.24 6.6 8.54 6.93 8-.48 15.85-1.39 23.51-4.56 3.26-6.03 7.31-11.12 11.69-16.39l-2.42-15.58c-.27-1.74.61-2.93 1.59-3.57.98-.64 3.32-.87 3.86.51l4.78 12.31c12.68-9.08 26.99-13.58 43.06-14 1-8.58-3.36-15.61.17-18.43 1.02-.82 3.51-.97 4.02.53l6.31 18.37c8.43 1.18 15.9 3.99 23.52 7.38l9.52 2.53c4.55 1.21 12.74-3.22 12.04-8.05l-3.2-21.93c-.31-2.12-.12-3.73 1.81-4.35 1.57-.51 3.32 0 3.97 2.15l5.43 18.12c1.37 4.57 5.06 7.44 9.84 7.27 8.85-.31 17.31-2.16 25.29-5.73 3.04-1.36 6.38-2.41 8.15-5.16 2.02-3.13 1.87-6.95.39-10.71z"/><path class="cls-3" d="M928.25 125.17l-188.26 33.31-219.85 39.36-172.23 31.21c-12.34 2.23-23.25 4.17-35.56 2.25l3.84 11.69.48 2.12.59.74 24.12 68.74c4.22 12.01 28.62 6.74 42.05 1.5 4.92-1.92 6.81-6.33 5.76-11.47l-4.12-20.2c-.35-1.74 1.09-3.17 2.36-3.58 1.37-.45 3.65.41 4.28 2.3l6.8 20.16c1.73 5.14 6.07 8.33 11.7 8.16 14.81-.45 29.26-3.36 43.13-8.75 4.48-1.74 7.27-5.86 6.37-10.68l-4.12-22.26c-.32-1.73 1.11-3.17 2.36-3.6 1.41-.48 3.64.45 4.26 2.34l7.26 21.91c1.5 4.54 6.12 7.17 11 6.91 14.63-.79 29.05-3.53 42.7-8.72 5.72-2.18 8.55-6.5 7.39-12.46l-3.99-20.45c-.38-1.96.58-3.52 1.96-4.26 1-.54 3.52-.65 4.09 1.13l6.86 21.26c1.76 5.47 6.33 9 12.41 8.61 16.41-1.04 32.61-4.6 47.9-10.66 4.72-1.87 7.28-6.64 6.5-11.36l-3.64-21.9c-.33-2.01.48-3.47 1.98-4.2 1.46-.7 3.96-.32 4.6 1.88l6.09 21.06c1.49 5.15 6.07 8.75 11.74 8.45 17.17-.91 33.82-4.93 49.89-11.16 4.68-1.81 8.52-6.03 7.75-11.03l-3.46-22.41c-.32-2.07.16-3.57 1.44-4.44 1.45-.99 4.4-.89 5.02 1.2l6.78 22.69c1.58 5.27 7.36 7.35 12.82 6.88 17.59-1.5 34.74-5.87 51.12-12.36 5.7-2.26 7.89-7.84 6.95-13.47l-3.55-21.34c-.28-1.7 1.2-3.09 2.4-3.51 1.38-.49 3.65.33 4.23 2.22l6.56 21.42c1.75 5.72 7.28 8.26 13.2 7.65 16.59-1.73 32.81-5.75 48.2-12.22 5.29-2.22 7.52-7.49 6.68-12.75l-3.26-20.45c-.31-1.94.46-3.22 1.6-4.11.84-.66 3.79-1.3 4.26.27l6.5 21.71c1.58 5.27 5.5 8.51 11.16 8.05 15.97-1.3 31.38-5.47 46.26-11.5 5.27-2.14 8.4-6.69 7.63-12.3l-2.96-21.6c-.26-1.88 1.06-3.39 2.28-3.78 1.46-.47 3.46 0 3.98 1.89l5.81 21.21c1.23 4.5 5.22 6.91 9.76 6.48 9.99-.95 19.87-3.58 28.63-8.76 4.18-2.47 5.74-8.01 5.19-12.72l-4.8-41.19-1.74-13.08c-11.18 5.78-22.29 9.7-35.15 11.98zM307.6 302.02l5.51 20.37c2.21 8.19-9.88 10.6-21.11 12.13-4.53.62-10.42-.5-12.51-5.69L249.5 254.2c19.23-3.12 22.88-10.96 23.97-11.55 1.5-.81 3.14.84 4.65 1.15 8.91 1.81 17.2-1.62 26.32-5.09l24.5 69.79c1.91 5.45 3.58 10.06 6.65 14.88-4.87 2.43-11.99 3.15-14.16-1.58l-8.52-18.64c-.57-1.25-1.23-1.62-1.65-2.08-.7-.76-4.05-.43-3.68.95z"/><path class="cls-6" d="M451.57 632.83l-24.12 6.16c-6.3 1.61-11.44 4.91-16.68 9.29-3.1-28.17-.63-55.23 6.62-82.6 12 7.17 24.77 9.9 39.06 10.59-5.2 18.74-7.11 36.78-4.87 56.55z"/><path class="cls-3" d="M238.76 69.45c-4.82-8.04-13.08-12.33-21.91-10.31l-29.01 6.63-17.48 4.16-1.1.92c-8.87 2.49-14.15 11.87-10.4 21.37l24.64 62.37c3.69 9.33 20.8 5.34 32.15.68 3.56-1.46 5.05-5.06 3.98-8.75l-4.96-17.14c-.45-1.56.39-3.02 1.37-3.54 1.04-.56 2.93-.14 3.58 1.32l7.94 17.9c2.24 5.04 7.85 5.44 12.89 4.25 10.28-2.43 20.81-4.42 28.27-11.21 2.43-2.3 5.4-4.07 6.42-7.91l-36.4-60.74z"/><path class="cls-5" d="M297.45 225.81c-7.45-4.75-12.92-12.45-15.07-21.23l-10.37-42.33c-1.27-5.17.39-9.7 1.04-15.53-13.13 7.62-34.85 15.56-46.37 9.08-1.98 4.12-4.77 6.89-8.83 8.09l-15.46 4.58 4.32 11.49 23.97 60.83c4.65 8.92 20.74 5 31.34.5 3.88-1.65 5.09-5.39 4.02-9.21l-4.83-17.33c-.49-1.77.26-3.47 1.54-3.96 1.36-.51 3.12.2 3.82 1.84l7.4 17.42c1.54 3.63 4.5 5.9 8.57 5.64 6.52-.75 12.81-2.53 18.76-5.21.38-2.94-1.9-3.42-3.86-4.67zm56.2 114.31l-3.45-9.45c-9.59-1.57-18.69 6.7-29.51 1.19-5.09 6.85-12.88 8.97-21.7 10.31l4.13 11.83 24.45 61.19c5.1 12.78 35.46 1.89 49.41-6.75l-23.33-68.32z"/><path class="cls-3" d="M417.58 486l-20.11-59.8-7.13-1.79c-3.73-.94-6.48-4.65-9.5-7.71-10.4 6.42-21.66 10.01-33.52 12.32l4.19 11.42 23.73 60.19c1.96 4.96 7.36 5.94 11.25 5.35 2.94-.44 6.61.29 8.85-2.05 5.84-.49 11.43-2.12 16.88-4.04 2.84-1 6.04-1.68 8.86-3.52L417.59 486z"/><path class="cls-2" d="M411.3 166.71c2.95-.18 3.49 2.87.88 4.14-4.34 2.49-9.05 4.54-14.4 6l-49.29 13.49c-7.97 2.18-16.2 2.28-24.24 1.59-14.28-1.22-22.18-13.18-17.58-17.74 5.66-5.6 13.43 5.46 39.5 1.32l58.61-9.3c2.44-.39 4.53.04 6.51.5zM77.97 63.65c-18.6 8.14-26.52 19.78-40.08 21.42-4.13.5-7.97-.8-10.01-3.52-2.47-3.29-2.43-7.96-.12-11.74 6.72-10.99 33.8-14.37 48.95-14.4 2.12 0 3.94 1.88 4.31 3.17.54 1.92-.9 4.12-3.05 5.06z"/><circle class="cls-4" cx="901.68" cy="666" r="29.68"/><path class="cls-2" d="M870.13 642.33c-4.94 8.9-11.04 22.8-17.6 19.25-1.81-.98-2.32-3.39-2.16-6.17 1.23-21.07 21.3-35.56 25.03-32.27 4.58 4.04-1.46 12.33-5.27 19.2z"/><circle class="cls-4" cx="533.46" cy="753.23" r="29.68"/><path class="cls-2" d="M491.26 746.63c-1.29 2.17-4.52 2.64-5.94 2.27-8.48-2.23-.89-31.88 20.22-38.64 3.1-.99 4.03 5.49 2.75 7.64l-17.03 28.73z"/><circle class="cls-3" cx="901.6" cy="665.94" r="20.29"/><circle class="cls-3" cx="533.41" cy="753.28" r="20.32"/></g></svg>