<svg id="Layer_2" data-name="Layer 2" xmlns="http://www.w3.org/2000/svg" viewBox="0 0 910.68 914.05"><defs><style>.cls-1{fill:#c8b9fb}.cls-2{fill:#fdfcfc}.cls-3{fill:#1d0954}.cls-4{fill:#dfd6fa}.cls-5{fill:#e6dafb}.cls-6{fill:#9d7af3}</style></defs><g id="Layer_1-2" data-name="Layer 1"><path class="cls-3" d="M712.9 673.57l-2.16.6c-6.95-5.75-7.46-5.6-1.52.44l-.31 2.26 34.75 40.54c8.3 9.68 15.11 19.46 20.95 30.74 12.63 24.42 13.1 53.15-.5 76.98-14.56 25.51-41.43 38.8-70.66 35.39-70.78-8.25-124.61-91.34-151.39-152.13l-15.83-39.66-1.4.67c1.52 3.92 0 7.86.28 11.8l7.42 103.57c2.49 34.79-.91 71.61-22.03 98.99-25.72 33.34-70.67 39.98-105.16 15.83-66.12-46.29-39.83-145.8-31.23-216.73-15.13 36.21-32.52 70.55-56.14 101.65-28.13 37.02-66.96 74.13-115 77.01-30.95 1.86-57.82-15.22-68.92-44.2-14.13-36.87 2.47-71.86 28.51-99.53l34.46-36.63.13-2.63c8.59-7.84 7.96-8.19-1.88-1.05l-2-.73c-38.54 23.38-88.01 42.81-133.21 35.66-29.57-4.67-51.68-25.63-58.16-54.49-7.23-32.24 6.52-63.68 35.17-80.4 15.66-9.14 32.82-13.25 50.83-16.96l45.72-9.42c-31.21-4.51-61.54-13.22-85.09-34.68C25.1 495.12 19 460.43 35.27 432.97c19.87-33.52 60.72-35.77 94.9-22.87l59.17 22.32c20.46 7.72 41.44 12.22 63.61 11.88l-2.58-10.84c-7.19-3.26-11.61-7.76-14.36-15.06-10.01-26.55-15.92-54.86-19.16-82.69-6.05-3.38-10.18-7.36-11.3-14.28-4.5-27.98-3.51-57.2 2.79-84.56-3.7-4.42-4.3-9.26-3.29-14.83 4.62-25.47 14.76-49.03 27.56-71.68-1.2-4.39-1.45-9.01.85-13.53 12.06-23.69 28.42-44.7 47.85-63.02.95-1.49.88-3.2 2.37-4.59 36.58-34.07 86.77-59.58 136.52-66.5 12.26-2.02 32.87-4.56 78.15-.76C548.69 7.55 597.8 25.74 635.18 61l2.16 6.33c18.74 16.99 34.7 36.15 46.91 58.15 2.92 5.25 3.2 10.62 2.24 15.8 13.14 22.76 23.57 46.44 28.64 72.04 1.11 5.62.32 10.79-2.5 15.49 6.1 27.7 3.88 60.99.43 89.22-.76 6.24-4.28 10.75-9.38 14.35-2.28 27.47-8.58 54.63-17.57 80.71-6 17.41-16.94 12.58-18.75 29.67 21.02.37 39.87-5.06 59.09-11.53l53.3-20.68c37.8-14.67 83.75-13.08 102.81 25.79 16.85 34.37 3.52 73.4-28.96 92.99-20.63 12.44-43.36 18.55-68.51 21.58l53.36 10.83c41.42 8.41 73.87 36.54 72.17 80.96-1.27 33.38-23.33 60.03-55.91 67.52-48.25 11.09-101.4-9.64-141.81-36.64z"/><path class="cls-5" d="M197.02 681.16c-1.86-1.01-3.55-2.04-3.75-4.41l18.31-12.26c-4.32 6.89-9.57 11.36-14.56 16.67zm515.88-7.59c.03 1.05-.29 2.55-1.54 2.82l-2.45.47c-3.37-3.94-7.17-7.32-9.11-12.14 5.54 2.43 8.79 5.96 13.11 8.84z"/><path class="cls-4" d="M386.85 287.43c4.78-.58 145.24 1.71 145.24 1.71 2.22 4.83 7.01 7.31 12.66 7.39 15.62.22 31.05-2.48 45.98-6.99 6.01-1.81 9.65-5.92 11.19-12.33 4.03 3.64 8.5 4.97 13.43 4.02 14.3-2.75 27.81-8.22 40.35-15.4 4.87-2.79 7.09-7.37 6.92-13.27 10.39 9.07 26.04-3.76 37.98-12.15 5.73 27 7.38 53.35 2.77 80.69-9.98 9.13-22.09 16.54-35.46 20.05-7.82-5.91-8.75-19.11-13.53-18.37-5.28.81.6 14.75-2.46 25.4-12.18 7.91-26.54 12.06-40.91 14.52-3.19.55-5.75-1.96-6.66-4.34l-5.23-13.73c-.69-1.82-2.29-2.54-3.89-2.08-1.26.37-2.06 1.48-2.13 3.25l-.65 16.73c-.12 3.19-2.45 5.66-5.62 6.64-13.95 4.31-28.32 6.63-43.01 7.05-3.95.11-6.8-2-7.78-5.56l-3.89-14.21c-.54-1.96-1.73-3.08-3.41-2.95s-2.87 1.46-3.1 3.45l-1.91 16.02c-.38 3.16-2.94 5.49-6.34 6.07-16.65 2.84-33.87 3.77-50.65 1.22-5.6-9.07-3.19-22.69-7.84-23.31-1.59-.21-3.25.75-3.69 2.68l-3.49 15.32c-.78 3.42-3.46 5.76-7.15 5.96-15.64.87-31.1-.11-46.48-2.91-3.98-.72-6.72-3.08-7.07-7.09l-1.31-14.85c-.19-2.12-1.09-3.7-3.06-3.86-1.19-.09-2.82 1.14-3.32 2.7l-4.82 14.87c-1.11 3.41-3.89 5.18-7.84 4.98-14.49-.74-28.67-3.5-42.39-7.89-4.03-1.29-6.18-3.99-6.22-8.27l-.14-16.57c-.01-1.65-2.83-1.87-3.89-1.42-3.59 1.53-4.35 13.98-11.01 20.4-15.84-1.17-31.32-6.38-44.97-13.89-2.87-10.4 2.9-23.06-2.06-24.34s-5.62 12.24-13.56 17.67c-10.99-2.65-23.52-8.66-31.33-17.28-5.31-26.82-4.1-54.17 1.19-81.06 12.4 6.84 26.82 17.45 36.63 8.5.14 5.45 2.01 9.65 6.45 12.04a152.968 152.968 0 0040.67 14.9c5.45 1.15 10.09-.58 13.77-4.59.49 6.03 3.4 10 8.48 11.97 15.75 6.1 32.23 9.36 49.25 10.14 6.47.3 11.99-2.02 15.31-7.68z"/><path class="cls-1" d="M319.88 452.79c-14.24-1.43-27.57-6.94-39.59-13.81-3.14-10.04 2.09-21.93-2.97-22.53-4.49-.53-4.89 10.66-11.21 15.5-7.66-1.98-14.06-6.44-20.03-11.57-9.42-25.7-16.36-51.56-19.39-79.08 10.14 4.77 20.5 9.79 27.71 2.55.17 5.58 2.66 9.61 7.37 11.92 12.82 6.28 26.37 10.79 40.57 12.64 5.4.71 10.23-1.12 13.21-5.85 1.13 6.22 4.39 9.67 9.75 11.44 14.65 4.85 29.85 8.01 45.36 8.58 6.06.22 10.63-1.71 13.87-7.67 2.04 5.95 5.62 9.27 11.16 10.43 16.07 3.37 32.5 4.33 48.95 3.42 6.49-.36 10.71-3.66 13.58-9.28 2.33 5.52 5.53 8.71 10.84 9.21 16.42 1.54 33.06.99 49.29-1.93 6.27-1.13 9.91-4.42 12.33-10.98 2.53 5.92 6.71 7.9 12.29 7.94 16.4.12 32.52-2.81 48.02-7.94 4.87-1.61 7.12-5.87 8.48-10.94 3.36 4.06 7.38 6.1 12.28 5.46 14.43-1.87 28.3-6.72 41.2-13.45 4.58-2.39 6.79-6.76 7.22-12.46 9.22 8.87 21.54.34 33.73-6.02-2.76 27.57-9.53 53.11-18.65 78.48-5.62 5.33-11.86 9.62-19.3 11.68-6.31-5.7-7-15.03-11.03-14.66-5.01.47.23 12.39-2.98 22.5-11.61 6.8-24.26 12.68-38.02 14.43-6.65-6.51-6.78-19.08-11.4-18.53-5.47.64-.82 13.63-4.92 23.78-15.33 6.59-32.13 10.09-48.78 9.71-5.91-7.81-5.28-20.37-9.37-20.77-1.97-.19-3.51.97-3.79 3.25l-1.85 15.14c-.4 3.27-2.62 5.69-6.04 6.39-14.38 2.92-28.98 3.98-43.67 2.92-3.59-.26-6.3-2.29-6.99-5.61l-3.09-14.9c-.39-1.9-1.83-2.88-3.31-2.85-5.19.12-2.52 14.35-8.72 22.77-16.02 2.31-32.17 1.18-47.83-1.94-3.26-.65-5.17-3.15-5.48-6.21L397 447.66c-.18-1.78-2.06-2.32-3.38-2.13-4.45.67-3.49 14.38-10.28 21.85-16.62-.25-33.17-3.63-48.36-9.82-3.6-9.91.62-21.71-3.64-22.93-5.21-1.49-5.01 9.94-11.45 18.14z"/><path class="cls-5" d="M345.69 520.89l-6.24 13.94c-1.31 2.92-3.86 4.89-7.61 4.2-14.29-2.6-28.07-7.99-40.19-16-1.95-9.41 5.2-21.34 1.1-23.04-5.06-2.1-7.24 11.62-15.83 15.42-10.5-3.56-19.63-10.14-26.54-18.95 13.21-17.11 17.72-37.36 10.45-57.74 4.76.95 8.23.45 12.12-2.03.9 3.27 1.58 7.19 4.74 9.05 11.39 6.67 23.72 11.45 36.64 13.94 4.89.94 9.13-.2 12.77-4.38.98 5.07 3.4 8.78 8.08 10.5 14.4 5.3 29.51 8.64 44.93 9.1 5.44.16 9.31-2.58 12.27-7.54 1.21 6.08 5.23 9.25 10.85 10.45 15.33 3.28 31.16 3.95 46.79 2.46 5.43-.52 8.7-4.36 10.87-9.31 2.3 5.93 6.32 8.87 12.15 9.34 15.69 1.27 31.5.1 46.86-3.3 5.62-1.24 8.8-4.85 10.7-10.63 2.72 4.95 6.45 7.08 11.5 7.03 15.84-.14 31.27-3.55 45.98-9.23 4.56-1.76 6.64-5.69 8.08-10.89 7.54 11.34 35.8-2.23 48.61-9.91 3.34-2 4.32-6.05 4.97-10.18 3.11 1.9 5.7 3.1 9.95 2.4-8.41 20.37-5.75 41.87 6.22 60.68-7.97 9.85-18.31 17.21-29.96 20.99-5.44-3.53-7.45-8.92-10.61-13.74-.74-1.68-2.55-2.67-3.74-2.56-5.87.59 2.36 14.46-.64 24.48-11.41 7.94-46.79 22.44-50.78 12.61l-6.48-15.96c-.53-1.31-2.01-2.14-3.01-1.98-1.25.2-2.73 1.53-2.74 3.2l-.11 17.88c-.02 3.66-2.47 6.2-6.07 7.34-15.11 4.79-30.75 7.27-46.72 7.43-4.1.04-7.51-1.71-8.38-5.64l-3.71-16.82c-.39-1.77-1.67-2.65-3.01-2.74-1.74-.12-3.06.95-3.39 3.04l-2.67 17.17c-.61 3.94-3.5 6-7.54 6.48-17.08 2.03-34.14 1.65-51.16-.83-3.98-.58-6.81-2.95-7.25-6.9l-1.75-15.74c-.21-1.87-.71-3.55-3.13-3.71-4.65-.31-3.83 16.2-9.82 21.84-5.66 3.32-14.18 1.32-20.37.25-10.87-1.88-21.12-3.89-30.81-8.94-3.46-9.74 1.93-23.36-2.44-24.63-1.06-.31-3.1.18-3.95 2.09z"/><path class="cls-1" d="M286.77 144.35c-3.88-3.82-9.2 10.71-16.84 15.94-11.18-1.86-21.36-7.35-30.37-15.11 11.59-25.11 28.48-46.37 48.17-64.84 13.33 8.24 34.35 20.4 44.25 9.44-.18 5.74 2.25 9.43 7.13 11.33 13.11 5.11 26.86 8.38 41.01 9.64 6 .53 10.48-2.43 13.59-7.31 1.19 6 5.02 9.15 10.29 10.27 14.92 3.15 30 4.37 45.23 3.25 5.18-.38 8.53-3.76 10.75-8.36 2.21 5.58 6.21 8.27 11.63 8.8 14.45 1.41 28.88.5 43.15-2.08 5.35-.97 8.7-4.21 10.74-9.7 3.01 4.94 7.07 7.29 12.26 7.08 12.92-.51 25.48-2.99 37.5-7.39 4.77-1.75 7.08-5.47 7.74-10.89 10.45 9.89 31.96-5.61 43.96-15.35 19.61 17.18 36.46 37.81 48.16 61.92-7.33 9.94-17.52 17.09-28.64 21.76-8.17-4.73-12.02-17.12-16.08-15.47-5.18 2.1 4.8 15.79.89 21.81-3.39 5.22-11.19 6.59-17 9.02-15.33-25.61-46.58-34.76-73.42-21.75-16.88 8.18-28.44 23.65-32.28 42.51-12.55 1.54-36.73 4.91-38.62-4.06l-3.31-15.68c-.39-1.86-2.01-2.71-3.42-2.64-1.67.08-2.5 1.41-2.91 3.29l-3.2 14.78c-.72 3.32-3.4 5.16-6.93 5.38-12.28.77-24.35-.19-36.57-1.95-4.36-23.01-21.81-40.68-43.08-45.75-23.63-5.64-47.1 3.88-60.95 23.77-8.98-2.1-17.52-5.21-24.88-10.25-1.39-9.08 4.92-18.53 2-21.41z"/><path class="cls-6" d="M451.73 107.22c-4.46 5.23-38.13 1.77-50.12-2.19-4.31-8.76.8-21.42-3.14-23.2-1.57-.71-3.69.2-4.52 2.26l-5.65 14.06c-1.35 3.36-4.35 5.36-8.15 4.98-12.82-1.27-25.17-3.92-37.08-8.43-3.1-1.18-4.89-3.56-3.97-6.75l3.91-13.43c.4-1.38 0-2.81-.97-3.48-.83-.58-2.74-.81-3.76.4L328 83.56c-2.36 2.78-5.83 4.08-9.58 2.92-9.31-2.88-18.31-6.4-26.42-12.58 34.29-31.82 82.59-51.97 127.61-57.07 25.02-2.83 48.13-2.34 72.9-.46 46.48 3.51 95.54 23.03 130.94 55-9.03 9.52-20.62 16.25-33.01 19.57-5.44-3.72-8.15-8.67-12.04-13.09-.94-1.54-2.72-2.29-3.78-1.85-4.76 1.98 3.09 12.01.68 20.91-12.78 5.8-27.44 8.54-41.35 7.99-6.62-7.81-6.61-21.57-11.31-21.38-5.99.24-.86 13.49-5.53 23.42-15.74 3.8-32.61 4.55-48.64 2.24-5.86-9.14-2.85-22.94-7.84-23.35-6.51-.53-3.01 14.47-8.9 21.4z"/><path class="cls-4" d="M532.09 289.14c-10.8 1.4-20 2.59-32.54 3.58 0 0-28.22.99-78.05-.46-11.5-.63-23.2-1.56-34.65-4.83 4.06-6.9 4.47-17.47-.8-16.15-4.57 1.14-3.07 12.29-9.55 15.91-18.58.72-37.26-3.77-54.36-10.4-4.22-9.62 2.07-20.67-4.3-20.74-5.2-.06-5.81 11.25-13.38 14.38-15.64-2.02-30.35-8.33-43.92-15.85-2.41-9.91 4.1-21.59.04-23.76-1.36-.73-3.02.05-4.04 1.62l-7.47 11.48c-5.21 8.01-26.31-5.82-34.74-13.95-1.8-2.38-.42-7.29.19-10.2 4.78-22.59 13.73-43.46 25.34-63.82 12.99 6.76 27.59 16.89 37.85 7.83-.91 11.83 15.93 14.31 27.72 19.16-12.9 27.38-4.49 59.99 21.32 75.98 18.64 11.55 42.19 11.79 60.93-.26 17.05-10.97 28.13-30.84 26.91-52.6 12.42 1.4 24.42 2.58 36.67 1.51 5.74-.5 9.58-3.31 12.47-9.16 4.17 14 28.13 9.49 43.95 8.77-.39 21.1 9.54 40.5 27.36 51.75 17.95 11.33 40.12 11.4 59.09.41.99 6.98 1.9 14.24-1.36 21.17-16.22 6.05-33.81 9.09-51.1 8.15-6.3-4.39-3-14.1-8.68-14.44-4.87-.29-4.09 7.95-.89 14.92z"/><path class="cls-6" d="M498.45 844.54c-7.48-1.01-9.85-12-14.55-10.71-3.98 1.09 2.11 11.21.98 19.62-7.99 8.19-18.95 16.96-31.03 17.93-6.61.53-10.64-13.83-14.58-12.94-5.66 1.29 2.73 14.78-2.06 20.44-7.96 9.4-21.74 10.96-33.02 7.86-35.74-31.5-36.31-80.88-31.18-126.55 14.16 7.16 38.34 16.17 45.76 3.55 1.37 4.69 3.83 7.69 8.02 8.93 13 3.86 26.8 4.58 40.27 2.66 4.89-.7 8.01-3.87 9.93-9 3.93 13.88 30.39 7.81 45.4 2.27 1.68 20.97 2.2 39.93-.1 60.32-6.2 6.63-13.67 14.01-23.85 15.6z"/><path class="cls-1" d="M479.71 659.3c-4.99.35-1.41 12.15-6.9 21.48-13.65 3.06-28.42 2.53-41.87-1.43-4.11-8.67-.05-19.7-4.03-20.84-5.25-1.49-4.4 10.41-10.79 18.84-10.57 1.04-21.01-1.67-30.68-6.89 6.17-37.73 13.64-74.15 22.36-110.87l4.02-4.83c1.74 4.96 5.41 8 10.37 8.98 17.93 3.52 36.14 3.46 54.39 1.57 6.46-.67 10.86-3.5 13.99-10.19 2.74 5.41 6.72 8.33 12.95 8.51 5.36 37.1 10.34 73.32 12.81 111.11-8.64 4.21-18.5 6.57-27.86 4.67-5.74-8.54-3.78-20.47-8.78-20.13z"/><path class="cls-6" d="M659.82 788.21l5.54-11.38c.56-1.16-.04-2.45-.95-3.14-.81-.62-2.12-.45-3.29.54l-8.08 6.79c-2.97 2.5-6.94 3.34-10.58.69-9.14-6.66-17.19-15.42-22.74-25.42-3.32-5.98-2.25-12.96-.04-18.67 10.86 6.68 32.06-9.22 41.59-17.88 3.35-3.04 4.77-6.65 4.07-11.45 11.77 5.33 26.77-10.84 35.01-21.78l32.41 37.05c8.78 10.03 16.23 20.2 21.95 32.19 10.66 22.33 8.68 48.28-6.35 68.13-12.71 3.34-27.26 2.47-37.65-5.81-4.53-3.61 1.91-16.89-1.94-18.77s-6.09 7.41-11.96 12.76c-6 5.46-26.06-7.3-34.8-15.15-2.37-2.12-3.77-5.42-2.18-8.68zm-423.12-12.3c-2.87 2.74 5.19 12.01 3.93 20.78-9.13 9.88-21.46 16.87-34.48 19.84-4.15.95-7.32-1.08-9.16-4.36l-5.86-10.44c-.65-1.16-2.87-.44-3.44.22-2.68 3.06 1.5 14.89-2.78 18.35-9.96 8.05-24.02 8.66-36.15 4.94-22.38-34.78-6.85-72.45 19.81-100.62l38.79-41c8.17 11.31 22.2 27.63 35.2 23.36-.52 4.26 0 7.78 2.84 10.46 9.35 8.81 31.79 25.81 42.63 19.35 1.07 5.45 3.07 12.86.06 18.83-6.53 12.97-29.9 38.1-38.61 29.15l-8.54-8.78c-1.13-1.16-3.11-1.15-4.22-.09z"/><path class="cls-1" d="M578.33 656.3c-7.24-4.08-8.73-17.21-13.32-15.9-5.01 1.43 1.45 11.76-1.76 20.12-8.2 5.32-18.22 7.35-28.05 6.47-11.5-33.86-18.96-67.91-22.34-103.42 14.83-.97 29.21-3.45 43.1-8.47 5.13-1.85 7.57-5.75 9.09-11.56 8.07 13.36 34.88.28 50.23-5.49 10.42 26.25 22.16 50.53 37.13 74.93-6.79 8.38-15.79 15.31-25.81 18.98-7.46-4.28-12.11-17.45-15.72-12.03-1.9 2.85 4.48 11.83 3.04 19.84-10.34 7.88-22.66 13.85-35.59 16.54z"/><path class="cls-6" d="M815.31 665.79c-2.92-8.44 1.51-18.81-2.63-19.59-4.58-.87-5.45 10.55-12.37 17.12-13.69-.79-27.31-6.87-37.52-16.51-1.97-1.86-2.5-8.19-1.68-10.73 5.68-10.03 13.69-19.31 9.9-30.18 8.16-3.1 11.89-15.29 14.2-25.1.98-4.16 1-8.02-1.39-12.01 3.08-1.71 4.66-3.77 5.97-7.06l37.9 7.43c13.57 2.66 26.27 6.8 37.99 13.69 29.88 17.57 40.62 54.05 25.63 85.66-7.86 3.98-17.38 6.69-25.32 2.11-4.76-6-2.08-16.16-6.9-15.81s-2.63 12.42-8.88 16.5c-11.62 2.94-24.34-.6-34.91-5.5zM98.46 648.53c-.82-1.72-2.96-1.69-4.02-.98-3.07 2.07.68 11.73-2.9 19.38-10.8 4.91-23.82 7.98-35.71 5.02-5.8-5.16-3.39-16.49-7.57-16.9-5.73-.57-3 12.72-8.39 15.86-7.66 4.46-17.29 1.73-24.56-2.28-14.59-30.42-3.44-65.2 25.13-82.65 11.87-7.25 24.66-12.02 38.61-14.64l43.56-8.2c1.12 3.84 3.18 5.71 6.34 7.43-6.12 7.22.78 26.05 7.04 33.93.93 1.17 3.8 1.6 4.06 2.68.31 1.27-1.3 3.51-1.32 4.91-.11 8.84 4.98 15.56 8.92 23.36 1.7 3.36.65 10.59-2.44 13.31-11.12 9.77-37.02 20.22-40.47 12.98l-6.29-13.23z"/><path class="cls-1" d="M348.64 660.61c-4.46-4.43 3.1-18.59-2.41-19.64-4.57-.87-5.68 11.61-13.33 15.57-12.97-2.19-24.54-8.49-35.27-15.61-.86-8.04 5.92-17.4 3.09-19.86-1.37-1.19-3.63-.35-4.62 1.32-3.21 3.91-5.88 8.04-10.75 10.89-10.05-2.94-18.97-9.55-25.5-17.69 16.11-25.45 29.77-50.64 41.22-78.19 14.07 4.86 34.62 15.33 43.26 3.84.61 6.04 3.81 9.41 8.97 11.4 14.07 5.43 28.74 8.08 44.5 8.96l-8.29 37.87c-4.99 22.79-10.78 44.51-18.82 66.86-7.44.6-16.66-.37-22.06-5.73z"/><path class="cls-5" d="M484.87 766.96c-3.79-5.35-4.04-11.06-5.44-16.72-.25-1.89-1.63-3.38-3.22-3.32-4.97.2-1.95 12.82-7.69 20.58-14.08 2.63-28.76 1.61-42.16-2.62-4.04-8.86-.03-19.71-4.46-20.41-1.42-.22-3.17.69-3.56 2.66-2.09 5.31-3.32 10.85-7.63 15.34-12.81.68-25.68-3.5-36.87-10.34l10.68-73.74c13.35 4.7 31.83 11.93 39.12.17 1.01 4.76 3.78 7.8 8.39 8.86 12.32 2.83 24.9 3.23 37.44 1.56 5.38-.72 9.11-3.23 11.72-8.82 4.92 11.39 22.17 7.03 35.19 2.98l5.39 77.39c-11.13 5.58-24 7.89-36.91 6.43zm123.2-48.17c-3.2 2.58 3.97 12.74.73 20.16-8.97 8.25-22.22 11.74-34.73 11.27-14.6-24.04-25.98-48.95-35.76-75.71 13.04-.89 30.79-3.67 32.58-15.25 8.93 9.45 33.13-3.95 44.29-11.27 3.98-2.61 6.02-6.23 5.85-11.7 10.19 7.35 25.98-7.39 35.34-16.44 12.96 19.87 25.84 38.08 40.35 56.51-6.71 10.15-15.39 18.88-26.3 23.82-7.67-1.88-12.83-13.02-16.15-10.1-4.14 3.64 5.57 11.77 3.61 19.48-7.23 8.96-33.13 26.69-38.58 19.63l-7.89-10.21c-.66-.86-2.75-.66-3.34-.18zm-312.55 20.14c-1.48-8.55 5.03-17.29 1.92-19.77-1.09-.88-3-.23-4.12 1.18l-7.31 9.16c-5.25 6.57-28.86-10.44-36.94-18.64-.81-8.66 10.36-19.68 4.02-20.34-3.42-.36-8.29 8.98-15.96 10.43-10.34-4.58-18.53-13.09-24.83-22.94 16.16-18.13 30.24-36.64 43.55-55.97 9.44 9.17 24.36 22.13 34.89 16.1.36 4.35 1.71 7.73 5 9.95 11.34 7.67 36.44 21.26 44.8 11.58 2.49 11.4 15.66 12.6 27.05 14.53-10.68 27.17-22.99 52.37-37.71 76.37-12.96.87-24.19-4.31-34.37-11.64z"/><path class="cls-6" d="M798.63 488.05c-5 .17-.18 11.41-4.37 20.42-11.87 5.5-36.59 9.61-36.12-1.86l.83-20.13c.18-4.38-1.77-8.15-5.7-10.75 9.01-7.99 1.63-32.06-5.21-43.95l39.06-16.22c13.18-5.47 27.01-7.03 40.97-5.38 30.78 4.82 47.71 31.37 44.88 64.05-5.73 5.02-12.36 11.27-20.29 10.79-6.07-1.74-7.34-13.07-11.55-12.06-4.68 1.13 1.35 11.83-1.88 19.04-8.54 7.09-19.72 10.6-30.37 11.6-6.33-5.14-5.85-15.69-10.27-15.54zm-681.57 20.46c-5.5-6.3 1.81-21.9-5.59-19.61-2.89.9-4.98 11.88-10.25 14.68-11.25.25-22.42-4.74-31.53-10.76-2.61-8.45 3.55-17.47-.28-19.09-4.61-1.95-7.85 11.51-13.79 11.71-7.81.27-13.97-6.17-19.81-10.48-5.28-34.23 19.76-63.71 54.41-63.32 11.94.14 23.23 1.77 34.58 6.08l43.77 16.62c-7.83 10.47-15.9 34.2-7.69 42.07-8.69 5.26-6.58 18.73-5.98 30.45.23 4.48-4.55 7.92-8.98 7.65-9.55-.59-20.25-.66-28.87-6.02z"/><path class="cls-5" d="M177.91 637.17c-1.59-5.01-12.68 6.75-17.94 1.9-7.3-6.73-13.1-17.24-14.27-27.08 1.53-5.01 8.98-6.14 11.08-9.73 4.04-6.91-12.31.89-15.63-2.9-4.96-5.68-7.23-14.33-7.82-21.74s14.96-7.75 10.47-12.31c-2.25-2.29-12.13 2.63-13.92-3.71 20.82-5.31 40.09-10.83 59.73-20.02 2.92 12.29 11.48 35.2 24.03 35.7-2.03 4.27-1.45 8.12.74 11.86 5.53 9.45 17.24 25.72 27.14 26.01.41 3.08 1.3 5.16 2.58 7.87-15.95 18.26-34.96 33.16-55.69 45.86-8-3.89-15.51-10.01-18.14-18.39-1.48-4.73 8.99-9.03 7.64-13.31zm572.07.94c-4.45 3.93-18.04-8.77-17.5-1.84.28 3.56 6.87 6.78 7.12 11.78-2.43 9.11-10.67 15.76-19.27 19.32-18.14-11.78-34.2-24.93-48.18-41.08-2.95-3.4-5.1-8.67-.56-12.38 2.23-1.83 7.23-1.33 10.24-4.43 8.6-8.85 22.55-22.95 18.46-33.22 12.68-1.24 21.87-22.25 25.04-35.03 19.26 8.62 38.76 14.18 58.88 19.05-2.37 7.26-16.58-1.21-14.78 5.27.84 3.02 10.33 4.06 10.43 8.3.2 8.81-4.01 17.31-8.14 24.56-7.74 2.11-14.74-3.54-16.18.1-1.87 4.75 9.49 5.79 10.96 12.71-2.73 9.91-8.67 19.97-16.49 26.87z"/><path class="cls-4" d="M615.32 273.75c-10.05 2.6-9.57-9.41-16.68-17.43 21.89-16.67 30.46-45.26 19.31-71.41l14.82-6.66c4.49-2.02 6.34-6.37 6.55-11.79 10.96 8.82 24.63-4.6 36.27-13.69 13.6 23.12 23.24 47.15 27.85 73.48-8.78 10.5-20.6 18.54-33.6 22.57-7.93-5.27-9.98-18.32-14.45-17.21-5.86 1.45 2.43 15.07-.86 26.05-11.98 7.78-25.46 12.54-39.19 16.1z"/><path class="cls-1" d="M170.43 527.79c2.44-3.34 10.92-4.22 10.51-7.54-.47-3.8-8.8.09-16.13-3.35-2.8-10.31-5.13-22.25-1.7-32.69 1.55-4.7 14.27-1.95 15-5.42 1.04-4.98-8.75-2.63-13.17-8.45-.89-11.82 3.6-23.62 10.5-33.33 26.08 9.16 52.16 16.77 79.81 16.12 2 18.43-5.61 28.06-14.07 42.05-18.97 20.42-43.17 34.47-69.01 44.38-2.21-3.6-4.18-8.41-1.73-11.76zm577.93-11.51c-5.68 3.83-19.64-.66-15.69 5.01 1.9 2.72 8.95 3.37 10.3 7.23 1.11 3.19-.1 7.27-2.67 9.4-36.78-14.51-82.41-42.4-75.78-86.16 26.66.05 51.23-7.23 76.62-16.4 6.17 10.09 10.87 21.82 9.27 33.42-.73 5.28-13.78 4.57-13.74 8.31.05 4.77 10.72 1.64 15.18 6.75 2.09 10.45.25 22.14-3.5 32.44zm-509.05 91.29c-8.5-6.46-16.2-15.39-20.01-25.16-.62-6.47 10.49-10.64 8.79-14.49-.7-1.59-2.75-2.02-4.66-.66-3.21 1.02-8.44 4.5-12.12 2.51-8.03-8.16-12.52-19.65-14.71-31.07 18.92-9.48 35.37-21.14 49.47-35.52 9.86 10.61 26.15 23.87 37.75 17.14.02 6.43 3.72 10.2 9.32 12.98-10.56 24.95-22.51 48.33-36.92 71.06-5.71-6.85-11.39 7.4-16.9 3.21zm434.94-1.78c-6.51 4.67-13.76-11.72-17.63-3.21-13-22.54-24.2-44.91-33.41-69.03 3.74-3.18 5.84-6.47 5.96-11.78 12.46 7.94 30.42-7.76 41.23-19.07 13.46 15.25 29.43 25.96 47.91 35.31-1.52 11.02-7.06 22.21-15.1 29.98-4.68 4.52-16.61-6.75-17.14-.46-.32 3.85 9.98 8.97 8 13.89-3.78 9.39-11.29 18.26-19.82 24.38z"/><path class="cls-4" d="M193.13 818.82c11.84 12.66 38.07-3.22 50.1-14.14 3.75-3.41 4.63-8.01 4.34-12.88 14.94 9.19 33.91-14.06 44.08-27.42 3.16-5.12 4.75-10.45 4.3-16.69 8.81 5.83 18.41 9.36 29.2 10.46-25.94 39.87-66.16 85.55-114.24 93.26-20.47 3.28-40.52-1.45-54.74-16.82 13.74.78 33.81-2.04 36.94-15.77z"/><circle class="cls-2" cx="357.06" cy="209.18" r="50.12"/><path class="cls-4" d="M702.52 815.75c2.05 13.38 23.04 17.29 36.9 17-23.42 21.35-55.71 16.39-82.49 1.77-30.86-16.84-55.66-47.16-74.27-76.98 10.62-.37 19.65-3.3 28.62-8.64.3 5.03 1.31 8.97 3.59 12.95 7.95 12.21 23.56 32.83 38.07 26.94-.85 5.1.18 9.63 4.12 13.04 11.39 9.87 33.84 25.54 45.48 13.93z"/><circle class="cls-2" cx="565.32" cy="209" r="49.96"/><path class="cls-4" d="M858.94 671.78c4.42 9.19 15.26 8.83 26.02 7.17-35.94 45.23-114.15 21.6-157.38-6.97 8.68-5.57 20.9-16.87 17.97-26.26 3.37.43 6.06-.37 9.32-2.46.55 4.85 2.35 8.33 5.71 11.09 11.89 9.78 38.18 23.1 47.31 10.44 1.48 4.53 3.85 7.42 7.75 9.08 12.7 5.42 36.95 10.47 43.3-2.09zm-837.2 7.59c9.95 1.47 21.06 1.92 26.24-7.07 4.8 12.78 30.3 7.87 43.18 2.63 4.05-1.65 6.55-4.56 7.88-9.29 9.16 12.96 35.62-.08 48.39-9.29 4.03-2.91 6.26-6.97 7.32-12.03 2.68 1.75 5.15 2.71 8.88 2.89-2.51 10.28 7.95 18.69 17.11 26.23-43.11 25.46-124.49 53.18-158.99 5.94zm734.01-162.96c7.99 7.77 27.24 4.04 37.92.03 4.65-1.74 7.3-5.13 8.28-10.65 6.98 10.47 29.14.35 39.38-6.23 3.45-2.22 5.04-5.61 5.37-9.92 3.75 2.83 7.36 3.24 11.27 2.31l12.29-5.63c-15.23 46.55-79.93 60.89-122.51 54.84 2.13-6.41 3.69-11.81.22-17.43 3.92-1.34 5.92-3.81 7.77-7.33zM39.59 487.99c-.86-.68.21-1.66.82-.77-.03.3.27.5.31.45 6.44 3.73 13.87 7.36 21.52 2.71.49 4.4 2.44 7.9 6.47 10.28 11.07 6.54 32.95 15.41 40.17 5.74.76 5.16 3.29 8.47 7.65 10.1 11.36 4.26 33.58 8.79 40.87.13 1.32 4.24 3.87 6.6 7.78 7.84-4.06 5.43-2.75 11.05.21 17.47-43.22 4.54-107.52-11.7-125.62-53.47.07-.3-.1-.43-.19-.48zm406.47 388.04c10.77 7.73 29.97-4.16 40.2-13.46 3.63-3.3 5.55-7.26 5.8-12.67 9.28 5.06 19.35-1.48 27.78-8.42-3.28 14.34-8.91 27.15-17.98 38.19-20.62 25.11-55.79 32.73-84.65 16.22 8.3-1.57 15.67-3.28 21.74-8.35 3.65-2.65 5.86-5.78 7.11-11.5z"/><circle class="cls-3" cx="358.32" cy="211.16" r="32.59"/><circle class="cls-3" cx="564.2" cy="210.99" r="32.51"/><circle class="cls-2" cx="346.72" cy="200.07" r="9.81"/><circle class="cls-2" cx="552.14" cy="200.34" r="9.74"/><path class="cls-3" d="M489.4 270.87c-14.59 12.95-36.85 13.4-51.45.47-5.23-4.63-11.55-13.32-6.44-16.33 6.13-3.61 4.71 7.95 17.33 14.72 14.74 7.9 33.47 2.29 41.42-12.41 1.22-2.26 3.02-3.2 5.02-2.43 6.01 2.3-.78 11.44-5.89 15.98z"/></g></svg>