<svg id="Layer_2" data-name="Layer 2" xmlns="http://www.w3.org/2000/svg" viewBox="0 0 766.92 675.53"><defs><style>.cls-2{fill:#c8b9fb}.cls-4{fill:#dfd6fa}.cls-6{fill:#9d7af3}</style></defs><g id="Layer_1-2" data-name="Layer 1"><path d="M742.73 219.22l-16.08-81.85c3.36-4.86 6.74-9.83 5.68-15.85l-16.6-93.59C712.56 10.07 697.52-.68 679.54.02L483.86 7.61 219.09 20.66c-11.22.55-22.93 1.8-31.91 9.09L14.19 170.05C4.14 178.2-1.14 189.97.21 202.79l10.56 100.09c.76 7.19 5.29 12.35 12.08 14.82l7.63 85.77c.65 7.27 5.2 12.11 11.47 14.93l7.46 86.67c.63 7.28 5.57 12.23 11.81 14.9l9.55 91.87c.76 7.36 6.69 12.17 12.81 14.5l3.1 18.43c2.79 16.56 17.03 29.56 34.85 29.67l133.13.84 313.96.25c15.59.01 33.06-5.33 43.74-16.76l136.52-146.1c10.47-11.2 17.5-24.31 15.58-39.98l-2.81-23c3.45-5.1 6.24-11.26 4.94-17.83l-17.24-87.38c4.57-6.59 5.95-13.75 4.37-21.73l-16.01-80.88c5.33-6.76 6.68-14.22 5.02-22.63z" fill="#2e0b5e"/><path class="cls-4" d="M431.5 587.69l.06 16.26c.02 5.91-3.91 10.03-9.99 11.14-15.08 2.75-30.73 2.43-45.91.12-7.36-1.12-12.75-6.01-14.48-13.03l-3.56-14.37c-.48-1.94-2.31-3.02-3.91-2.83s-3.03 1.7-3.02 3.71l.13 16.45c.05 5.62-4.18 10.19-10.27 11.16-16.67 2.65-34.01 2.58-50.52-.44-6.86-1.25-11.84-5.89-13.47-12.15l-4.08-15.62c-.5-1.91-2.04-2.99-3.63-2.95-1.95.05-3.41 1.62-3.38 3.91l.24 14.8c.09 5.71-2.99 10.87-9.1 12.01-15.09 2.83-30.64 2.94-45.67.11-6.13-1.15-11.42-4.83-12.93-10.7l-4.44-17.25c-.42-1.63-2.17-2.35-3.33-2.32-1.6.05-3.22 1.21-3.19 3.22l.28 16.42c.09 5.58-3.64 10-9.41 10.98-12.92 2.2-26.21 2.06-39.09-.22-6.05-1.07-10.79-5-12.18-10.82l-3.81-15.99c-.46-1.91-1.95-2.76-3.49-2.82-1.66-.07-3.44 1.32-3.36 3.5l.62 16.63c.18 4.79-2.67 8.98-7.58 10.06-11.34 2.51-27.35 3.1-28.38-7.18l-8.78-88.22c13.22-.81 26.02-.11 33.75-10.17 11.29 11.48 41.19 9.87 57.02 7.21 6.4-1.08 11.73-3.96 15.6-9.31 12.38 13.76 48.86 11.57 66.93 7.84 5.95-1.23 10.58-4.64 14.22-9.59 5.17 5.46 11.69 8.7 19.23 9.62 16.31 1.98 32.75 1.86 49.04-.76 6.4-1.03 11.81-3.99 15.88-9.19 12.8 12.72 46.32 11.16 64.78 7.93 6.16-1.08 10.94-4.4 14.97-9.17 5 4.8 10.44 7.47 16.97 8.31 17.77 2.29 55.53 3.98 64.24-10.53 4.97 5.02 10.72 7.88 17.45 8.97 14.42 2.14 31.26 3.64 44.68-1.87 2.28 32.15 6.8 63.07 11.06 94.69 1.63 12.06-27.86 10.15-41.26 7.18-6.75-1.5-11.59-5.79-13.29-12.34l-3.84-14.89c-.52-2.01-2.41-3.08-3.97-2.75-1.7.36-2.92 1.94-2.88 3.99l.31 15.03c.13 6.24-4.3 10.94-10.79 12.18-15.65 2.98-32.06 2.95-47.69-.03-6.63-1.27-11.11-6.21-12.59-12.28l-3.51-14.38c-.43-1.74-1.96-2.8-3.37-2.77-1.68.04-3.28 1.44-3.27 3.52z"/><path class="cls-2" d="M416.28 478.1l.2 15.86c.08 6.35-3.95 10.73-10.4 11.79-15 2.45-30.36 2.45-45.42.05-6.06-.96-11.37-4.85-12.85-10.6l-4.09-15.88c-.59-2.29-2.12-3.38-4.14-3.14s-3.05 1.79-3 4.17l.26 14.19c.13 6.76-4.29 11.58-11.27 12.6-15.89 2.32-32.17 2.48-47.99.14-7.58-1.12-12.87-6.29-14.63-13.33l-3.6-14.44c-.4-1.62-1.81-2.5-3.01-2.73-1.38-.26-3.74.53-3.75 2.42l-.06 16.92c-.02 6.06-3.95 10.66-10.12 11.81-16.62 3.1-55.99 5.62-60.01-9.78l-4.55-17.44c-.5-1.92-1.86-2.91-3.44-2.89-1.96.02-3.43 1.42-3.38 3.72l.31 16.39c.11 5.8-3.88 10.24-9.91 11.21-15.08 2.42-48.34 4.43-51.86-9.15l-4.68-18.07c-.44-1.71-2.26-2.61-3.62-2.46s-2.86 1.51-2.84 3.3l.19 18.65c.11 10.24-17.29 10.92-29.37 10.29-6.45-.34-9.78-4.38-10.28-10.5l-6.58-81.82 21.65-1.84c5.81-.5 10.3-4.15 13.95-8.78 10.49 11.68 41.85 9.67 57.87 6.99 6.66-1.12 12.08-4.32 16.35-9.58 11.91 13.73 47.63 11.21 65.81 7.95 7.02-1.26 12.63-5.04 16.53-10.49 5.46 5.47 11.95 8.49 19.52 9.47 16.31 2.12 32.82 1.75 49.06-1.04 6.74-1.16 12.26-4.61 16.11-9.81 5.05 4.88 10.92 7.76 17.78 8.65 17.38 2.24 52.03 3.56 61.19-10.33 4.68 4.18 9.94 7.19 16.37 8.1 16.26 2.28 32.75 2.13 48.99-.67 6.99-1.21 12.79-4.71 16.92-10.05 11.39 12.28 31.93 10.77 48.74 10.22 4.84-.3 9.11-1.6 13.55-3.49l10.31 87.41c.37 3.1 1.32 5.42-.52 8.12-4.82 7.06-29.92 5.16-41.59 2.52-6.82-1.54-11.28-6.09-12.93-12.65l-3.8-15.06c-.41-1.62-2.34-2.31-3.41-2.28-1.64.05-3.26 1.29-3.23 3.3l.22 16.39c.08 5.9-4.47 10.41-10.56 11.52-15.57 2.83-31.73 3.01-47.36.57-5.87-.92-11.19-4.6-12.62-10.01l-4.57-17.33c-.41-1.55-1.89-2.32-3.08-2.4-1.41-.1-3.4 1.09-3.37 3.3z"/><path class="cls-4" d="M408.1 372.78c-.5-1.87-2.06-2.81-3.63-2.68-1.88.15-3.11 1.62-3.07 3.89l.22 15.58c.07 5.39-3.78 9.79-9.53 10.97-15.26 3.13-31.28 3.4-46.54.53-6.1-1.15-10.82-5.04-12.29-10.68l-4.1-15.76c-.5-1.91-1.73-3.09-3.29-3.17-1.8-.1-3.73 1.16-3.69 3.37l.3 15.77c.13 6.69-4.38 11.47-11.34 12.54-15.82 2.43-32.12 2.54-47.95.37-7.94-1.09-13.47-6.47-15.29-13.84l-3.55-14.36c-.5-2.02-2.3-2.95-3.91-2.74-1.72.22-3.11 1.56-3.07 3.67l.33 14.87c.15 6.93-3.69 12.34-10.9 13.75-15.26 3-31.17 3.15-46.65.81-6.17-.94-12.2-4.5-13.84-10.33l-5.17-18.47c-.39-1.41-2.55-1.88-3.51-1.75-1.31.17-2.77 1.6-2.73 3.44l.3 16.29c.11 5.95-3.55 10.43-9.74 11.59-15.02 2.81-49.87 5.3-53.39-8.33l-4.7-18.16c-.46-1.77-2.2-2.58-3.69-2.35-1.36.2-2.83 1.63-2.8 3.42l.31 17.13c.09 5.01-2.72 8.89-7.76 10.01-8.23 1.83-16.65 2.34-25.15 1.74-4.06-.29-7.45-3.37-7.82-7.66l-7.24-83.57c13.7-.8 29.35 0 37.71-11.24 11.06 11.53 43.01 9.89 59.47 6.68 6.6-1.29 11.89-4.4 16.26-10.37 14.36 14.32 43.55 11.19 64.25 9.45l1.97 12.62c.42 2.71 2.51 6.95 5.55 7.68 9.61 2.29 19.57-1.26 26.73-7.95 8.63 8.45 23.63 7.57 35.78 5.27 5.55-1.05 10.03-3.74 13.54-7.81 8.63 7.82 20.59 11.01 31.74 7.83 4.93-1.41 6.52-7.11 6.01-11.59l-1.17-10.3c19.89.33 51.62 2.18 61.4-12.4 11.58 13.74 49.53 11.08 67.04 7.9 7.28-1.32 13.29-4.84 17.41-10.43 6.24 6.77 14.56 9.43 23.4 10.24 12.93 1.19 25.85 2.03 38.88-2.62 2.87 28.33 5.71 56.61 10.39 85.25.48 2.91.59 5.16-.76 7.55-1.06 1.88-3.73 3.57-6.65 3.96-14.72 1.96-43.66 2.65-47.17-10.72l-4.58-17.42c-.57-2.18-2.13-3.23-4.02-2.91s-3.06 1.72-3.03 3.91l.27 15.91c.1 6.04-4.44 10.28-10.6 11.49-15.76 3.1-32.08 2.97-48.01.65-5.61-.82-10.96-4.15-12.37-9.38l-4.58-17.11z"/><path class="cls-6" d="M539.08 159.1c-5.75 5.31-10.04 9.75-14.55 15.5-.38.48-.95.78-1.56.79l-200.32 6.06c-1.89.06-2.86-2.24-1.5-3.56l93.82-90.54 75.99-69.72c.36-.33.83-.52 1.32-.54l186.38-7c5.39-.2 10.2.13 14.73 2.67 1.22.68 1.4 2.37.38 3.32l-154.69 143z"/><path class="cls-2" d="M292.83 310.91c-5.22.54-2.37 12.02-28.45 11.52-15.32-.29-14.95-9.51-20.39-9.44-4.52.06-5.95 8.18-14.27 10.46-3.58.98-7.2-1.43-7.68-5.11L206.9 200.68c-.69-5.39 0-9.99 2.38-14.51.3-.57.71-1.08 1.18-1.52l88.55-82.95 79.43-73.01a27.706 27.706 0 0117.6-7.28l62.56-2.59c5.68-.23 8.57 6.73 4.39 10.59l-71.62 66.07-79.38 76.73c-.24.23-.47.49-.67.76-4.55 6.11-6.6 13.46-5.59 21.41l15.36 120.92c.51 4.01-2.94 7.36-6.94 6.81-12.71-1.75-15.62-11.79-21.34-11.2z"/><path class="cls-6" d="M193.44 187.66l-173.49 7.46c-5.14.22-8.55-5.35-5.93-9.79 1.54-2.6 3.64-4.91 6.1-6.91l169.8-138.15c8.22-6.75 17.02-9.34 27.54-9.87l134.08-6.77c6.08-.31 9.23 7.15 4.77 11.29L207.82 172.93c-3.64 3.38-6.62 6.13-8.64 10.72-1.02 2.32-3.21 3.9-5.74 4.01zm276.34 97.13c.1 15.39-42.81 13.6-59.59 11.1-5.29-.79-11.36-3.58-12.78-8.57l-5.3-18.6c-.55-1.92-2.2-2.71-3.7-2.57-2.13.19-3.05 1.78-3.05 4.12v17.11c0 .52-.06 1.04-.22 1.52-1.56 4.58-5.59 7.4-10.43 8.57-.15.04-.29.07-.44.09-13.32 2.31-26.65 3.13-40.31 2.29a5.155 5.155 0 01-4.8-4.48l-12.46-95.31a5.15 5.15 0 014.87-5.81l198.01-8.83c6.93.06 6.44 7.72 6.61 9.53 2.65 29.51 5.47 58.5 9.78 87.84.43 2.96 1.27 5.17-.24 7.81-4.17 7.32-30.12 5.8-41.77 3.1-7.29-1.69-11.98-6.77-13.74-13.76l-3.61-14.33c-.47-1.87-2.43-2.5-3.8-2.4-1.98.14-3.13 1.7-3.12 3.99l.11 17.59z"/><path d="M646.76 204.82c-7.49 7.8-20.37 23.4-23.73 13.42l-4.22-12.54c-.6-1.78-1.82-2.73-3.51-2.66-1.42.05-2.98 1.87-2.82 3.87l1.31 16.91c.4 5.15 0 10.13-3.1 14.32-6.99 9.45-22.87 27.13-26.25 17.2l-4.29-12.58c-.59-1.72-2.33-2.8-3.59-2.57-6.32 1.19.73 18.18-2.01 28.29-4.03 14.83-27.34 28.31-28.57 17.47-3.52-30.99-6.41-65.55-12.09-96.57-.7-3.84.65-7.75 3.54-10.36s5.17-4.29 8.71-8.26c.22-.24.45-.49.69-.71l142.1-133.8c6.48-6.1 17.14-2.61 18.75 6.14l14.85 80.35c.99 5.37-4.13 9.53-7.18 13.09-.35.41-.73.79-1.12 1.16-.04.04-.08.07-.12.11-6.09 5.77-16.01 3.28-18.57-4.71-.82-2.55-1.73-4.46-3.31-4.58-2.66-.2-3.69 1.53-3.57 3.98l1.12 22.45c.07 1.36-.09 2.73-.53 4.02-3.38 9.88-12.76 17.46-20.34 23.97-2.45 2.1-5.73-.27-6.36-2.12l-4.29-12.61c-.54-1.6-1.88-2.78-3.34-2.77-1.05 0-3.03 1.33-2.91 3l1.13 16c.58 8.18-.77 15.25-6.39 21.1z" fill="#a688f6"/><path class="cls-6" d="M438.32 614.83c11.94 12.99 45.93 11.28 63.25 8.49 7.3-1.18 13.4-4.36 17.84-10.29 5.39 5.49 11.43 8.28 18.5 9.26l21.26 1.43c7.25.49 13.78-.73 21.05-3.41l2.44 30.27c.58 7.13-3.56 15.1-11.76 15.08l-305.87-.49-143.28-.7c-14.06-.07-24.09-11.57-25.8-24.37l-1.71-12.81c11.83-.15 23.4-.18 28.99-9.68 4.3 4.43 9.35 6.85 15.3 7.8 16.23 2.59 47.13 4.27 55.52-8.81 11.42 13.19 45.72 11.96 63.13 8.76 6.4-1.18 11.61-4.18 15.39-9.59 4.69 5.1 10.62 8.58 17.61 9.68 18.25 2.87 58.37 5.92 67.45-9.66 12.16 13.29 46.66 11.59 64.98 8.5 6.53-1.1 11.84-4.07 15.72-9.46zm-308.66-310.2c-14.64 3.1-29.68 3.05-43.95.54-6.24-1.1-10.32-5.55-11.76-11.23l-4-15.81c-.39-1.55-2.13-2.17-3.17-2.25-1.51-.11-3.28.93-3.24 2.85l.31 17.95c.22 12.8-19.08 12.53-33.46 12.51-.18 0-.36 0-.53-.02-6.13-.56-8.77-4.38-9.36-10.2l-8.71-85.53a5.456 5.456 0 015.2-6.01l174.64-7.49c2.84-.12 5.3 1.96 5.66 4.78l11.77 93.6c.38 3-1.75 5.72-4.75 6.11-12.87 1.69-25.96 1.15-38.74-.7a6.57 6.57 0 01-.77-.16c-6.49-1.85-12.11-5.25-14.17-11.68l-4.28-16.5c-.52-2.02-2.05-2.94-3.7-2.8-2.07.17-3.29 1.72-3.22 4.12l.41 14.96c.16 5.97-3.36 11.52-10.17 12.96z"/><path class="cls-4" d="M648.35 557.37c-7.17 8.18-19.69 23.85-22.95 14.47l-4.31-12.42c-.61-1.77-1.9-2.87-3.47-2.68s-2.83 1.57-2.76 3.41l.92 24.15c-3.11 15.24-27.33 31.59-28.72 19.89-3.82-32.33-7.77-63.84-13.48-95.59 10 1.17 17.12-3.89 23.68-9.97 6.57-6.09 12.53-12.63 13.85-22.03 4.31-.15 8.26-.04 11.72-2.42 10.23-7.02 25.96-22.9 26.8-35.32 5.31.31 9.72-.97 13.56-4.02 10.72-8.51 23.2-21.63 26.11-34.91 13.04-.84 21.58-13.7 30.24-24.5 2.48-4.05 4.13-8.02 4.47-13.28 7.03.12 11.84-2.75 16.95-8.66l16.58 82.52c-2.67 9.11-9.33 17.05-17.4 21.88-7.19-5.73-5.4-18.65-10.84-17.86-6.32.92 1.21 19.69-1.29 28.63-2.86 10.25-12 18.14-19.16 25.44-2.01 2.05-5.46.15-6.06-1.54l-4.65-13.08c-.59-1.65-2.08-2.32-3.39-2.16-1.69.21-2.97 1.54-2.8 3.62l1.42 16.79c.48 5.74.04 11.23-3.35 15.94-6.84 9.5-23.16 29.08-26.6 18.86l-4.22-12.54c-.49-1.46-1.93-2.21-3.08-2.22s-3.14 1.27-3.02 2.99l1.47 22.77c.34 5.31-2.87 10-6.22 13.82zm-21.28-229.43c.37 5.38-.32 10.24-3.62 14.47-7.16 9.18-22.28 26.01-25.69 16.14l-4.52-13.05c-.53-1.52-2.11-2.25-3.28-2.09-1.3.17-2.65 1.23-2.61 2.9l.59 25.36c-3.35 12.88-27.41 30.74-29.01 15.76-3.14-29.52-7.3-58.11-12.26-87.76 16.25 1.65 34.73-16.74 37.7-31.65 5.69.61 10.09-.84 13.98-3.91 9.74-7.67 23.21-21.01 24.66-32.84 5.24.38 10.04-.81 13.99-3.94 10.46-8.28 24.16-21.61 25.47-34.58 6.24.23 11.53-1.53 15.54-5.76l13.95-14.73c4.21-4.45 6.54-9.92 7.19-16.69 7.79.64 13.05-3.24 18.99-9.04l15.23 76.59c.44 3.53.57 7.24-1.44 10.1-6.4 9.15-17.64 21.48-20.75 12.27l-4.24-12.52c-.49-1.44-2.03-2.05-3.2-2.03s-2.87 1.45-2.72 3.16l1.62 18.43c.42 4.74-.1 9.21-2.89 13.23-6.61 9.53-21.02 26.49-24.47 16.25l-4.01-11.92c-.57-1.69-1.63-2.78-2.95-2.81-1.79-.04-3.55 1.33-3.39 3.38l1.61 20.63c.36 4.64-1.4 9.24-4.19 12.97-6.86 9.18-22.67 27.09-26.06 17.29l-4.54-13.11c-.49-1.42-1.88-2.21-3.06-2.18-1.06.02-3.02 1.37-2.91 3.02l1.29 18.65z"/><path class="cls-2" d="M744.52 327.65l-13.09-65.39-2.51-11.47c-4.81 5.31-9.78 8.6-17.04 7.81-1.28 11.78-13.23 24.32-22.57 32.29-3.8 3.24-8.22 4.78-13.74 4.18-1.2 13.06-16.29 28.08-27 36.3-3.54 2.71-7.77 3.5-12.44 2.96-.95 11.76-15.6 26.57-25.37 33.75-3.98 2.93-8.28 3.7-13.42 3.33-2.34 14.77-23.02 34.21-37.56 31.26l2.07 10.38 10.72 79.77c.27 2.04.51 3.59 1.61 4.68 6.23 6.15 24.99-9.37 27.5-20.78l-.77-24.79c-.05-1.65.76-2.87 2.06-3.36 1.36-.52 3.2.1 3.82 1.93l4.48 13.15c3.44 10.09 18.13-6.69 25.32-15.96 3.11-4 4.47-8.78 4.1-14l-1.38-19.58c-.13-1.87 1.61-3.2 3.01-3.22 1.71-.02 2.75 1.11 3.37 2.97l4 12.01c3.42 10.28 19.49-8.59 26.59-18.01 3.33-4.42 4.05-9.58 3.61-15.06l-1.48-18.11c-.13-1.64 1.61-2.91 2.66-3.14 1.87-.41 3.05.76 3.7 2.75l3.9 11.98c3.08 9.45 15.98-5.68 22.66-14.88 3.33-4.59 4.27-9.85 3.84-15.53l-1.36-18.05c-.12-1.59 1.52-2.81 2.63-2.84 5.37-.13 3.82 13.03 9.87 16.67 4.5 1.43 8.56-5.16 11.28-7.92 4.42-4.49 8.21-9.75 6.94-16.08z"/><path class="cls-6" d="M625.24 584.4c11.73 2.31 24.23-13.91 32.55-24.42 3.19-4.03 4.63-9.58 5.95-13.89 4.79-.79 10.28-1.2 13.8-5.01l17.92-19.39c4.15-4.49 6.08-10.21 7-16.6 12.49.05 17.58-9.36 25.45-17.98 5.15-5.64 8.33-12.38 9.79-19.43 5.13-.73 10.84-2.12 14.88-7.57 3.2 13.16 4.09 29-6.01 39.86l-139.16 149.5c-4.97 5.34-10.52 8.58-17.16 11.23 1.92-4.77 2.89-9.33 2.13-14.36l-4.31-28.49c9.23.81 15.93-3.67 22.12-9.41 7.15-6.64 13.78-13.91 15.05-24.03z"/><path d="M97.36 158.78c1.7 3.75 10.3 3.69 10.03 7.73-.6 8.73-29.25 8.79-42.58 8.01-2.83-.16-5.05-2.97-5.04-5.12 0-1.81.69-5.29 2.79-7.1 20.74-17.81 42.56-34.26 65.1-50.03 5.43-3.8 12.2-5.97 14.75-1.97 4.37 6.86-31.35 29.68-43.81 42.93-1.44 1.53-2 3.85-1.24 5.55z" fill="#f0f0ef"/></g></svg>