<svg id="Layer_2" data-name="Layer 2" xmlns="http://www.w3.org/2000/svg" viewBox="0 0 1092.3 736.32"><defs><style>.cls-2{fill:#c8b9fb}.cls-5{fill:#ddd3fa}.cls-7{fill:#fdfcfc}.cls-10{fill:#dfd6fa}.cls-13{fill:#9d7af3}</style></defs><g id="Layer_1-2" data-name="Layer 1"><path d="M5.95 331.39C1.41 322.64.03 314.91 0 305.4c-.16-47.82 13.32-94.08 36.34-135.95 23.1-42.01 53.42-78.9 91.32-108.2C199.64 5.62 301.06-9.58 379.38 5.47c127.56 24.52 184.81 72.6 228.37 130.69 16.72 22.29 34.09 52.92 48.84 76.56 33.99 54.47 64.55 114.45 132.02 125.47 12.95 2.12 24.6 1.43 36.68-3.61 14.88-6.2 28-15.46 39.84-27.29-25.15-18.19-46.63-39.23-63.89-64.29-8.05-1.08-13.22-5.64-17.52-12.08-14.16-21.21-21.84-45.45-25.01-71.22-14.87-5.43-12.57-24.2-11.97-40.67-15.46-7.06-9.48-31.53-2.09-46.72 4.12-8.46 12.23-13.07 21.95-12.63 27.02 1.24 53.2 6.51 79.02 14.71 28.23 9.78 53.88 23 68.02 49.81 28.62-43.65 93.18-64.64 141.93-68.06 10.02-.7 20.03 2.03 25.79 9.71 9.97 13.29 15.37 37.7 6.3 51.34l1.97 19.65c.68 6.8-3.02 12.34-8.95 15.66-2.91 25.64-10.26 50.08-24.48 71.22-4.39 6.52-9.85 10.61-17.47 11.95-15.53 26.47-36.33 48.06-61.44 66.35l4.25 39.76c.73 6.83-2.17 12.5-7.16 17 .81 22.35.68 43.83-2.34 65.44-1.04 7.43-4.73 13.07-10.87 16.99-6 27.58-14.63 53.58-27.54 78.27-3.3 6.31-7.34 10.79-13.75 13.93-52.99 99.27-138.71 154.46-249.18 171.64-12.97 7.58-28.53 14.96-40.66 4.96-1.49 6.77-5.27 11.56-11.39 13.8-11.43 4.18-23.34 6.61-35.53 7.28-6.36.35-11.37-2.42-15.48-7-15.25 27.93-64.4 1.36-86.95-14l-37.72-1.77c-24.53-1.15-47.36-6.97-70.51-14.29C231.2 679.51 99.17 589.94 36.89 462.64 16.83 421.65 5.93 377.72 5.95 331.38z" fill="#260a5d"/><path class="cls-10" d="M278.46 662.2c-2.03-1.8-3.97-3.74-5.35-6.09-12.07-20.67-22.26-47.01-30.43-69.64a610.355 610.355 0 01-29.66-117.78c-3.53-23.86-7.04-51.92-6.21-75.89.09-2.73.89-5.37 1.82-7.92 12.19-2.7 23.91-7.81 34.22-15.15 8.09 6.08 18.18 10.91 19.88 4.3 2.06-7.99-12.52-4.64-23.52-23.75-.82-1.43-4.51-2.3-6-1.71s-3.29 4.09-2.67 5.63c1.23 3.06 2.67 4.97 5.06 8.3-8.62 5.68-18.37 9.77-28.91 12.42-52.72 13.23-109.95 1.51-157.29-24.23-11.53-6.27-21.64-13.62-30.69-22.66-6.42-6.41-8.64-13.81-8.6-22.96.18-41.18 10.58-81.46 29.29-118.62 11.19 8.14 21.83 15.05 33.47 20.78 5.73 2.83 11.8 2.31 17.5-1.58-.55 6.94 2.41 12.28 8.32 15.77 14.75 8.69 30.18 16.25 46.29 22.1 6.09 2.21 11.95.17 16.86-4.32.29 6.41 3.4 11.63 9.23 14.24 15.67 7.04 31.53 13.23 47.89 18.77 6.79 2.3 13.3-.2 17.66-5.19.99 6.73 4.28 11.87 10.22 14.32 13 5.37 26.05 9.64 40.03 13.33-5.07 33.96 16.38 65.34 49.15 72.53 32.71 7.18 64.83-12.52 74.42-44.9l19.91 2.09c5.95.62 10.5-3.43 13.76-8.14 2.37 6.27 6.8 9.93 12.97 10.81 12.89 1.84 25.77 2.78 38.68 2.5 6.04-.13 10.42-3.69 13.59-8.96 2.14 5.69 7.08 9.81 13.5 10.2 14.16.84 28.22.49 42.22-.94 6.55-.67 11.22-4.64 13.74-11.29 3.6 6 9.48 9.24 16.57 8.69 12.94-.99 25.56-2.89 38.02-6.19 6.73-1.78 11.28-6.37 12.59-13.25 4.24 4.68 8.99 7.14 14.67 6.4 14.22-1.85 27.62-6.67 39.94-14.18 28.38 28.92 60.7 47.6 101.42 49.55 4.36 26.97-38.34 61.42-49.06 45.58l-11.19-16.53c-.74-1.1-3.84-1.76-5.03-.93-1.07.75-1.54 3.25-1.14 4.72l4.3 15.98c1.57 5.85-2.95 10.5-8.27 12.38-12.31 4.33-24.62 7.3-37.63 9.28-4.33.66-9.18-1.39-10.92-5.4l-8.12-18.76c-.84-1.94-2.6-3.48-4.76-3.36-8.59.48 8.89 29.95-9.44 34.76-13.82 3.62-27.52 5.94-41.83 7.08-5.14.41-9.78-2.17-11.2-7.02l-5.72-19.63c-.52-1.79-2.94-3.7-4.52-3.4-8.14 1.54 4.72 31.53-14.11 34.23-14.03 2.01-27.84 2.74-42.19 2.2-4.07-.15-8-3.48-8.68-7.22l-3.8-21.13c-.4-2.24-2.48-4.08-4.58-3.6-1.69.39-2.89 2.71-3.12 4.66l-2.17 18.56c-.73 6.22-5.87 9.81-11.88 10.06-13.62.55-26.96.32-40.59-1.01-17.25-1.69-7.28-32.2-15.32-33.66-8.58-1.55-2.09 32.53-19.63 32.57-14.29.03-28.18-1.42-42.22-4-5.22-.96-9.5-4.57-9.46-10.06l.13-18.27c.02-2.2-1.72-4.44-3.88-4.45-7.54-.02-3.44 31.36-23.11 29.69-23.04-1.95-44.85-7.61-66.76-14.98-2.55-.86-6.12.84-6.48 3.74-3.68 29.94-5.2 59.69-1.97 89.5.88 8.09 4.64 14.14 11.42 17.8.74 26.13 3.75 51.33 13.15 75.04 3.64 9.17 8.68 16.18 17.69 19.71 8.39 22.39 20.71 41.76 37.47 58.4-27.76-4.02-53.77-10.45-78.94-19.9z"/><path class="cls-2" d="M571.83 310.84c.28 6.39-4.3 10.15-9.8 10.63-12.73 1.1-25.05 1.45-37.95.78-3.92-.2-7.54-3.65-8.1-7.35l-3.48-23.06c-.19-1.27-2.41-3.27-3.67-3.3-1.73-.04-3.41 2.09-3.63 4.13l-2.34 21.46c-.46 4.24-4.62 7.15-8.59 6.89l-35.05-2.3c-3.93-.26-7.42-3.59-7.49-7.54l-.4-22.76c-.04-1.97-.88-4.18-2.57-4.81-1.84-.69-4.33 1.01-4.83 3.02l-5.46 21.92c-.86 3.45-4.67 7.19-8.21 6.86l-17.97-1.67c4.96-33.56-15.97-64.71-48.44-71.99-32.11-7.2-64.95 11.56-75.09 44.21-12.91-3.24-25.3-7.44-37.57-12.42-4.69-1.9-5.97-6.01-6.32-10.86l4.6-19.52c.46-1.95-.5-4.23-2.48-5.06-6.99-2.92-12.1 30.9-25.71 25.61l-43.96-17.11c-4.6-1.79-8.33-5.92-6.81-11.11l5.39-18.4c.56-1.92.25-4.56-1.34-5.28s-4.24.2-5.21 1.69l-11.22 17.29c-2.4 3.7-7.49 5.6-11.76 3.88A340.246 340.246 0 01104 214.19c-4.32-2.47-6.66-7.42-4.53-12.2l6.67-14.98c.78-1.76.96-4.5-.21-5.39-1.62-1.22-4.53-.8-5.69.58L87.4 197.38c-3.15 2.09-7.27 3.61-10.91 1.69-11.52-6.08-22.52-12.55-32.66-21.14 17.18-32.89 38.74-61.55 64.99-86.6 14.47 9.61 30.36 24.27 42.8 13.2-.53 6.78 2.16 12.14 7.9 15.17 14.11 7.45 28.66 13.9 43.79 19.17 6.44 2.25 12.68.44 17.64-4.14.89 6.21 3.45 11.15 8.89 13.7 15.99 7.51 32.48 13.74 49.59 18.59 6.4 1.81 12.09-.71 17.11-5.16.93 6.56 4.4 11.54 10.38 13.67 15.07 5.39 30.26 9.82 46.04 12.92 6.68 1.31 12.3-1.6 16.24-7.21 1.71 7.01 5.71 11.75 12.17 13.41 14.27 3.67 28.56 6.41 43.19 8.06 6.62.75 12.1-2.63 15.32-8.28 2.17 7.15 6.84 11.33 13.74 12.57 14.13 2.55 28.37 3.84 42.7 3.97 6.1.05 10.69-3.11 14.03-8.98 2.83 5.85 7.33 10.16 14.23 10.77 11.98 1.06 23.86 1.15 35.73.19 6.46-.52 11.39-4.06 14.22-10.39 2.71 4.56 7.13 7.39 12.59 7.37 14.99-.06 29.56-3.16 43.78-7.66l24.62 38.65c11.75 18.45 24.41 35.3 38.93 52.45-10.17 6.16-21.48 9.91-33.23 12-4.18.74-7.4-1.49-9.97-4.61l-9.48-20.27c-.58-1.24-2.99-2.87-4.27-2.7-1.74.24-3.29 2.87-2.94 4.73l3.72 19.86c.97 5.16-2.89 9.31-7.63 10.47-11.7 2.87-23.24 4.63-35.3 5.69-4.72.42-9.11-2.29-10.48-6.74l-6.59-21.55c-.47-1.54-2.91-3.19-4.64-2.98-1.37.17-2.73 2.7-2.65 4.37l.85 19.19zm1.76 226.55c-4.71 5-13.79 3.95-19.59 3.61-9.87-14.08-19.28-26.5-32.2-36.92-22.32-17.99-50.69-26.58-78.63-20.68-27.97 5.9-48.56 26.93-52.74 55.79l-19.36-2.96c-3.14-.48-6.5-4.38-6.62-7.59l-.75-19.44c-.08-2.14-1.1-4.2-3.11-4.54-1.88-.31-3.78 1.39-4.36 3.38l-5.19 17.64c-1.55 5.27-6.91 7.55-12.19 6.79-14.31-2.04-28.12-5.25-41.59-9.93-7.01-2.42-9.83-7.74-10.53-14.93-2.57-26.3-1.14-52.41 1.55-79.39 21.7 6.82 43.23 11.88 65.58 13.36 7.93.53 14.56-2.79 18.71-9.99 1.36 5.86 5.71 10.78 12.12 12.13 15.71 3.33 31.63 5.05 47.61 4.87 7.56-.08 13.23-4.28 16.91-11.51 2.28 6.5 6.81 11.29 14.07 12.24 15.53 2.03 31.15 2.2 46.67 1.04 7.42-.56 12.45-4.81 15.61-12.01 2.35 6.54 7.5 10.61 14.48 11.02 15.52.91 30.98-.24 46.29-2.55 7.55-1.14 12.53-6.33 14.92-13.8 2.67 6.42 8.98 10.3 16.37 9.98 15.74-.69 31.32-3.61 46.49-7.74 7.02-1.91 11.39-6.95 13.16-13.97 4.53 5.63 10.3 8.25 16.99 7.43 14.63-1.8 28.99-5.41 42.62-10.82 6.46-2.56 10.44-7.51 11.41-15.16 6.55 5.92 14.04 7.32 21.61 3.94 22.64-9.31 41.05-29.94 41.97-55.52 18.72 6.9 37.16 10.28 56.39 10.28 6.11 0 10.73-3.78 14.43-8.2 1.05 7.35 5.98 11.38 12.79 12.02 9.88.94 19.8.88 29.61-.13 6.13-.62 10.73-4.59 13.02-9.89 2.66 4.87 6.83 8.59 12.16 8l14.44-1.6c.98 20.07.7 39.94-1.7 59.95-.78 6.48-4.43 11.08-10.63 13.16-6.59 2.21-15.5 7.47-22.43 4.54-6.93-3.75-5.37-17.29-9.33-21.61-.81-.88-4.11-.73-4.66.33-2.71 5.22 1.71 21.2-5.55 26.47-9.13 6.63-21.5 7.34-32.29 9.73-4.44.99-8.74-1.64-9.98-5.78l-5.06-16.91c-.38-1.28-2.87-2.65-4.08-2.47-1.76.27-2.99 2.64-3 4.55l-.1 14.58c-.08 12.9-20.31 15.62-35.23 17.66-4.59.63-9.13-1.09-11.07-5.46l-7.75-17.48c-.56-1.26-3.5-2.45-4.74-1.95s-2.57 3.27-2.26 4.74l4.09 19.31c1.51 7.12-2.02 13.51-7.56 17.75-10.75 8.25-22.21 14.78-34.91 19.63-3.44 1.32-7.92.18-9.47-3.21l-7.38-16.12c-.77-1.68-2.67-3.03-4.76-2.75-1.65.22-2.89 2.97-2.67 5.01l1.88 17.17c.63 5.78-3.27 10.64-8.43 12.79-14.58 6.08-29.43 10.24-45.15 12.6-4.11.62-8.7-1.43-9.92-5.25l-6.02-18.78c-.59-1.84-2.7-3.42-4.89-3.08-1.46.23-2.6 2.7-2.61 4.63l-.12 17.75c-.03 4.78-4.05 8.86-8.73 9.91-15.88 3.58-31.69 5.66-48.05 6.24-4.62.16-8.93-2.51-9.69-7.05l-3.21-19.1c-.3-1.78-2.31-4.09-3.89-4.05-7.62.17-1.18 19.19-9.75 28.29z"/><path class="cls-13" d="M384.7 186.59c-15.97-3.92-.82-36.34-8.12-38.4-9.33-2.63-6.38 35.31-23.98 31.4-14.19-3.15-27.79-7.11-41.6-11.92-4.57-1.59-7.26-6.59-6.19-11.31l4.79-21.11c.46-2.05-.46-4.38-2.35-4.79s-3.74.91-4.68 2.7L292 153.33c-2.46 4.69-7.7 6.32-12.68 4.74-15.18-4.83-29.67-10.2-44.13-16.83-14.49-6.65 6.93-32.57 1.05-36.45-1.36-.9-4.42-.17-5.4 1.31l-13.28 19.99c-2.88 4.34-8.08 5.93-12.92 4.06-13.74-5.3-26.69-10.95-39.76-17.61-14.9-7.59 10.32-28.62 1.9-32.34-1.23-.54-3.62.52-4.78 1.79l-13.24 14.48c-9.28 8.31-20.93-3.42-33.22-11.41 62.85-58.09 143.2-79.25 227.63-68.93 87.23 12.84 168.97 45.24 230.15 110.09 19.84 21.02 36.26 43.78 52.36 68.44-12.76 4.26-25.01 6.13-37.99 6.57-3.76.13-6.43-3.36-8.28-6.31l-6.92-22.98c-.47-1.55-2.47-3.18-3.93-3.17-1.73 0-3.34 2.41-3.14 4.16l2.32 20.25c.43 3.74-1.78 9.98-5.88 10.63-12.08 1.9-23.85 1.36-36.06.36-15.5-1.27-8.14-37.32-16.54-37.6-1.64-.05-3.42 1.96-3.54 3.94l-1.5 23.66c-.31 4.9-4.69 8.42-9.45 8.25-12.94-.46-25.42-1.66-38.23-3.65-17.45-2.72-5.2-36.47-12.6-38.61-1.25-.36-4.06 1.14-4.34 2.42l-5.24 24.26c-1.14 5.3-6.01 7.8-11.12 7.07-13.16-1.87-25.71-4.15-38.54-7.3z"/><path class="cls-5" d="M201.64 386.41l1.26 4.27c1.7 91.66 23.59 180.85 64 263.11l.83 4.37c-20.98-8.2-41.49-17.79-60.73-29.5-3.07-2.39-5.21-5.24-7.36-8.36-14.71-21.34-28.27-51.18-38.23-75.3-11.69-28.3-20.92-57.63-26.95-87.66-3.89-19.34-7.86-42.47-7.8-62.08 0-2.57.73-5.05 1.58-7.46 24.37 4.13 49.28 3.96 73.39-1.38z"/><path class="cls-13" d="M701.92 616.19c13.99-2.01 26.99-6.14 39.78-11.03 6.25-2.39 10.56-6.68 12.77-13.92 4.53 5.25 10.61 7.02 17.27 5.31 13.72-3.52 26.67-9.07 38.98-16.06 6.69-3.8 11.08-9.22 12.14-17.26 4.05 4.5 9.77 6 15.65 4.47 15.16-3.94 29.68-10.1 42.84-18.49 5.66-3.61 8.89-8.64 10.26-15.59 3.43 4.56 8.34 4.68 14.05 4.96-28.07 49.63-68.33 89.89-117.47 117.2-33.48 18.33-69.15 30.47-107.75 37.27 7.38-27.09-13.1-45.48-34.18-63.02l26.64-6.63c6.91-1.72 11.49-6.56 14.09-13.71 3.42 4.86 8.65 7.39 14.93 6.49z"/><path class="cls-2" d="M566.89 701.21c-.59-1.43-2.95-3.07-4.3-2.84-1.76.29-2.95 2.7-2.84 4.62l.71 12.88c.38 6.86-5.62 10.73-12.19 10.94-31.07.99-74.94-31.61-98.58-55.38 17.47.35 40.96 4.25 46.45-13.16 3.74 5.43 9.42 8.67 16.32 8.07 13.89-1.22 27.56-4.91 40.07-10.88 6.52-3.11 10.06-8.58 10.51-16.06 13.85 14.01 39.85-6.64 51.36-20.6l24.85 18.17c10.92 7.98 20.45 16.8 28.17 27.75 4.57 8.55 8.69 19.26 1.95 27.85-6.2 7.91-19.64 13.86-29.52 12.65-10.58-3.52-13.63-21.25-19.06-20.41-2.13.33-3.44 2.99-2.94 4.9l3.63 13.92c1.41 5.39-2.16 10.4-7.16 12.09-12.86 4.37-36.88 10.8-41.16.52l-6.26-15.05z"/><path d="M495.17 636.43c-.68-1.57-3.91-2.7-5.18-1.7-4.53 3.57 3.7 17.91-4.71 25.51-14.47 5.83-31.6 3.82-46.41-.07-18.2-21.14-29.66-45.56-36.66-72.65 18 3.62 40.13 10.38 46.93-6.33 2.7 6.52 8.09 10.63 15.34 10.33 13.2-.55 26.06-3.35 38.31-8.06 6.12-2.35 9.71-7.18 10.58-14.47 10.79 12.71 28.61.19 42.16-9 14.36 20.25 31.73 37.63 51.64 53.23-8.25 11.57-32.3 29.32-39.83 19.23l-10.31-13.81c-.79-1.06-3.74-1.79-4.77-1.15s-1.67 3.41-1.34 4.66l3.84 14.55c3.41 12.92-27.47 19.26-41.69 21.07-4.4.56-9.17-1.21-10.92-5.24l-7-16.12z" fill="#dbd2f9"/><path class="cls-10" d="M890.28 351.03l1.71-19.85c.13-1.5-1.88-3.81-3.51-3.69-5.8.44-6.03 19.16-17.55 24.39-15.68 2.74-31.83-1.65-47.38-5.84 47.58-18.13 79.29-61.96 92.19-109.62 16.25 1.07 38.87 5.97 45.57-7.04 2.39 4.82 6.02 7.93 11.18 8.32 10.95.82 21.69.42 32.57-.71 5.01-.52 8.86-3.61 11.66-8.24 2.41 3.4 5.49 5.88 10.38 6.99-14.59 23.12-34.05 42.49-56.18 58.64-2.95 2.15-3.88 5.07-3.46 8.5l4.75 38.77c.24 1.99-.8 6.98-2.66 8.11-5.85 3.53-16.05 7.01-22.1 3.34-6.54-4.66-4.27-18.07-7.48-22.22-.69-.88-3.43-1.23-4.27-.5-4 3.51-.35 21.26-8.12 24.58-10.05 4.3-21.83 1.97-32.64 1.66-1.64-.05-4.82-3.75-4.66-5.59z"/><path class="cls-5" d="M120.51 386.48l1.37 3.7c4.26 80.48 30.33 156.62 70.29 226.16l.8 3.77c-28.02-18.24-55.3-39.25-76.88-63.64-14.44-20.26-24.23-44.58-32.87-67.94-13.39-36.2-23.86-76.53-25.98-115.14-.06-1.06.17-2.15.42-3.25s.65-2.2 1.08-3.28c19.86 8.79 40.36 15.97 61.77 19.6z"/><path class="cls-13" d="M1019.38 145.53c-.12 4.08-3.75 7.24-7.18 7.58l-28.59 2.78c-2.88.28-6.48-2.48-7-5.29l-2.96-16.2c-.24-1.34-2.16-3.44-3.46-3.45-2.17-.02-3.44 2.02-3.73 4.16l-2.07 15.42c-.37 2.73-3.62 6.67-6.52 6.98-12.66 1.33-24.67 1.33-37.37.17-4.04-12.48-1.98-23.87 5.99-33.97 10.17-12.88 22.55-22.98 37.36-30.87 28.22-15.03 59.42-24.12 91.36-26.5 6.17-.46 13.89.02 17.75 5.09 7.51 9.86 11.24 23.96 8.64 36.16-1.15 2.68-5.19 4.62-4.65 8.32l2.97 20.37c.64 4.41-3.04 8.15-7.14 8.76l-32.11 4.75c-3.58.53-7.61-2.24-8.59-5.53l-5.08-17.01c-.51-1.71-2.5-3.39-4.39-3.11-1.36.2-2.68 2.67-2.73 4.3l-.49 17.09zm-211.01 8.27l-1.97-16.02c-.24-1.94-1.47-4.03-3.25-4.18-1.99-.17-3.7 1.85-4.02 3.74l-2.5 14.76c-.48 2.83-4.01 6.34-6.95 6.05l-25.67-2.56c-10.6-1.06-9.12-20.73-7.72-33.72.85-7.9-10.01-4.33-9.64-14.06.47-12.33 5.49-32.04 16.84-31.48C804.7 78.37 870.51 91.48 895.27 125c7 9.47 11.65 20.22 9.86 32.31-13.1 2.16-25.99 2.66-38.94 1.54-6.73-8.95-5.14-21.26-9.56-24.33-.97-.67-4.28.52-4.37 1.78l-1.24 16.32c-.35 4.61-4.01 7.84-8.23 7.75l-27.46-.62c-2.75-.06-6.6-3.05-6.96-5.94z"/><path class="cls-2" d="M505.56 565.57c2.23 12.4-26.17 16.3-40.14 17.44-4.56.37-8.48-2.37-9.54-6.63l-4.35-17.46c-.43-1.71-2.16-3.74-3.64-3.68-2.4.11-3.59 2.27-3.86 4.63l-1.78 15.91c-1.44 12.84-27.07 6.69-41.85 2.1-2.71-12.66-2.79-24.93-.86-37.54 4.16-27.2 25.49-46.17 52.93-49.04 27.31-2.86 53.19 8.73 72.5 28.55 9.81 10.06 17.39 21.24 25.51 33.13-9.93 7.08-24.46 16.99-31.28 10.62l-9.57-16.22c-.89-1.5-3.34-2.91-4.94-2.31-1.32.5-2.23 3.31-1.95 4.89l2.81 15.6zm306.14-332.1c-7.69 5.87-17.2.08-21.68-6.97-11.9-18.71-19.1-39.38-21.98-61.62l21.51 1.72c5.67.45 10.24-2.78 12.6-7.68 2.05 5.13 5.82 8.89 11.23 9.01l30.79.67c5.89.13 10.47-3.31 13.19-8.72 2.03 4.11 5.91 7.65 10.76 7.84 13.19.53 25.98-.25 38.89-1.95 2.12 21.65 2.27 42.6-2.61 63.91-6.91 1.25-15.39 4-21.96 1.16-5.72-2.48-5.68-11.42-7.72-16.22l-1.82-4.27c-.48-1.13-4.41-.76-4.93.36-2.7 5.76 2.68 17.78-4.9 23.1-10.2 3.33-23.24 3.77-33.87 1.95-7-4.89-4.59-16.63-8.01-22.13-.58-.93-3.79-1.06-4.43-.17-3.27 4.53-.11 16.23-5.07 20.02zm147.65-28.13l-4.05 17.79c-2.13 9.35-24.3 6.04-37.47 4.73 4-20.97 4.35-40.85 2.94-61.34 13.02.97 25.68 1.01 38.45-.46 5.09-.58 8.76-4.13 11.46-8.66 2.33 4.04 6.57 7.74 11.66 7.24l32.02-3.16c5.54-.55 9.47-4.51 12.06-9.94 2.95 4.23 7.43 7.77 12.98 7.06l31.25-3.96c-3.54 23.99-10.22 47.04-24.75 66.6-3.88 5.22-15.91 8.04-20.56 3.95-6.31-5.55-3-23.68-9.8-22.34-6.34 1.25-.29 20.74-8.71 24.09-10.55 4.2-22.64 2.22-33.81 2.02-2.68-.05-5.51-4.37-5.65-6.59l-1.08-16.59c-.09-1.38-1.96-3.35-3.12-3.52-1.27-.19-3.5 1.67-3.82 3.08z"/><path d="M358.71 598.36l-2.14 16.53c-.49 3.79-4.6 6.92-8.6 6.37-9.61-1.32-19.38-3.31-27.97-8.02-14.18-7.77-21.4-60.53-21.47-80.69 14.04 4.09 27.06 7.18 40.86 8.62 7.41.77 13.56-2.12 17.78-8.84 1.14 5.94 4.71 10.92 10.65 11.97l21.29 3.75c-1.61 28.12 5.78 54.69 17.81 80.63-15.09-.72-34.01.12-37.55-11.61l-3.4-18.89c-.31-1.7-1.96-3.42-3.74-3.54-1.35-.1-3.28 2.04-3.5 3.73z" fill="#dbd1f8"/><circle class="cls-7" cx="349.66" cy="304.43" r="54.56"/><path d="M466.53 699.79c-26.82-.67-81.82-6.44-98.41-20.82-16.18-14.02-28.13-31.77-36.69-51.62l16.43 2.49c6.06.92 11.23-2.5 14.45-8.11 4.83 16.21 30.58 15 49.14 15.57 8.99 16.36 20.01 31.29 34.08 43.81l21 18.69z" fill="#9878f0"/><path d="M51.03 363.04c.97 2.02 1.91 4.13 2.15 6.38 2.72 25.7 5.26 48.22 11.68 73.51 7.36 29 17.63 57.2 29.52 84.61l.8 6.45C50.05 478.5 17.96 413.32 16.2 340.03c11.43 9.39 22.59 16.91 34.83 23.01z" fill="#dbd2f8"/><path class="cls-10" d="M811.69 244.31c3.15-2.12 5.37-4.01 7.94-6.87 2.23 4.25 6.72 7.31 11.77 7.49 10.85.4 21.45-.16 32.06-2.01 4.64-.81 7.75-4.72 9.66-9.02 2.74 3.64 6.25 5.69 10.94 6.7l18.03-1.51c-6.52 22.29-17.12 42.52-32.72 60.22-22.12-15.17-41.08-33.43-57.68-55z"/><path class="cls-2" d="M208.63 384.87c-.03 94.63 25.06 194.28 69.83 277.33l-10.73-4.03c-43.19-83.6-66.27-177.44-66.09-271.75l6.99-1.55zm-80.38 2.92c2.57 86.02 33.33 168.74 78.76 240.87l-14.04-8.54c-42.12-70.01-70.01-149.83-72.46-233.63l7.74 1.31zm-69.51-20.91c3.11 64.98 26.3 131.93 57.35 189.6l-20.91-22.5C71.95 481.96 52.99 422.4 51.03 363.04l7.71 3.84z"/><path d="M743.12 507.47c3.33 3.76 9.97 5.64 15.72 3.46 16.91-6.4 48.35-21.85 48.62-39.63 9.37 6.86 31.24.53 44.19-3.81 5.3-1.78 8.5-5.81 11.14-11.4 3.22 4.53 8.05 7.54 13.76 6.91 11.91-1.31 23.59-4 34.7-8.36 5.04-1.98 8.04-6.56 9.9-11.33 7.04 9.66 17.12 5.2 28.9 2.39-5.96 26.34-14.8 50.38-27.26 73.54-6.02 6.26-14.61 10.34-23.15 10.3-8.35-6.42-5.74-19.9-11.33-20.61-1.88-.24-3.88 2.05-3.88 3.9v15.32c0 6.4-4.02 11.56-9.29 14.7-12.03 7.18-24.6 12.62-38.11 16.41-4.15 1.16-8.67-.57-10.35-4.51l-5.64-13.25c-.59-1.38-2.83-3.02-4.34-2.87-1.94.19-2.94 2.89-2.82 5.08l.9 16.54c.32 5.79-3.84 10.14-8.68 12.85-11.62 6.49-23.68 11.36-36.54 15.14-3.95 1.16-8.56-.74-9.96-4.55l-5.03-13.71c-.62-1.68-2.52-3.32-4.39-3.09-1.37.17-2.67 2.69-2.69 4.3l-.13 14.83c-.05 5.31-4.09 9.4-8.99 11.28-11.98 4.6-24.08 8-36.82 10.48-4.09.79-8.35-1.81-9.46-5.57l-3.81-12.95c-.65-2.21-2.33-4.28-4.48-3.92-6.4 1.08.58 21.58-8.98 27.19-11.83 6.95-26.32 7.75-39.56 10.02l-18.66-14.07c-21.77-16.41-40.5-35.45-56.07-58.11l9.14-1.36c6.58-.98 11.47-4.86 14.05-11.57 1.99 6 7.29 10.35 14.19 10.41 17.93.15 35.59-2.53 53.05-6.58 6.7-1.55 11.28-6.67 12.91-13.43 3.2 5.76 8.99 9.56 16.16 8.76 17.17-1.91 33.73-6.8 49.64-13.56 6.25-2.66 10.63-8.08 11.87-14.41l.21-1.09.19-1.39 1.19 1.34z" fill="#dcd2f9"/><path d="M282.25 47.16c4.76 21.78-70.57 40.16-75.6 19.2-4.96-20.67 71.2-39.31 75.6-19.2z" fill="#e8e1fb"/><circle cx="349.76" cy="304.17" r="33.66" fill="#230759"/><circle class="cls-7" cx="340.61" cy="291.98" r="10.28"/></g></svg>