<?xml version="1.0" encoding="UTF-8"?> <svg xmlns="http://www.w3.org/2000/svg" id="Layer_1" data-name="Layer 1" viewBox="0 0 465.9 71.8"><defs><style> .cls-1 { fill: #11003a; } .cls-2 { fill: #00e664; } </style></defs><path class="cls-1" d="M145.46,21.48c-5.4,0-9.1,2.5-11.1,5.7V8.88h-9.5v49.8h9.4v-19.9c0-5.3,2.9-8.8,7.8-8.8s7.8,3.5,7.8,8.8v19.9h9.4v-21.5c0-11-8.4-15.7-13.8-15.7Z"></path><rect class="cls-1" x="165.76" y="8.88" width="9.4" height="8.3"></rect><rect class="cls-1" x="165.76" y="22.18" width="9.4" height="36.5"></rect><path class="cls-1" d="M222.96,46.88l.05-.02c-.01-.06-.04-.12-.05-.18v.2Z"></path><rect class="cls-1" x="356.66" y="22.18" width="9.4" height="36.5"></rect><rect class="cls-1" x="356.66" y="8.88" width="9.4" height="8.3"></rect><path class="cls-1" d="M390.56,21.48c-9.5,0-19.2,6.6-19.2,18.9-.1,12.4,9.7,18.9,19.2,18.9s19.2-6.6,19.2-18.9-9.7-18.9-19.2-18.9ZM390.56,50.78c-5.3,0-10-4-10-10.4s4.8-10.4,10-10.4,9.9,3.9,9.9,10.4-4.6,10.4-9.9,10.4Z"></path><path class="cls-1" d="M435.26,21.48c-5.4,0-9.1,2.5-11.1,5.7v-5h-9.5v36.5h9.4v-19.9c0-5.3,2.9-8.8,7.8-8.8s7.8,3.5,7.8,8.8v19.9h9.4v-21.5c0-11-8.4-15.7-13.8-15.7Z"></path><path class="cls-1" d="M343.01,47.02v-17.32h7.5v-7.5h-7.5v-9.32h-9.46v9.32h-5.19v7.5h5.19v18.86c0,7.43,4.49,10.52,10.66,10.52,2.31,0,5.05-.42,6.38-1.68v-7.29c-1.33.49-2.59.63-3.44.63-3.01,0-4.14-1.82-4.14-3.72Z"></path><path class="cls-1" d="M273.21,47.02v-17.32h7.5v-7.5h-7.5v-9.32h-9.46v9.32h-5.19v7.5h5.19v18.86c0,7.43,4.49,10.52,10.66,10.52,2.31,0,5.05-.42,6.38-1.68v-7.29c-1.33.49-2.59.63-3.44.63-3.01,0-4.14-1.82-4.14-3.72Z"></path><path class="cls-1" d="M106.86,29.74l-3.37-1.33c-5.4-2.1-6.94-4.14-6.94-6.73,0-3.22,2.73-5.05,6.24-5.05s6.38,1.89,8.48,5.96l7.15-4c-2.24-5.26-7.43-10.52-15.99-10.52s-15.35,5.19-15.35,13.53c0,7.57,5.54,11.36,12.41,14.09l3.16,1.19c5.05,2.03,7.22,3.65,7.22,7.29,0,4.28-3.37,6.38-7.29,6.38-5.05,0-8.2-3.44-9.61-7.29l-7.78,3.58c1.75,7.22,8.83,12.41,17.53,12.41s17.18-4.91,17.18-15c0-7.01-4.28-11.01-13.04-14.51Z"></path><path class="cls-1" d="M244.68,29.71l-3.37-1.33c-5.4-2.1-6.94-4.14-6.94-6.73,0-3.22,2.73-5.05,6.24-5.05s6.38,1.89,8.48,5.96l7.15-4c-2.24-5.26-7.43-10.52-15.99-10.52s-15.35,5.19-15.35,13.53c0,7.57,5.54,11.36,12.41,14.09l3.16,1.19c5.05,2.03,7.22,3.65,7.22,7.29,0,4.28-3.37,6.38-7.29,6.38-5.05,0-8.2-3.44-9.61-7.29l-7.78,3.58c1.75,7.22,8.83,12.41,17.53,12.41s17.18-4.91,17.18-15c0-7.01-4.28-11.01-13.04-14.51Z"></path><path class="cls-2" d="M58.61,19.67c0-2.43.99-4.64,2.58-6.23,0,0,0,0,0,0l-7.32-7.33s0,0,0,0c-1.6,1.59-3.8,2.58-6.23,2.58-4.87,0-8.82-3.95-8.82-8.82h0s-5.18,0-5.18,0h-5.18c0,4.87-3.95,8.82-8.82,8.82-2.43,0-4.64-.99-6.23-2.58,0,0,0,0,0,0l-7.32,7.33s0,0,0,0c1.59,1.6,2.58,3.8,2.58,6.23,0,4.87-3.95,8.82-8.82,8.82,0,0,0,0,0,0v10.36s0,0,0,0c4.87,0,8.82,3.95,8.82,8.82,0,2.43-.99,4.64-2.58,6.23,0,0,0,0,0,0l7.32,7.33s0,0,0,0c1.6-1.59,3.8-2.58,6.23-2.58,4.87,0,8.82,3.95,8.82,8.82h0s5.18,0,5.18,0h5.18c0-4.87,3.95-8.82,8.82-8.82,2.43,0,4.64.99,6.23,2.58,0,0,0,0,0,0l7.32-7.33s0,0,0,0c-1.59-1.6-2.58-3.8-2.58-6.23,0-4.87,3.95-8.82,8.82-8.82,0,0,0,0,0,0v-10.36s0,0,0,0c-4.87,0-8.82-3.95-8.82-8.82ZM50.61,43.46l-16.97,9.8-16.97-9.8v-19.6l16.97-9.8,16.97,9.8v19.6Z"></path><path class="cls-1" d="M460.76,21.48c-2.8,0-5.3,2.1-5.3,5.4s2.5,5.4,5.3,5.4,5.3-2.1,5.3-5.4-2.5-5.4-5.3-5.4ZM460.76,31.08c-2.2,0-4.1-1.5-4.1-4.2s1.9-4.3,4.1-4.3,4.1,1.6,4.1,4.3-1.9,4.2-4.1,4.2Z"></path><path class="cls-1" d="M462.76,25.78c0-1-.7-1.8-1.9-1.8h-2v5.5s.9,0,.9,0v-2h.9l1.4,2h1l-1.5-2c.7-.2,1.2-.7,1.2-1.7ZM459.76,26.78v-2h1.1c.7,0,1.1.4,1.1,1.1s-.4.9-1.1.9h-1.1Z"></path><path class="cls-1" d="M313.6,27.11h-.21c-.91-1.96-5.12-5.61-11.64-5.61-8.49,0-17.53,6.31-17.53,18.93-.07,12.69,9.05,18.94,17.53,18.94,6.52,0,10.73-3.58,11.64-5.61h.21v4.91h9.4V22.2h-9.4v4.91ZM303.64,50.95c-5.26,0-10.17-3.72-10.17-10.52s4.91-10.52,10.17-10.52,10.17,3.65,10.17,10.52-4.91,10.52-10.17,10.52Z"></path><path class="cls-1" d="M202.86,21.44c-6.52,0-10.73,3.51-11.64,5.61h-.21v-4.91h-9.4v49.79h9.4v-18.23h.21c.91,2.03,5.12,5.61,11.64,5.61,8.49,0,17.53-6.31,17.53-18.94s-9.05-18.93-17.53-18.93ZM200.97,50.89c-5.33,0-10.17-3.65-10.17-10.52s4.84-10.52,10.17-10.52,10.1,3.72,10.1,10.52-4.91,10.52-10.1,10.52Z"></path></svg> 