<svg xmlns="http://www.w3.org/2000/svg" width="160" height="160"><path d="M0 0h160v160H0V0Z" fill="#FCB910"/><path d="M114 65h3l.148 3.832.227 4.98c.03.834.062 1.667.094 2.526l.117 2.432.095 2.237c.227 2.306.227 2.306 2.319 4.993 4.626.601 4.626.601 8.69-1.273 1.564-2.062 1.725-3.174 1.822-5.739l.107-2.295.069-2.38.103-2.417c.082-1.965.147-3.93.209-5.896l3-1c.1 4.126.172 8.251.22 12.378.02 1.4.047 2.8.082 4.201.235 9.691-.11 16.414-6.552 24.109L125 108l-1.64 1.414c-6.014 4.523-12.08 4.414-19.36 3.586-7.559-1.587-11.697-5.86-15.813-12.125C86.48 98.174 86 97.286 86 94c1.75.063 1.75.063 4 1 2.283 3.095 3.788 6.363 5 10 2.247 1.15 2.247 1.15 5 2l2.75 1.125c4.959 1.335 9.576 1.991 14.43-.035 7.843-4.603 11.47-10.492 13.82-19.09l-3 2c-4.594.445-6.883.656-10.875-1.688-4.314-4.695-4.418-9.414-4.313-15.562l.002-2.219c.045-5.39.045-5.39 1.186-6.531ZM50 65c1.832.59 1.832.59 4 2 1.45 3.004 1.45 3.004 2.688 6.563 1.144 4.01 1.144 4.01 3.312 7.437l6-15h4l6 15 2.375-5.75C79.812 71.77 81.264 68.342 83 65h3c-.656 5.636-2.56 10.61-4.563 15.875l-.998 2.664C79.631 85.695 78.818 87.85 78 90h-3l-7-16-2.375 5.75C64.188 83.23 62.736 86.658 61 90h-3c-1.344-3.412-2.673-6.83-4-10.25l-1.156-2.934-1.094-2.832-1.016-2.602C50 69 50 69 50 65Z" fill="#363128"/><path d="M43.188 65.625C46.306 68.258 47.599 70.186 49 74v5H32v-3h13c-.914-3.082-.914-3.082-3-6-2.712-1.123-5.093-1.328-8-1-2.706 1.205-2.706 1.205-4 4-.655 4.11-.517 7.676 1 11.563 3.119 2.241 6.347 1.955 10 1.437 2.251-.916 2.251-.916 4-2h3c-.125 1.813-.125 1.813-1 4-4.347 2.898-7.83 3.646-13 3-4.87-2.435-7.217-4.85-9-10-.629-4.95-.553-7.713 2.25-11.875 4.477-5.505 9.387-6.84 15.938-3.5Z" fill="#373228"/><path d="M98.867 63.547c3.927.834 6.59 3.456 9.133 6.453 2.316 3.875 2.683 7.568 2 12-2.4 4.893-4.863 7.187-10 9-4.251.607-6.959.418-10.438-2.063C87 86 87 86 86.25 82.5c.796-3.715 1.802-5.377 4.883-7.633 3.33-1.547 6.253-1.179 9.867-.867l1 4-1.934.184-2.504.254-2.496.246c-2.053.105-2.053.105-3.066 1.316-.167 2.5-.167 2.5 0 5 1.579 1.579 3.194 1.245 5.375 1.313 3.615-.034 3.615-.034 6.688-1.813 1.746-4.658 1.509-9.785-.063-14.5-3.31-1.001-6.3-1.104-9.75-1.063l-2.984.028L89 69c1.684-5.053 4.84-5.564 9.867-5.453Z" fill="#3C3628"/></svg>
