<svg fill="none" height="40" width="40" xmlns="http://www.w3.org/2000/svg"><path d="m0 0h40v40h-40z" fill="#f6f7f7"/><path d="m36 19.468c0-5.767-7.163-10.468-16-10.468-8.834 0-15.997 4.701-15.997 10.468l-.003.613c0 6.118 6.26 11.073 15.999 11.073 9.797 0 16.001-4.954 16.001-11.072z" fill="#2b3375"/><path d="m20.003 29.307c8.496 0 15.383-4.407 15.383-9.844s-6.887-9.845-15.383-9.845-15.384 4.408-15.384 9.845 6.888 9.844 15.384 9.844z" fill="#1f9cd8"/><g fill="#fff"><path d="m14.898 16.356c-.008.016-.161.175-.062.302.243.31.993.488 1.751.318.452-.101 1.03-.562 1.59-1.007.609-.482 1.211-.966 1.817-1.158.642-.205 1.053-.117 1.324-.035.298.089.648.285 1.207.705 1.053.791 5.285 4.487 6.017 5.126.588-.266 3.206-1.393 6.763-2.178-.309-1.897-1.462-3.632-3.212-5.053-2.438 1.024-5.418 1.559-8.332.135-.015-.006-1.592-.753-3.147-.716-2.312.054-3.314 1.055-4.374 2.114z"/><path d="m28.368 21.01c-.05-.045-4.977-4.358-6.093-5.197-.646-.484-1.005-.608-1.382-.656a1.886 1.886 0 0 0 -.658.063c-.52.141-1.198.595-1.801 1.074-.624.497-1.213.965-1.759 1.087-.698.157-1.55-.028-1.938-.29a.858.858 0 0 1 -.322-.354c-.143-.332.122-.599.165-.643l1.36-1.472c.158-.157.317-.316.48-.47-.439.056-.844.168-1.24.278-.492.139-.966.27-1.445.27-.2 0-1.272-.176-1.476-.23-1.23-.337-2.31-.665-3.924-1.419-1.933 1.44-3.225 3.24-3.599 5.222.278.073.726.206.914.248 4.374.973 5.736 1.975 5.983 2.184a1.454 1.454 0 0 1 1.085-.486c.484 0 .92.244 1.185.62.25-.198.596-.367 1.043-.367.203 0 .413.037.626.11.493.169.748.498.88.795.165-.075.369-.13.608-.129.236 0 .481.054.728.16.807.347.932 1.14.859 1.737a1.736 1.736 0 0 1 1.7 2.545c.26.146.924.477 1.506.403.465-.059.642-.218.705-.307.044-.062.09-.134.047-.185l-1.235-1.371s-.204-.192-.136-.266c.07-.076.195.033.284.107.628.525 1.394 1.317 1.394 1.317.014.008.064.109.348.16.244.044.676.018.975-.228.076-.062.151-.14.215-.22-.005.005-.01.01-.014.012.315-.404-.036-.813-.036-.813l-1.44-1.619s-.206-.19-.136-.267c.062-.066.195.034.285.11.457.38 1.101 1.028 1.719 1.633.12.088.663.425 1.383-.048.436-.286.523-.638.511-.903-.03-.351-.304-.602-.304-.602l-1.968-1.98s-.208-.177-.135-.266c.06-.076.195.033.284.107.627.525 2.324 2.082 2.324 2.082.024.016.61.434 1.335-.027.26-.166.425-.416.44-.706a1.043 1.043 0 0 0 -.331-.803z"/><path d="m18.824 23.52c-.305-.004-.639.178-.682.151-.024-.016.018-.138.047-.209.03-.07.431-1.28-.549-1.7-.75-.323-1.208.04-1.365.204-.041.043-.06.04-.065-.015-.015-.218-.112-.808-.76-1.005-.924-.283-1.519.362-1.67.595a1.07 1.07 0 0 0 -2.133.136 1.074 1.074 0 0 0 1.815.775c.006.005.009.015.006.036-.046.265-.129 1.23.882 1.623.405.158.75.041 1.035-.16.085-.06.099-.034.087.046-.037.248.01.78.754 1.081.567.23.902-.005 1.122-.208.095-.087.122-.073.126.062a1.347 1.347 0 0 0 1.348 1.289 1.35 1.35 0 0 0 1.352-1.35 1.354 1.354 0 0 0 -1.35-1.35z"/></g><path d="m28.558 20.494c-1.518-1.325-5.026-4.376-5.976-5.09-.543-.408-.913-.623-1.238-.72a2.045 2.045 0 0 0 -.608-.095c-.241 0-.5.044-.772.13-.614.195-1.225.68-1.817 1.151l-.03.024c-.552.438-1.121.892-1.552.988a2.62 2.62 0 0 1 -.575.064c-.483 0-.916-.14-1.079-.347-.027-.034-.01-.09.053-.17l.008-.01 1.336-1.44c1.045-1.046 2.033-2.033 4.307-2.085.037-.002.076-.002.114-.002 1.415 0 2.83.634 2.988.708 1.327.648 2.697.976 4.074.978 1.435 0 2.915-.355 4.472-1.072a12.203 12.203 0 0 0 -.54-.428c-1.368.592-2.671.892-3.928.892-1.284-.001-2.567-.31-3.812-.918-.066-.031-1.628-.768-3.254-.769-.042 0-.085 0-.128.002-1.91.045-2.985.723-3.709 1.317-.703.017-1.31.187-1.851.338-.482.134-.898.25-1.304.25-.167 0-.468-.015-.495-.016-.467-.015-2.819-.592-4.69-1.3a12.55 12.55 0 0 0 -.552.416c1.954.801 4.332 1.421 5.083 1.47.209.014.431.037.654.038.497 0 .992-.14 1.472-.274.283-.08.596-.166.925-.229l-.264.262-1.356 1.468c-.107.108-.339.395-.186.75a.95.95 0 0 0 .357.395c.323.218.902.365 1.44.366.203 0 .397-.02.574-.06.569-.128 1.165-.603 1.797-1.106.503-.4 1.22-.908 1.767-1.057a2.01 2.01 0 0 1 .491-.068c.046 0 .088.002.128.008.362.046.712.169 1.336.638 1.114.837 6.041 5.149 6.09 5.191a.95.95 0 0 1 .295.725c-.012.251-.151.475-.393.63-.21.133-.428.2-.647.2-.33 0-.556-.154-.571-.165-.018-.015-1.707-1.563-2.328-2.083-.099-.082-.195-.156-.292-.156a.162.162 0 0 0 -.129.06c-.098.121.012.288.14.398l1.973 1.983c.003.002.246.23.272.534.016.329-.141.604-.468.818a1.27 1.27 0 0 1 -.699.231c-.303 0-.515-.138-.562-.17l-.283-.28c-.517-.508-1.05-1.034-1.442-1.36-.095-.08-.196-.153-.294-.153a.167.167 0 0 0 -.124.053c-.045.049-.076.138.035.286.046.06.1.11.1.11l1.439 1.618c.012.015.296.353.033.69l-.051.064a1.49 1.49 0 0 1 -.134.13c-.246.201-.573.223-.703.223-.07 0-.137-.006-.195-.017-.142-.025-.238-.065-.284-.12l-.017-.018a22.169 22.169 0 0 0 -1.404-1.323c-.08-.066-.178-.15-.28-.15-.05 0-.096.02-.13.058-.119.13.06.325.135.396l1.228 1.354a.283.283 0 0 1 -.047.083c-.044.06-.193.21-.638.266-.053.007-.108.01-.163.01-.459 0-.949-.223-1.201-.357a1.834 1.834 0 0 0 -1.722-2.61c.033-.462-.032-1.336-.928-1.72a1.926 1.926 0 0 0 -.766-.169 1.56 1.56 0 0 0 -.561.102 1.541 1.541 0 0 0 -.897-.762 2.01 2.01 0 0 0 -.657-.115c-.373 0-.717.11-1.023.328a1.55 1.55 0 0 0 -1.205-.582c-.408 0-.802.163-1.093.452-.382-.292-1.898-1.255-5.954-2.176a22.884 22.884 0 0 1 -.924-.255c-.045.22-.08.442-.103.666 0 0 .748.179.895.212 4.144.92 5.513 1.878 5.744 2.06a1.555 1.555 0 0 0 1.718 2.125c.13.63.541 1.107 1.172 1.352.184.071.37.107.553.107.118 0 .237-.014.353-.044.117.296.378.664.964.902.205.083.41.126.61.126.163 0 .322-.029.474-.085a1.826 1.826 0 0 0 3.004.58c.296.165.92.462 1.55.463.082 0 .158-.006.235-.015.626-.08.918-.324 1.051-.515a.763.763 0 0 0 .065-.105c.148.043.31.077.497.077.341 0 .67-.116 1.001-.358.326-.235.558-.572.591-.86l.002-.012c.11.023.223.035.335.035.352 0 .699-.11 1.03-.327.638-.419.748-.966.738-1.323.112.023.226.035.34.035.33 0 .655-.1.964-.297a1.41 1.41 0 0 0 .67-1.091 1.474 1.474 0 0 0 -.213-.881c1.07-.46 3.514-1.353 6.392-2.002a6.438 6.438 0 0 0 -.09-.663c-3.483.773-6.082 1.898-6.732 2.188zm-9.738 5.63a1.245 1.245 0 0 1 -1.251-1.196c-.002-.057-.008-.21-.137-.21-.053 0-.1.032-.152.08-.149.138-.338.278-.615.278-.126 0-.262-.03-.405-.088-.715-.29-.724-.78-.695-.978.008-.052.01-.107-.026-.15l-.044-.04h-.044c-.037 0-.074.016-.125.052-.206.145-.405.215-.606.215a.944.944 0 0 1 -.338-.066c-.94-.366-.867-1.254-.82-1.521.006-.054-.007-.096-.042-.124l-.066-.055-.062.06a.968.968 0 0 1 -.675.273.977.977 0 0 1 .001-1.953c.487 0 .901.366.963.852l.034.263.144-.222c.016-.026.41-.623 1.136-.622.138 0 .28.022.424.066.579.177.676.701.692.92.01.127.1.133.118.133.05 0 .087-.032.113-.059a.984.984 0 0 1 .719-.303c.17 0 .351.04.538.121.92.395.502 1.563.497 1.575-.079.194-.082.28-.008.329l.037.017h.026c.042 0 .094-.018.178-.047.126-.043.314-.108.49-.108h.001c.692.008 1.255.57 1.254 1.255 0 .691-.563 1.253-1.254 1.253z" fill="#2b3375"/></svg>