<svg xmlns="http://www.w3.org/2000/svg" viewBox="0 0 40 40" fill="none"><rect width="40" height="40" rx="4" fill="#0171F3"/><g transform="translate(4 16)" clip-path="url(#a)" fill="#fff"><path d="M.097 6.436C.029 6.368 0 6.266 0 6.131V2.292c0-.107.017-.18.057-.214s.114-.057.228-.057h.701c.074 0 .131.011.166.04a.178.178 0 0 1 .062.13l.04.338c.183-.209.388-.367.616-.48.228-.113.502-.169.815-.169.553 0 .94.215 1.169.65.353-.435.844-.65 1.465-.65.468 0 .838.136 1.1.407.263.27.4.683.4 1.236v2.603c0 .135-.035.237-.097.304-.063.068-.177.096-.325.096h-.599c-.16 0-.268-.033-.33-.096-.063-.067-.098-.169-.098-.304V3.613c0-.237-.045-.406-.136-.513-.092-.102-.228-.153-.41-.153a.653.653 0 0 0-.508.209c-.131.135-.194.322-.194.548V6.13c0 .136-.034.237-.097.305s-.177.096-.325.096h-.542c-.16 0-.268-.034-.336-.096s-.097-.17-.097-.305V3.585c0-.215-.046-.373-.125-.474-.08-.102-.217-.153-.394-.153a.682.682 0 0 0-.524.21c-.137.14-.205.327-.205.558v2.405c0 .136-.035.237-.097.305-.063.068-.177.096-.331.096h-.61c-.16 0-.274-.034-.336-.096H.097zm7.72 1.14c-.058-.045-.086-.09-.086-.14 0-.034.017-.08.045-.142l.325-.553c.04-.068.08-.102.131-.102.046 0 .097.017.154.057.103.068.2.118.297.152.097.034.205.051.33.051a.5.5 0 0 0 .382-.147c.092-.096.177-.254.263-.474L7.776 2.332a.38.38 0 0 1-.04-.153c0-.107.057-.158.171-.158h1.1c.092 0 .155.017.2.045.046.034.08.085.114.158l1.043 2.547 1.044-2.547a.319.319 0 0 1 .114-.158.371.371 0 0 1 .2-.045h1.1c.114 0 .17.051.17.158 0 .051-.01.102-.04.153L11.18 6.075a9.048 9.048 0 0 1-.622 1.135 1.924 1.924 0 0 1-.615.598c-.234.13-.513.198-.85.198-.519 0-.946-.142-1.283-.424l.006-.005zm6.248-1.14c-.069-.068-.097-.17-.097-.305V.553c0-.135.034-.242.097-.31.062-.068.176-.102.325-.102h2.371c1.625 0 2.44.723 2.44 2.162 0 1.44-.815 2.151-2.44 2.151h-1.237v1.672c0 .135-.034.237-.097.304-.063.068-.177.096-.33.096h-.713c-.154 0-.263-.033-.325-.096l.006.006zm2.6-3.116c.655 0 .986-.339.986-1.017 0-.677-.331-1.016-.987-1.016h-1.123V3.32h1.123zm3.933 2.484c-.564-.582-.85-1.406-.85-2.462 0-1.055.285-1.88.85-2.461.564-.582 1.385-.875 2.463-.875 1.077 0 1.887.293 2.457.875.564.581.85 1.406.85 2.461 0 1.056-.286 1.88-.85 2.462-.565.581-1.386.875-2.457.875-1.072 0-1.899-.294-2.463-.875zm3.774-.808c.296-.372.439-.925.439-1.66 0-.733-.148-1.287-.439-1.66-.296-.372-.73-.558-1.305-.558-.576 0-1.021.186-1.317.559-.297.372-.44.926-.44 1.66 0 .734.149 1.287.44 1.66.29.372.73.558 1.317.558s1.009-.186 1.305-.559zm3.785 1.525c-.45-.102-.82-.249-1.094-.435-.097-.068-.143-.13-.143-.186 0-.04.017-.08.046-.13l.388-.61c.04-.062.08-.096.125-.096.04 0 .086.017.143.057.233.13.501.237.81.321.307.085.61.125.923.125.365 0 .638-.057.815-.175.177-.119.268-.3.268-.548a.67.67 0 0 0-.125-.412 1.03 1.03 0 0 0-.383-.282 12.828 12.828 0 0 0-.775-.322 7.84 7.84 0 0 1-1.032-.463 2.17 2.17 0 0 1-.695-.604c-.183-.249-.268-.548-.268-.91 0-.598.216-1.05.655-1.365.44-.317 1.015-.475 1.728-.475.94 0 1.665.175 2.166.525.097.074.143.136.143.187 0 .04-.017.084-.046.13l-.387.61c-.04.061-.08.095-.126.095a.258.258 0 0 1-.142-.056c-.388-.249-.856-.379-1.403-.379-.684 0-1.026.243-1.026.734 0 .164.04.294.12.401.08.102.188.192.325.266.136.073.359.163.655.276l.268.102c.462.18.827.35 1.095.514.268.158.467.355.61.587.142.231.21.53.21.892 0 .547-.205.977-.62 1.304-.417.327-1.016.486-1.802.486-.496 0-.97-.051-1.42-.159l-.006-.005z"/></g><defs><clipPath id="a"><path fill="#fff" d="M0 0H32V8H0z"/></clipPath></defs></svg>