<svg width="280" height="283" viewBox="0 0 280 283" fill="none" xmlns="http://www.w3.org/2000/svg">
	<mask id="path-1-inside-1_3106_72367" fill="white">
		<path fill-rule="evenodd" clip-rule="evenodd" d="M243.56 86.4961C236.941 100.155 216.63 104.905 192.878 100.205C200.039 109.917 203.205 120.238 201.212 130.196C199.749 137.505 195.645 143.929 189.472 149.292C239.379 164.621 273.031 195.42 268.805 225.777C263.65 262.811 204.08 285.163 135.752 275.702C67.4238 266.242 16.2114 228.551 21.3662 191.517C23.6471 175.13 36.5824 161.618 56.2165 152.465C22.3166 137.417 1.14522 113.43 5.58633 91.2436C11.4669 61.8663 60.0263 46.7712 114.047 57.5277C118.214 58.3575 122.292 59.3168 126.267 60.3944C117.458 48.4743 114.339 36.1699 119.04 26.4704C128.186 7.59629 163.476 5.73305 197.861 22.3087C232.247 38.8844 252.707 67.6221 243.56 86.4961Z"/>
	</mask>
	<path d="M192.878 100.205L193.072 99.2235L190.543 98.7231L192.073 100.798L192.878 100.205ZM243.56 86.4961L242.661 86.06L243.56 86.4961ZM201.212 130.196L200.232 130V130L201.212 130.196ZM189.472 149.292L188.816 148.537L187.456 149.719L189.178 150.248L189.472 149.292ZM268.805 225.777L269.796 225.915L268.805 225.777ZM135.752 275.702L135.615 276.693L135.752 275.702ZM21.3662 191.517L22.3566 191.655L21.3662 191.517ZM56.2165 152.465L56.639 153.371L58.631 152.442L56.6222 151.551L56.2165 152.465ZM5.58633 91.2436L4.60578 91.0473L5.58633 91.2436ZM114.047 57.5277L113.852 58.5084L114.047 57.5277ZM126.267 60.3944L126.006 61.3595L128.78 62.1115L127.071 59.8L126.267 60.3944ZM119.04 26.4704L118.14 26.0343L119.04 26.4704ZM197.861 22.3087L197.427 23.2095L197.861 22.3087ZM192.683 101.185C204.664 103.557 215.838 103.558 224.895 101.203C233.953 98.8483 240.984 94.1066 244.46 86.9322L242.661 86.06C239.518 92.5449 233.084 97.0077 224.392 99.2675C215.701 101.527 204.843 101.553 193.072 99.2235L192.683 101.185ZM202.193 130.393C204.257 120.079 200.957 109.477 193.682 99.6111L192.073 100.798C199.121 110.358 202.154 120.397 200.232 130L202.193 130.393ZM190.128 150.047C196.435 144.567 200.679 137.957 202.193 130.393L200.232 130C198.82 137.053 194.854 143.291 188.816 148.537L190.128 150.047ZM189.178 150.248C214.025 157.879 234.766 169.345 248.75 182.624C262.742 195.911 269.866 210.899 267.815 225.64L269.796 225.915C271.969 210.298 264.38 194.708 250.127 181.174C235.865 167.631 214.827 156.033 189.766 148.336L189.178 150.248ZM267.815 225.64C265.312 243.621 249.553 258.258 225.617 267.239C201.724 276.204 169.921 279.424 135.889 274.712L135.615 276.693C169.911 281.441 202.058 278.215 226.32 269.111C250.54 260.023 267.144 244.967 269.796 225.915L267.815 225.64ZM135.889 274.712C101.857 270 72.1371 258.262 51.5957 243.144C31.0185 228 19.8538 209.636 22.3566 191.655L20.3757 191.379C17.7238 210.432 29.5879 229.43 50.4102 244.755C71.2685 260.106 101.319 271.944 135.615 276.693L135.889 274.712ZM22.3566 191.655C24.5716 175.742 37.1601 162.452 56.639 153.371L55.794 151.558C36.0047 160.784 22.7226 174.519 20.3757 191.379L22.3566 191.655ZM4.60578 91.0473C2.30567 102.538 6.66336 114.382 15.7588 125.176C24.8565 135.972 38.7623 145.811 55.8108 153.379L56.6222 151.551C39.7707 144.071 26.141 134.393 17.2882 123.887C8.4333 113.379 4.42588 102.136 6.56688 91.4399L4.60578 91.0473ZM114.242 56.5469C87.1005 51.1425 61.2828 52.2207 41.4673 58.3805C21.6936 64.5274 7.65177 75.8306 4.60578 91.0473L6.56688 91.4399C9.40143 77.2794 22.5796 66.3463 42.0609 60.2904C61.5004 54.2475 86.9727 53.1563 113.852 58.5084L114.242 56.5469ZM126.529 59.4292C122.532 58.3457 118.432 57.3811 114.242 56.5469L113.852 58.5084C117.997 59.3338 122.053 60.288 126.006 61.3595L126.529 59.4292ZM118.14 26.0343C113.2 36.2279 116.563 48.946 125.463 60.9887L127.071 59.8C118.353 48.0027 115.478 36.1118 119.939 26.9065L118.14 26.0343ZM198.295 21.4079C180.981 13.0612 163.395 9.33372 148.933 10.0973C134.513 10.8586 122.945 16.1175 118.14 26.0343L119.939 26.9065C124.28 17.9492 134.931 12.8394 149.038 12.0945C163.105 11.3518 180.356 14.9805 197.427 23.2095L198.295 21.4079ZM244.46 86.9322C249.267 77.0143 246.211 64.7046 237.85 52.9605C229.465 41.183 215.61 29.7545 198.295 21.4079L197.427 23.2095C214.498 31.4385 228.066 42.6668 236.221 54.1205C244.399 65.6077 247.001 77.1039 242.661 86.06L244.46 86.9322Z" fill="#CFB9F6" mask="url(#path-1-inside-1_3106_72367)"/>
	<ellipse cx="24.1433" cy="24.0863" rx="24.1433" ry="24.0863" transform="matrix(0.973705 -0.227813 0.228956 0.973437 79.7821 51.0342)" fill="#BEA0F2"/>
	<path d="M111.832 84.8152L111.074 81.5914C107.411 82.3323 104.204 81.3821 102.006 79.6159L102.763 78.5499C104.609 79.9732 107.438 81.1278 110.815 80.4923L108.075 68.8423C104.124 68.6845 100.192 68.4449 99.2098 64.2685C98.305 60.4218 101.224 57.3426 105.128 56.3131L104.353 53.016L105.528 52.741L106.312 56.0747C109.477 55.5274 112.13 56.2596 114.166 57.8318L113.446 58.8892C111.438 57.2719 109.075 56.7812 106.571 57.1738L109.026 67.6148C113.068 67.8287 117.207 68.2904 118.293 72.9064C118.913 75.5442 118.159 79.5858 112.24 81.2797L113.007 84.5402L111.832 84.8152ZM117.007 73.2072C116.154 69.5803 112.866 69.1127 109.328 68.897L111.991 80.2173C116.917 78.7554 117.524 75.4053 117.007 73.2072ZM100.495 63.9677C101.219 67.045 104.317 67.3639 107.773 67.5601L105.387 57.4122C101.996 58.3213 99.8147 61.0735 100.495 63.9677Z" fill="#674399"/>
	<path d="M229.691 148.131L164.042 82.7865C158.999 77.7658 153.32 77.7275 148.283 82.7418L110.944 119.911C105.914 124.919 105.946 130.578 110.989 135.599L176.638 200.95C181.681 205.971 187.36 206.009 192.397 200.995L229.736 163.826C234.766 158.818 234.734 153.158 229.691 148.138V148.131Z" fill="#674399"/>
	<path d="M119.363 143.928L197.531 195.878L229.736 163.819C234.766 158.811 234.734 153.152 229.691 148.131L205.295 123.846L118.786 143.353L119.369 143.935L119.363 143.928Z" fill="#3C2861"/>
	<path d="M199.064 142.389H106.222C99.0866 142.389 95.0505 146.362 95.0505 153.446V206.015C95.0505 213.099 99.093 217.072 106.228 217.072H199.064C206.2 217.072 210.236 213.099 210.236 206.015V153.446C210.236 146.362 206.193 142.389 199.058 142.389H199.064Z" fill="#BEA0F2"/>
	<path d="M210.236 159.757H95.0505V171.753H210.236V159.757Z" fill="#674399"/>
	<path d="M164.998 182.178H107.172V187.927H164.998V182.178Z" fill="#674399"/>
	<path d="M136.252 193.879H107.339V199.628H136.252V193.879Z" fill="#674399"/>
	<path d="M239.227 217.962C239.227 231.263 228.417 242.045 215.081 242.045C201.745 242.045 190.934 231.263 190.934 217.962C190.934 204.661 201.745 193.879 215.081 193.879C228.417 193.879 239.227 204.661 239.227 217.962Z" fill="#EAE1FF"/>
	<path d="M212.042 229.461C206.9 228.238 203.531 223.912 203.545 218.473L216.325 221.513L216.598 220.403L203.597 217.311C203.651 216.619 203.787 215.907 203.959 215.204C204.141 214.464 204.35 213.77 204.633 213.093L217.633 216.186L217.906 215.076L205.126 212.036C207.637 207.191 212.66 204.94 217.764 206.154C220.813 206.879 223.295 208.958 224.485 211.551L225.603 210.955C224.054 207.924 221.489 205.865 218.037 205.044C212.271 203.673 206.543 206.265 203.841 211.73L201.784 211.241L201.511 212.351L203.348 212.788C203.065 213.464 202.856 214.158 202.674 214.898C202.501 215.601 202.365 216.313 202.312 217.005L200.476 216.568L200.203 217.678L202.223 218.158C202.082 224.272 205.967 229.19 211.769 230.57C215.221 231.392 218.33 230.761 221.289 228.684L220.525 227.68C218.263 229.453 215.09 230.186 212.042 229.461Z" fill="#674399"/>
	<path d="M42.5412 121.844C41.4825 115.84 40.9531 112.838 42.1111 110.463C42.4851 109.697 42.9774 108.993 43.5701 108.38C45.4051 106.48 48.4074 105.95 54.4118 104.891L72.859 101.639C78.8635 100.58 81.8657 100.051 84.24 101.209C85.0068 101.583 85.7099 102.075 86.3236 102.668C88.2239 104.503 88.7532 107.505 89.812 113.509L93.0647 131.956C94.1235 137.961 94.6529 140.963 93.4948 143.337C93.1209 144.104 92.6285 144.807 92.0359 145.421C90.2008 147.321 87.1986 147.851 81.1941 148.909L62.747 152.162C56.7425 153.221 53.7402 153.75 51.3659 152.592C50.5992 152.218 49.896 151.726 49.2823 151.133C47.3821 149.298 46.8527 146.296 45.794 140.292L42.5412 121.844Z" fill="#7F54B3"/>
	<path fill-rule="evenodd" clip-rule="evenodd" d="M55.0287 120.879L78.3432 116.768C78.6941 116.706 79.0539 116.714 79.4016 116.792C79.7494 116.87 80.0783 117.016 80.3692 117.222C80.9599 117.64 81.3616 118.274 81.4871 118.986L83.0691 127.959C83.1955 128.671 83.0354 129.405 82.6238 130C82.4211 130.293 82.1623 130.543 81.8623 130.735C81.5623 130.928 81.2272 131.059 80.8762 131.121L72.5143 132.595L74.1582 135.229L68.6078 133.284L57.5596 135.232C56.0882 135.49 54.6835 134.497 54.4203 133.012L52.8379 124.038C52.5776 122.554 53.5578 121.14 55.0287 120.879Z" fill="white"/>
	<path d="M54.3826 123.348C54.4486 123.222 54.5421 123.112 54.6562 123.027C54.7702 122.942 54.902 122.883 55.0417 122.855C55.6219 122.709 56.0093 122.933 56.2038 123.526C57.0025 125.929 57.7599 127.954 58.4762 129.602L60.1453 124.223C60.2987 123.738 60.5452 123.451 60.8911 123.361C61.3927 123.234 61.769 123.509 62.019 124.185C62.5004 125.524 63.1066 126.814 63.8296 128.04C63.6038 124.985 63.7301 122.727 64.209 121.266C64.2502 121.105 64.3346 120.959 64.4531 120.843C64.5715 120.726 64.7194 120.645 64.8809 120.607C65.0106 120.573 65.1457 120.565 65.2785 120.584C65.4112 120.602 65.5391 120.647 65.6546 120.715C65.8924 120.84 66.0656 121.065 66.1274 121.331C66.1778 121.524 66.1721 121.726 66.1109 121.916C65.8103 122.852 65.6885 124.341 65.7454 126.385C65.7973 128.358 65.9559 129.88 66.2223 130.951C66.2955 131.212 66.2963 131.488 66.2247 131.75C66.1896 131.878 66.1206 131.995 66.025 132.088C65.9294 132.18 65.8106 132.245 65.6812 132.276C65.3762 132.352 65.0448 132.26 64.6878 131.999C63.4126 131.061 62.2639 129.533 61.2419 127.417C60.761 129.063 60.4033 130.299 60.1694 131.124C59.7268 132.584 59.2653 133.372 58.7844 133.489C58.4719 133.568 58.1541 133.345 57.8306 132.82C56.967 131.376 55.8043 128.494 54.3425 124.176C54.2925 124.043 54.2702 123.9 54.2772 123.758C54.2841 123.616 54.3201 123.476 54.383 123.348L54.3826 123.348Z" fill="#7F54B3"/>
	<path fill-rule="evenodd" clip-rule="evenodd" d="M77.6578 119.901C78.4748 119.916 79.247 120.309 79.7638 120.972C80.2539 121.554 80.5813 122.312 80.7459 123.246C80.9677 124.444 80.8637 125.68 80.4447 126.824C79.9643 128.154 79.1614 128.918 78.0367 129.116C77.8246 129.152 77.6091 129.166 77.3942 129.156C76.5771 129.14 75.8046 128.747 75.2881 128.084C74.796 127.49 74.4676 126.726 74.303 125.793C74.08 124.601 74.1852 123.37 74.6074 122.233C75.0989 120.902 75.9013 120.138 77.0155 119.941C77.2275 119.905 77.4428 119.891 77.6578 119.901ZM78.3174 126.523C78.6785 126.046 78.8686 125.397 78.8889 124.577L78.8895 124.581C78.8955 124.279 78.8716 123.978 78.8181 123.681C78.7487 123.305 78.6138 122.945 78.4194 122.616C78.1676 122.185 77.8949 121.964 77.601 121.956C77.1641 121.935 76.8044 122.254 76.5212 122.913C76.3024 123.399 76.1799 123.923 76.1605 124.456C76.1545 124.758 76.1784 125.059 76.2316 125.357C76.3014 125.732 76.4365 126.092 76.6301 126.418C76.881 126.846 77.1544 127.066 77.4496 127.078C77.7448 127.09 78.0343 126.905 78.3174 126.523ZM70.4975 121.163C71.3147 121.179 72.0868 121.572 72.6039 122.234L72.6028 122.235C73.0922 122.817 73.4193 123.575 73.5839 124.509C73.806 125.707 73.7022 126.943 73.2834 128.087C72.8029 129.416 72.0001 130.18 70.875 130.379C70.6625 130.415 70.4468 130.428 70.2314 130.419C69.4143 130.403 68.6418 130.01 68.125 129.347C67.6336 128.753 67.3056 127.989 67.1409 127.056C66.9179 125.864 67.0231 124.633 67.4454 123.496C67.9361 122.165 68.7389 121.401 69.8542 121.204C70.0665 121.168 70.2822 121.154 70.4975 121.163ZM71.1571 127.785C71.519 127.309 71.7094 126.66 71.7286 125.84L71.7292 125.843C71.7356 125.542 71.7117 125.24 71.6582 124.943C71.5881 124.568 71.4531 124.207 71.2592 123.878C71.0077 123.447 70.7346 123.227 70.4407 123.219C70.0039 123.198 69.6438 123.517 69.3609 124.176C69.142 124.662 69.0194 125.186 68.9998 125.718C68.9934 126.02 69.0171 126.322 69.0703 126.62C69.1405 126.995 69.2759 127.355 69.4694 127.681C69.7206 128.112 69.9939 128.331 70.2879 128.341C70.582 128.35 70.8731 128.164 71.1571 127.785Z" fill="#7F54B3"/>
</svg>
