<svg width="28" height="28" viewBox="-2 -2 71.6 71.6" fill="none" xmlns="http://www.w3.org/2000/svg">
  <path d="M58.61,19.67c0-2.43.99-4.64,2.58-6.23,0,0,0,0,0,0l-7.32-7.33s0,0,0,0c-1.6,1.59-3.8,2.58-6.23,2.58-4.87,0-8.82-3.95-8.82-8.82h0s-5.18,0-5.18,0h-5.18c0,4.87-3.95,8.82-8.82,8.82-2.43,0-4.64-.99-6.23-2.58,0,0,0,0,0,0l-7.32,7.33s0,0,0,0c1.59,1.6,2.58,3.8,2.58,6.23,0,4.87-3.95,8.82-8.82,8.82,0,0,0,0,0,0v10.36s0,0,0,0c4.87,0,8.82,3.95,8.82,8.82,0,2.43-.99,4.64-2.58,6.23,0,0,0,0,0,0l7.32,7.33s0,0,0,0c1.6-1.59,3.8-2.58,6.23-2.58,4.87,0,8.82,3.95,8.82,8.82h0s5.18,0,5.18,0h5.18c0-4.87,3.95-8.82,8.82-8.82,2.43,0,4.64.99,6.23,2.58,0,0,0,0,0,0l7.32-7.33s0,0,0,0c-1.59-1.6-2.58-3.8-2.58-6.23,0-4.87,3.95-8.82,8.82-8.82,0,0,0,0,0,0v-10.36s0,0,0,0c-4.87,0-8.82-3.95-8.82-8.82ZM50.61,43.46l-16.97,9.8-16.97-9.8v-19.6l16.97-9.8,16.97,9.8v19.6Z" fill="#00e664"/>
</svg>
